<svg width="573" height="295" viewBox="0 0 573 295" fill="none" xmlns="http://www.w3.org/2000/svg">
<g style="mix-blend-mode:overlay" clip-path="url(#clip0_4689_18152)">
<path d="M0 399.768L8.98301 97.97L290.557 41.293L288.385 122.164L92.1636 164.771L84.5623 382.427L0 399.768Z" fill="#44F1F0"/>
<path d="M283.815 357.762L576.377 291.548L579.635 -20L475.42 1.71248L471.857 220.528L283.815 258.436V357.762Z" fill="#44F1F0"/>
<path d="M576.377 291.548L653.99 349.44L362.758 417.581L283.815 357.762L576.377 291.548Z" fill="#49DBDB"/>
<path d="M92.1636 164.771L169.194 220.528L365.415 179.4L288.385 122.164L92.1636 164.771Z" fill="#49DBDB"/>
<path d="M92.1639 164.771L169.194 220.528L161.962 439.294L84.5625 382.427L92.1639 164.771Z" fill="#3DA8A8"/>
<path d="M290.557 41.293L288.385 122.164L365.415 179.4L367.171 97.605L290.557 41.293Z" fill="#3DA8A8"/>
</g>
<defs>
<clipPath id="clip0_4689_18152">
<rect width="656" height="477" fill="white" transform="translate(0 -20)"/>
</clipPath>
</defs>
</svg>
