<svg width="193" height="261" viewBox="0 0 193 261" fill="none" xmlns="http://www.w3.org/2000/svg">
<g style="mix-blend-mode:overlay" clip-path="url(#clip0_4689_19218)">
<path d="M0 237.784L5.08033 66.9546L164.324 34.8733L163.096 80.6492L52.123 104.766L47.8241 227.968L0 237.784Z" fill="#44F1F0"/>
<path d="M160.511 214.007L325.97 176.527L327.812 0.179199L268.873 12.4693L266.858 136.327L160.511 157.785V214.007Z" fill="#44F1F0"/>
<path d="M0 237.784L43.8675 270.179L91.5975 260.157L47.8241 227.968L0 237.784Z" fill="#49DBDB"/>
<path d="M325.97 176.527L369.863 209.296L205.157 247.867L160.511 214.007L325.97 176.527Z" fill="#49DBDB"/>
<path d="M52.123 104.767L95.6874 136.327L206.66 113.047L163.096 80.6494L52.123 104.767Z" fill="#49DBDB"/>
<path d="M52.123 104.767L95.6874 136.327L91.5975 260.157L47.8241 227.968L52.123 104.767Z" fill="#3DA8A8"/>
<path d="M164.324 34.8733L163.096 80.6492L206.66 113.047L207.653 66.748L164.324 34.8733Z" fill="#3DA8A8"/>
</g>
<defs>
<clipPath id="clip0_4689_19218">
<rect width="371" height="270" fill="white" transform="translate(0 0.179199)"/>
</clipPath>
</defs>
</svg>
