<svg width="72" height="72" viewBox="0 0 72 72" fill="none" xmlns="http://www.w3.org/2000/svg">
<rect width="72" height="72" rx="8" fill="black"/>
<path d="M28.6781 19.4372L27.2817 25.6658L20.7423 39.3801L20.0137 29.8801L28.6781 19.4372Z" fill="white"/>
<path d="M29.8888 19.1589L45.1677 31.0161L39.3533 43.6196L28.8066 25.7268L29.8888 19.1589Z" fill="white"/>
<path d="M51.986 30.279L50.0002 44.2969L40.75 43.8683L46.9537 31.6112L51.986 30.279Z" fill="white"/>
<path d="M27.8582 28.5398L21.7188 40.9076L37.8584 43.8898L27.8582 28.5398Z" fill="white"/>
<path d="M49.7816 45.9181L39.8206 45.8073L33.6562 52.1359L49.7816 45.9181Z" fill="white"/>
<path d="M21.5283 42.4196L37.7251 45.4196L29.9463 52.8411L21.5283 42.4196Z" fill="white"/>
<path d="M32.1465 19.1589L46.7611 29.5839L51.5969 28.6768L32.1465 19.1589Z" fill="white"/>
</svg>
