<svg width="32" height="33" fill="none" xmlns="http://www.w3.org/2000/svg"><path d="m15.027 13.973-6.702 4.85a.35.35 0 0 1-.41 0l-4.4-3.196a.35.35 0 0 1 .001-.567L15.79 6.175a.35.35 0 0 1 .41 0l12.281 8.885a.35.35 0 0 1 0 .567l-4.406 3.197a.35.35 0 0 1-.41 0l-6.703-4.851a1.65 1.65 0 0 0-1.935 0z" stroke="#00DDC2" stroke-width="1.3"/><path d="m20.266 24.58-3.665 2.747a1 1 0 0 1-1.2 0l-3.667-2.746a1 1 0 0 1-.001-1.6l3.667-2.754a1 1 0 0 1 1.202 0l3.665 2.754a1 1 0 0 1 0 1.6z" fill="#00DDC2"/></svg>