<svg width="1534" height="980" viewBox="0 0 1534 980" fill="none" xmlns="http://www.w3.org/2000/svg">
<g filter="url(#filter0_f_7_8)">
<path d="M1311.5 181C1311.5 187.937 827.397 65.5 778.4 65.5C729.403 65.5 324 153.582 251 179C251 172.063 729.403 30 778.4 30C827.397 30 1213 157.972 1311.5 181Z" fill="#00DDC2"/>
</g>
<path d="M1534 280.791V915.705C1534 948.313 1503.29 972.196 1471.69 964.165L779.314 788.222C771.233 786.168 762.767 786.168 754.686 788.222L62.3145 964.165C30.7104 972.196 0 948.313 0 915.705V280.791C0 257.92 15.5188 237.964 37.6856 232.331L754.686 50.1293C762.767 48.0757 771.233 48.0757 779.314 50.1293L1496.31 232.331C1518.48 237.964 1534 257.92 1534 280.791Z" fill="#0A0A0B"/>
<defs>
<filter id="filter0_f_7_8" x="221" y="0" width="1120.5" height="211.284" filterUnits="userSpaceOnUse" color-interpolation-filters="sRGB">
<feFlood flood-opacity="0" result="BackgroundImageFix"/>
<feBlend mode="normal" in="SourceGraphic" in2="BackgroundImageFix" result="shape"/>
<feGaussianBlur stdDeviation="15" result="effect1_foregroundBlur_7_8"/>
</filter>
</defs>
</svg>
