<svg width="199" height="247" viewBox="0 0 199 247" fill="none" xmlns="http://www.w3.org/2000/svg">
<g filter="url(#filter0_f_4397_13331)">
<g filter="url(#filter1_b_4397_13331)">
<path style="mix-blend-mode:color-dodge" opacity="0.37" d="M112.009 105.212C112.09 105.275 112.157 105.355 112.203 105.447C112.248 105.54 112.272 105.641 112.272 105.744C112.272 105.847 112.248 105.949 112.203 106.041C112.157 106.134 112.09 106.214 112.009 106.276L101.576 113.969C101.462 114.055 101.323 114.101 101.18 114.101C101.038 114.101 100.899 114.055 100.785 113.969L86.7361 103.612C86.6246 103.528 86.4894 103.482 86.35 103.48C86.2908 103.47 86.2304 103.47 86.1711 103.48C86.0917 103.497 86.0174 103.532 85.9546 103.583L71.8306 113.941C71.718 114.026 71.5808 114.072 71.4399 114.072C71.2989 114.072 71.1617 114.026 71.0491 113.941L60.6068 106.248C60.5249 106.186 60.4584 106.105 60.4127 106.013C60.3669 105.921 60.3431 105.819 60.3431 105.716C60.3431 105.613 60.3669 105.512 60.4127 105.419C60.4584 105.327 60.5249 105.246 60.6068 105.184L85.9451 86.5405C86.0595 86.4555 86.1981 86.4094 86.3406 86.4087C86.4455 86.4101 86.5487 86.4359 86.6419 86.484L112.009 105.212ZM101.18 139.647C101.321 139.639 101.458 139.593 101.576 139.515L112.009 131.812C112.09 131.752 112.157 131.673 112.203 131.583C112.248 131.492 112.272 131.392 112.272 131.29C112.272 131.188 112.248 131.088 112.203 130.997C112.157 130.906 112.09 130.828 112.009 130.767L86.6513 112.058C86.5581 112.01 86.455 111.984 86.35 111.982C86.2075 111.983 86.069 112.029 85.9546 112.114L60.6162 130.767C60.5344 130.828 60.468 130.906 60.4222 130.997C60.3764 131.088 60.3525 131.188 60.3525 131.29C60.3525 131.392 60.3764 131.492 60.4222 131.583C60.468 131.673 60.5344 131.752 60.6162 131.812L71.0585 139.496C71.1755 139.576 71.3125 139.621 71.454 139.628C71.592 139.618 71.7251 139.573 71.84 139.496L85.964 129.138C86.0798 129.056 86.2175 129.01 86.3594 129.006C86.4342 128.993 86.5107 128.993 86.5854 129.006C86.6433 129.025 86.6974 129.054 86.7455 129.091L100.869 139.515C100.961 139.583 101.067 139.628 101.18 139.647ZM86.6513 139.647C86.5903 139.612 86.5231 139.59 86.4536 139.581H86.3124C86.1692 139.577 86.0292 139.624 85.9169 139.712L75.484 147.405C75.4004 147.465 75.3323 147.545 75.2853 147.636C75.2384 147.728 75.2139 147.83 75.2139 147.933C75.2139 148.036 75.2384 148.137 75.2853 148.229C75.3323 148.32 75.4004 148.4 75.484 148.46L85.9169 156.153C85.992 156.209 86.0789 156.248 86.1711 156.266H86.3124H86.4725L86.6137 156.209C86.6459 156.197 86.6748 156.178 86.6984 156.153L97.1407 148.46C97.2226 148.398 97.289 148.319 97.3348 148.227C97.3805 148.136 97.4044 148.035 97.4044 147.933C97.4044 147.83 97.3805 147.729 97.3348 147.638C97.289 147.546 97.2226 147.467 97.1407 147.405L86.6984 139.712C86.6845 139.698 86.6686 139.685 86.6513 139.675V139.647Z" fill="url(#paint0_linear_4397_13331)"/>
<path opacity="0.88" d="M112.009 109.45C112.091 109.512 112.157 109.592 112.203 109.685C112.249 109.777 112.273 109.879 112.273 109.982C112.273 110.085 112.249 110.186 112.203 110.278C112.157 110.371 112.091 110.451 112.009 110.514L101.576 118.206C101.462 118.292 101.323 118.338 101.181 118.338C101.038 118.338 100.899 118.292 100.785 118.206L86.7366 107.849C86.6226 107.771 86.4884 107.729 86.3505 107.726H86.1716C86.0953 107.752 86.0225 107.786 85.955 107.83L71.8311 118.188C71.7185 118.272 71.5813 118.318 71.4403 118.318C71.2994 118.318 71.1622 118.272 71.0496 118.188L60.6073 110.495C60.5253 110.432 60.4589 110.352 60.4131 110.26C60.3674 110.167 60.3436 110.066 60.3436 109.963C60.3436 109.86 60.3674 109.758 60.4131 109.666C60.4589 109.574 60.5253 109.493 60.6073 109.431L85.9456 90.7871C86.058 90.6982 86.1979 90.6516 86.3411 90.6553C86.4466 90.6522 86.5508 90.6783 86.6424 90.7306L112.009 109.45ZM101.181 143.884C101.322 143.876 101.458 143.83 101.576 143.752L112.009 136.05C112.091 135.989 112.157 135.91 112.203 135.82C112.249 135.729 112.273 135.629 112.273 135.527C112.273 135.425 112.249 135.325 112.203 135.234C112.157 135.144 112.091 135.065 112.009 135.004L86.6518 116.295C86.5586 116.247 86.4554 116.221 86.3505 116.22C86.208 116.22 86.0695 116.266 85.955 116.351L60.6167 135.004C60.5349 135.065 60.4685 135.144 60.4227 135.234C60.3769 135.325 60.353 135.425 60.353 135.527C60.353 135.629 60.3769 135.729 60.4227 135.82C60.4685 135.91 60.5349 135.989 60.6167 136.05L71.059 143.752C71.176 143.832 71.313 143.877 71.4545 143.884C71.5925 143.874 71.7256 143.829 71.8405 143.752L85.9645 133.394C86.0803 133.312 86.2179 133.266 86.3599 133.262C86.4342 133.245 86.5116 133.245 86.5859 133.262C86.6438 133.281 86.6979 133.31 86.746 133.347L100.87 143.771C100.963 143.832 101.07 143.871 101.181 143.884ZM86.6518 143.884C86.5887 143.856 86.5222 143.837 86.4541 143.827H86.3129C86.1697 143.824 86.0297 143.87 85.9174 143.959L75.4845 151.652C75.4009 151.712 75.3328 151.791 75.2858 151.883C75.2389 151.975 75.2144 152.076 75.2144 152.179C75.2144 152.282 75.2389 152.384 75.2858 152.475C75.3328 152.567 75.4009 152.646 75.4845 152.706L85.9174 160.399C85.9925 160.456 86.0794 160.494 86.1716 160.512H86.3129H86.4729L86.6142 160.456L86.6989 160.399L97.1789 152.678C97.2607 152.617 97.3272 152.537 97.3729 152.446C97.4187 152.354 97.4425 152.253 97.4425 152.151C97.4425 152.049 97.4187 151.948 97.3729 151.856C97.3272 151.765 97.2607 151.685 97.1789 151.624L86.7366 143.931L86.6518 143.884Z" fill="url(#paint1_linear_4397_13331)"/>
<path d="M97.4429 147.97V152.208C97.4402 152.107 97.4178 152.008 97.377 151.916C97.33 151.823 97.2624 151.743 97.1793 151.68L86.737 143.987L86.6522 143.922C86.5891 143.894 86.5226 143.875 86.4545 143.865H86.3133C86.1701 143.861 86.0301 143.908 85.9178 143.997L75.4849 151.69C75.4025 151.751 75.3357 151.83 75.2898 151.922C75.244 152.013 75.2205 152.115 75.2213 152.217V147.97C75.2195 147.869 75.2421 147.769 75.2872 147.679C75.3283 147.582 75.3971 147.5 75.4849 147.443L85.9178 139.75L86.0308 139.675H86.1344H86.2191H86.4639H86.5675H86.6146C86.6468 139.687 86.6758 139.706 86.6993 139.731L97.1416 147.424C97.2227 147.489 97.2899 147.569 97.3394 147.66C97.3394 147.66 97.3394 147.726 97.3394 147.763C97.3394 147.801 97.3394 147.82 97.3394 147.857C97.3394 147.895 97.4429 147.914 97.4429 147.97ZM112.264 131.219C112.268 131.191 112.268 131.163 112.264 131.135C112.268 131.1 112.268 131.066 112.264 131.031C112.223 130.935 112.154 130.853 112.066 130.796L86.6522 112.058H86.6052H86.5016H86.2568H86.172H86.0685L85.9555 112.124L60.6171 130.777C60.5377 130.838 60.4735 130.916 60.4294 131.006C60.3853 131.096 60.3625 131.195 60.3629 131.295V135.532C60.361 135.432 60.3831 135.332 60.4274 135.242C60.4716 135.152 60.5366 135.074 60.6171 135.014L85.9555 116.361C86.0699 116.276 86.2084 116.23 86.3509 116.229C86.4559 116.231 86.559 116.256 86.6522 116.305L112.009 135.014C112.097 135.071 112.166 135.153 112.207 135.249C112.252 135.337 112.275 135.434 112.273 135.532V131.295C112.277 131.26 112.274 131.225 112.264 131.191V131.219ZM112.264 105.796C112.268 105.768 112.268 105.74 112.264 105.712C112.268 105.684 112.268 105.655 112.264 105.627C112.268 105.592 112.268 105.558 112.264 105.523C112.221 105.426 112.152 105.341 112.066 105.278L86.6522 86.5125H86.6052H86.5016H86.4168H86.2568H86.172H86.0685L85.9555 86.5784L60.6171 105.222C60.5375 105.285 60.4733 105.365 60.4292 105.456C60.3852 105.548 60.3625 105.648 60.3629 105.749V109.986C60.3625 109.885 60.3852 109.785 60.4292 109.693C60.4733 109.602 60.5375 109.522 60.6171 109.459L85.9555 90.8155C86.0678 90.7267 86.2078 90.68 86.3509 90.6837C86.4564 90.6807 86.5606 90.7067 86.6522 90.759L112.009 109.459C112.098 109.52 112.167 109.605 112.207 109.704C112.252 109.791 112.275 109.888 112.273 109.986V105.749L112.264 105.796Z" fill="url(#paint2_linear_4397_13331)"/>
<g style="mix-blend-mode:soft-light">
<path d="M62.4065 133.686C66.2859 130.729 70.1747 127.791 74.0729 124.873L85.8146 116.163C85.8988 116.089 85.9975 116.033 86.1045 115.999C86.2115 115.965 86.3244 115.953 86.436 115.965C86.6286 116.004 86.8092 116.088 86.9633 116.21L87.7166 116.775L89.2232 117.895L92.2363 120.127L98.2625 124.609C102.274 127.603 106.269 130.623 110.249 133.667C106.162 130.767 102.098 127.845 98.0553 124.901L91.9632 120.494L88.9313 118.281L87.4247 117.17L86.662 116.615C86.4266 116.417 86.2477 116.417 86.1065 116.521L74.2989 125.146C70.3504 128.021 66.3863 130.867 62.4065 133.686Z" fill="url(#paint3_linear_4397_13331)"/>
</g>
<g style="mix-blend-mode:soft-light">
<path d="M110.221 107.989C106.153 105.07 102.085 102.161 98.0457 99.2135L91.963 94.788L88.9405 92.5753L87.4339 91.4736L86.6807 90.918C86.4453 90.7109 86.2475 90.7203 86.1063 90.8239L73.3383 100.24L66.9448 104.948C64.8168 106.52 62.6229 107.999 60.6079 109.656C60.5581 109.712 60.5202 109.778 60.4964 109.849C60.4727 109.92 60.4636 109.995 60.4698 110.07C60.476 110.145 60.4972 110.218 60.5323 110.284C60.5673 110.35 60.6155 110.409 60.6738 110.456C60.9092 110.663 61.2199 110.88 61.493 111.087L63.1596 112.358L66.5399 114.844L63.1314 112.396L61.4271 111.172C61.1446 110.965 60.8621 110.786 60.5702 110.541C60.4205 110.41 60.3235 110.229 60.2971 110.032C60.2824 109.824 60.35 109.618 60.4855 109.458C62.4722 107.716 64.6473 106.21 66.7471 104.609L73.1029 99.9009L85.8615 90.4849C85.9452 90.4103 86.0441 90.3548 86.1514 90.3222C86.2588 90.2897 86.3719 90.281 86.4829 90.2966C86.6753 90.3274 86.8549 90.4123 87.0008 90.5414L87.7541 91.0969L89.2606 92.2174L92.2737 94.449L98.3 98.9404C102.245 101.935 106.238 104.967 110.221 107.989Z" fill="url(#paint4_linear_4397_13331)"/>
</g>
<g style="mix-blend-mode:soft-light">
<path d="M75.3542 151.587C78.7817 148.941 82.2844 146.39 85.7118 143.791C85.8411 143.684 85.9966 143.614 86.1621 143.587C86.3277 143.561 86.4972 143.579 86.6534 143.64C86.911 143.798 87.1594 143.971 87.3973 144.158L88.8097 145.213L91.6344 147.322C93.5176 148.728 95.4008 150.146 97.284 151.578C95.3632 150.222 93.4549 148.85 91.5591 147.463L88.7343 145.382L87.3031 144.346C87.0774 144.169 86.8416 144.006 86.5969 143.857C86.4831 143.805 86.3568 143.787 86.2333 143.806C86.1097 143.824 85.994 143.878 85.9001 143.96C82.3786 146.512 78.9041 149.101 75.3542 151.587Z" fill="url(#paint5_linear_4397_13331)"/>
</g>
<path style="mix-blend-mode:color-dodge" opacity="0.84" d="M112.009 109.45C112.091 109.512 112.157 109.592 112.203 109.685C112.249 109.777 112.273 109.879 112.273 109.982C112.273 110.085 112.249 110.186 112.203 110.278C112.157 110.371 112.091 110.451 112.009 110.514L101.576 118.206C101.462 118.292 101.323 118.338 101.181 118.338C101.038 118.338 100.899 118.292 100.785 118.206L86.7366 107.849C86.6226 107.771 86.4884 107.729 86.3505 107.726H86.1716C86.0953 107.752 86.0225 107.786 85.955 107.83L71.8311 118.188C71.7185 118.272 71.5813 118.318 71.4403 118.318C71.2994 118.318 71.1622 118.272 71.0496 118.188L60.6073 110.495C60.5253 110.432 60.4589 110.352 60.4131 110.26C60.3674 110.167 60.3436 110.066 60.3436 109.963C60.3436 109.86 60.3674 109.758 60.4131 109.666C60.4589 109.574 60.5253 109.493 60.6073 109.431L85.9456 90.7871C86.058 90.6982 86.1979 90.6516 86.3411 90.6553C86.4466 90.6522 86.5508 90.6783 86.6424 90.7306L112.009 109.45ZM101.181 143.884C101.322 143.876 101.458 143.83 101.576 143.752L112.009 136.05C112.091 135.989 112.157 135.91 112.203 135.82C112.249 135.729 112.273 135.629 112.273 135.527C112.273 135.425 112.249 135.325 112.203 135.234C112.157 135.144 112.091 135.065 112.009 135.004L86.6518 116.295C86.5586 116.247 86.4554 116.221 86.3505 116.22C86.208 116.22 86.0695 116.266 85.955 116.351L60.6167 135.004C60.5349 135.065 60.4685 135.144 60.4227 135.234C60.3769 135.325 60.353 135.425 60.353 135.527C60.353 135.629 60.3769 135.729 60.4227 135.82C60.4685 135.91 60.5349 135.989 60.6167 136.05L71.059 143.752C71.176 143.832 71.313 143.877 71.4545 143.884C71.5925 143.874 71.7256 143.829 71.8405 143.752L85.9645 133.394C86.0803 133.312 86.2179 133.266 86.3599 133.262C86.4342 133.245 86.5116 133.245 86.5859 133.262C86.6438 133.281 86.6979 133.31 86.746 133.347L100.87 143.771C100.963 143.832 101.07 143.871 101.181 143.884ZM86.6518 143.884C86.5887 143.856 86.5222 143.837 86.4541 143.827H86.3129C86.1697 143.824 86.0297 143.87 85.9174 143.959L75.4845 151.652C75.4009 151.712 75.3328 151.791 75.2858 151.883C75.2389 151.975 75.2144 152.076 75.2144 152.179C75.2144 152.282 75.2389 152.384 75.2858 152.475C75.3328 152.567 75.4009 152.646 75.4845 152.706L85.9174 160.399C85.9925 160.456 86.0794 160.494 86.1716 160.512H86.3129H86.4729L86.6142 160.456L86.6989 160.399L97.1789 152.678C97.2607 152.617 97.3272 152.537 97.3729 152.446C97.4187 152.354 97.4425 152.253 97.4425 152.151C97.4425 152.049 97.4187 151.948 97.3729 151.856C97.3272 151.765 97.2607 151.685 97.1789 151.624L86.7366 143.931L86.6518 143.884Z" fill="url(#paint6_linear_4397_13331)"/>
<g style="mix-blend-mode:color-dodge" filter="url(#filter2_d_4397_13331)">
<path d="M112.009 109.449L86.6519 90.7486C86.5572 90.6943 86.4503 90.6651 86.3412 90.6638C86.1977 90.6679 86.0593 90.7173 85.9457 90.8051L60.6168 109.449C60.5348 109.511 60.4684 109.591 60.4226 109.684C60.3769 109.776 60.3531 109.878 60.3531 109.981C60.3531 110.084 60.3769 110.185 60.4226 110.278C60.4684 110.37 60.5348 110.45 60.6168 110.513L71.0591 118.205C71.1735 118.29 71.312 118.337 71.4546 118.337C71.5966 118.334 71.7345 118.288 71.85 118.205L85.974 107.848C86.0433 107.81 86.1158 107.779 86.1905 107.754C86.2493 107.739 86.3107 107.739 86.3694 107.754C86.5093 107.762 86.6451 107.804 86.7649 107.876L100.814 118.234C100.929 118.318 101.067 118.364 101.209 118.366C101.351 118.362 101.489 118.316 101.604 118.234L112.037 110.541C112.125 110.478 112.196 110.395 112.244 110.299C112.293 110.202 112.316 110.095 112.313 109.987C112.311 109.879 112.281 109.774 112.228 109.68C112.175 109.586 112.1 109.507 112.009 109.449ZM112.009 135.004L93.5632 121.388L86.6519 116.294C86.5549 116.247 86.449 116.221 86.3412 116.219C86.1986 116.219 86.0598 116.265 85.9457 116.351L77.1324 122.848L71.6805 126.859L61.5584 134.316L60.6168 135.004C60.4853 135.098 60.3947 135.24 60.3632 135.399C60.3318 135.558 60.3618 135.723 60.4473 135.86C60.4963 135.927 60.5532 135.987 60.6168 136.039L66.7183 140.54L71.0591 143.751C71.1782 143.826 71.314 143.872 71.4546 143.883C71.5955 143.874 71.7318 143.828 71.85 143.751L85.974 133.393C86.0943 133.322 86.2298 133.28 86.3694 133.271C86.4501 133.253 86.5336 133.253 86.6143 133.271C86.6695 133.284 86.721 133.31 86.7649 133.346L100.889 143.779C100.978 143.828 101.079 143.854 101.181 143.855C101.322 143.845 101.458 143.8 101.576 143.723L112.009 136.011C112.087 135.952 112.15 135.876 112.194 135.789C112.237 135.701 112.26 135.605 112.26 135.507C112.26 135.41 112.237 135.313 112.194 135.226C112.15 135.138 112.087 135.062 112.009 135.004ZM97.179 151.66L86.7367 143.958L86.6519 143.902C86.5871 143.87 86.5168 143.851 86.4448 143.845H86.3129C86.1727 143.851 86.0364 143.893 85.9175 143.968L75.4846 151.67C75.4059 151.733 75.3425 151.814 75.299 151.905C75.2554 151.996 75.2327 152.096 75.2327 152.197C75.2327 152.298 75.2554 152.398 75.299 152.489C75.3425 152.581 75.4059 152.661 75.4846 152.724L85.9175 160.417C85.9969 160.472 86.0866 160.51 86.1811 160.53C86.2246 160.539 86.2694 160.539 86.3129 160.53C86.3653 160.545 86.4206 160.545 86.473 160.53C86.5228 160.54 86.5739 160.54 86.6237 160.53C86.6558 160.518 86.6848 160.499 86.7084 160.474L97.179 152.677C97.2539 152.615 97.3143 152.538 97.3557 152.45C97.3972 152.362 97.4187 152.266 97.4187 152.169C97.4187 152.072 97.3972 151.976 97.3557 151.888C97.3143 151.8 97.2539 151.722 97.179 151.66Z" fill="url(#paint7_linear_4397_13331)" style="mix-blend-mode:color-dodge" shape-rendering="crispEdges"/>
</g>
</g>
</g>
<defs>
<filter id="filter0_f_4397_13331" x="-25.6657" y="0.447807" width="223.94" height="246.054" filterUnits="userSpaceOnUse" color-interpolation-filters="sRGB">
<feFlood flood-opacity="0" result="BackgroundImageFix"/>
<feBlend mode="normal" in="SourceGraphic" in2="BackgroundImageFix" result="shape"/>
<feGaussianBlur stdDeviation="42.9804" result="effect1_foregroundBlur_4397_13331"/>
</filter>
<filter id="filter1_b_4397_13331" x="58.5759" y="84.6895" width="55.457" height="77.5708" filterUnits="userSpaceOnUse" color-interpolation-filters="sRGB">
<feFlood flood-opacity="0" result="BackgroundImageFix"/>
<feGaussianBlur in="BackgroundImageFix" stdDeviation="0.859609"/>
<feComposite in2="SourceAlpha" operator="in" result="effect1_backgroundBlur_4397_13331"/>
<feBlend mode="normal" in="SourceGraphic" in2="effect1_backgroundBlur_4397_13331" result="shape"/>
</filter>
<filter id="filter2_d_4397_13331" x="58.6319" y="90.6638" width="55.4011" height="73.3156" filterUnits="userSpaceOnUse" color-interpolation-filters="sRGB">
<feFlood flood-opacity="0" result="BackgroundImageFix"/>
<feColorMatrix in="SourceAlpha" type="matrix" values="0 0 0 0 0 0 0 0 0 0 0 0 0 0 0 0 0 0 127 0" result="hardAlpha"/>
<feOffset dy="1.71922"/>
<feGaussianBlur stdDeviation="0.859609"/>
<feComposite in2="hardAlpha" operator="out"/>
<feColorMatrix type="matrix" values="0 0 0 0 0 0 0 0 0 0 0 0 0 0 0 0 0 0 0.25 0"/>
<feBlend mode="normal" in2="BackgroundImageFix" result="effect1_dropShadow_4397_13331"/>
<feBlend mode="normal" in="SourceGraphic" in2="effect1_dropShadow_4397_13331" result="shape"/>
</filter>
<linearGradient id="paint0_linear_4397_13331" x1="86.3124" y1="156.303" x2="86.3124" y2="86.4369" gradientUnits="userSpaceOnUse">
<stop stop-color="#259F91"/>
<stop offset="1" stop-color="#2FD4C1"/>
</linearGradient>
<linearGradient id="paint1_linear_4397_13331" x1="86.3129" y1="151.125" x2="86.3129" y2="81.2487" gradientUnits="userSpaceOnUse">
<stop stop-color="#209184"/>
<stop offset="0.52" stop-color="#0EA896"/>
<stop offset="1" stop-color="#00E5CA"/>
</linearGradient>
<linearGradient id="paint2_linear_4397_13331" x1="86.3133" y1="152.189" x2="86.3133" y2="95.5329" gradientUnits="userSpaceOnUse">
<stop stop-color="#2AB5A5"/>
<stop offset="1" stop-color="#6EEBDC"/>
</linearGradient>
<linearGradient id="paint3_linear_4397_13331" x1="86.3136" y1="133.874" x2="86.3136" y2="115.984" gradientUnits="userSpaceOnUse">
<stop stop-color="white" stop-opacity="0"/>
<stop offset="1" stop-color="white"/>
</linearGradient>
<linearGradient id="paint4_linear_4397_13331" x1="85.24" y1="115.032" x2="85.24" y2="90.2872" gradientUnits="userSpaceOnUse">
<stop stop-color="white" stop-opacity="0"/>
<stop offset="1" stop-color="white"/>
</linearGradient>
<linearGradient id="paint5_linear_4397_13331" x1="86.3333" y1="151.681" x2="86.3333" y2="143.574" gradientUnits="userSpaceOnUse">
<stop stop-color="white" stop-opacity="0"/>
<stop offset="1" stop-color="white"/>
</linearGradient>
<linearGradient id="paint6_linear_4397_13331" x1="62.7918" y1="112.915" x2="74.9196" y2="119.449" gradientUnits="userSpaceOnUse">
<stop stop-color="#5CF2E1"/>
<stop offset="1" stop-color="#5CF2E1" stop-opacity="0"/>
</linearGradient>
<linearGradient id="paint7_linear_4397_13331" x1="102.716" y1="148.713" x2="95.3617" y2="137.066" gradientUnits="userSpaceOnUse">
<stop stop-color="#5CF2E1"/>
<stop offset="0.53" stop-color="#5CF2E1" stop-opacity="0.47"/>
<stop offset="1" stop-color="#5CF2E1" stop-opacity="0"/>
</linearGradient>
</defs>
</svg>
