<svg width="72" height="73" fill="none" xmlns="http://www.w3.org/2000/svg"><rect y=".025" width="72" height="72" rx="8" fill="#000"/><g clip-path="url(#a)" fill="#F0F4F7"><path d="m28.593 51.26-4.347-2.37-1.05 3.135 5.39-.763c-.017 0-.025 0 .008-.002z"/><path d="m28.593 51.26-.008.002c.02 0 .055-.002.008-.002zM43.56 49.736l3.5-1.03 1.314-4.15-3.231.222-1.583 4.958zM51.888 23.156l-2.674-1.734-1.497 4.761 2.943.885 1.228-3.912zM33.842 22.044s1.812.556 2.527.759l2.576.762.045-3.54-4.53.901-.618 1.118zM15.857 35.266l3.18.008 1.133-3.552-2.891-.767c-.308.976-1.108 3.335-1.422 4.31zM9.94 31.965l2.38 2.48 1.37-4.398-2.921-.776-.83 2.694zM60.342 46.16c-.05-1.245-.395-1.653-1.13-2.418l-3.834.256c1.069.671 1.724 1.503 1.86 2.619.149 1.225-1.182 2.641-2.47 2.641-.72 0-1.078-.564-1.078-1.211.02-.483.19-1.11.445-1.528H50.883c-.254.65-.465 1.382-.465 2.072 0 2.363 2.09 2.97 4.075 2.97 2.069 0 3.78-.398 4.858-2.303.485-.86 1.032-2.094.991-3.098zM19.888 20.346l-9.967.008-.778 2.448 3.653-.004-1.806 5.693 2.922.775 2.03-6.47 3.168-.004.778-2.446z"/><path d="M20.976 29.11c.358-.022.719-.022 1.077-.022.592-.002 1.479.04 1.479.856.002.564-.21 1.276-.377 1.82-.316 1.11-.694 2.217-.758 3.347l3.273-.004c-.086-1.82 1.052-3.41 1.05-5.21 0-1.213-.93-1.693-2.007-1.882l.316-.043c2.344-.316 3.651-2.136 3.649-4.416-.002-2.528-2.136-3.238-4.31-3.236l-3.759.004c-1.069 3.287-2.082 6.591-3.12 9.892l2.889.765.598-1.87zm2.021-6.467 1.057-.002c.782 0 1.562.187 1.564 1.108.003 1.13-.82 3.035-2.172 3.035l-1.733.002 1.284-4.143zM29.83 35.147l1.686-3.16 4.034-.005-.123 3.18 3.168-.003.252-10.823-2.722-.817a50.66 50.66 0 0 0-.387 6.12h-.02l-3.041.002c1.093-2.049 2.142-4.114 3.086-6.232l-2.181-.655-7.047 12.395 3.295-.002zM52.259 35.126l.8-2.408-4.244.006 1.572-4.922-2.943-.884-2.619 8.214 7.434-.006zM32.595 36.074h-4.16L24.53 48.177l4.97 2.682c2.976-.111 5.06-2.292 5.06-5.287 0-1.15-.718-2.049-1.836-2.363 2.197-.501 3.61-1.903 3.61-4.203-.002-2.242-1.755-2.932-3.74-2.932zm-1.71 11.61c-.592.879-1.225.942-2.218.942h-1.288l1.415-4.35c1.034.04 2.871-.209 2.871 1.296 0 .668-.4 1.569-.78 2.112zm-.254-5.524h-1.184l1.245-3.828c.93.043 2.683-.25 2.683 1.173.023 1.673-1.055 2.655-2.744 2.655zM42.669 25.5l-3.156 10.452-2.787 8.477 3.346-.255 2.416-7.543h.004l3.265-10.216c-.455-.126-2.265-.702-3.088-.915zM44.233 36.096l-.782 2.444h3.656l-1.71 5.443 3.19-.217 1.665-5.226h3.166l.782-2.444h-9.967zM58.72 35.95c-3.273 0-5.216 2.257-5.216 5.395.004.457.416 1.58 1.257 1.956l3.936-.264c-.67-.56-1.853-1.88-1.853-2.582 0-.964.543-2.224 1.663-2.224.76 0 1.224.21 1.224 1.025 0 .523-.253 1.004-.4 1.507h3.04c.19-.44.486-1.444.486-1.905.002-2.282-2.237-2.909-4.137-2.909zM22.634 36.162c-1.489 0-1.702 1.09-2.07 2.246-.123.416-.357.923-.357 1.359 0 .84.752 1 1.45 1 .854.006 1.308-.278 1.612-1.073.207-.544.745-2.039.745-2.564 0-.745-.758-.968-1.38-.968zm.415 1.07c0 .186-.212.794-.284 1.008l-.33 1.018c-.129.385-.284.828-.776.828-.278 0-.459-.16-.459-.449 0-.373.291-1.065.414-1.45.123-.384.285-1.148.713-1.297a.957.957 0 0 1 .305-.044c.194 0 .428.172.428.38l-.01.005zM26.423 38.758l.225-.738h-1.294l.35-1.102h1.36l.24-.738h-2.358l-1.417 4.528h.991l.615-1.95h1.288z"/></g><defs><clipPath id="a"><path fill="#fff" transform="translate(9.143 20.025)" d="M0 0h53.714v32H0z"/></clipPath></defs></svg>