<svg width="662" height="394" viewBox="0 0 662 394" fill="none" xmlns="http://www.w3.org/2000/svg">
<g clip-path="url(#clip0_4813_21172)">
<g filter="url(#filter0_f_4813_21172)">
<g filter="url(#filter1_d_4813_21172)">
<path d="M786.951 487.48L430.716 487.48C411.104 487.48 396.737 469.014 401.558 450.004L463.696 204.96C464.94 200.053 464.926 194.912 463.655 190.012L400.118 -54.8819C395.175 -73.9317 409.555 -92.5181 429.235 -92.5181L786.952 -92.5181C803.565 -92.5181 817.033 -79.05 817.033 -62.4363L817.033 457.398C817.033 474.012 803.565 487.48 786.951 487.48Z" fill="#0A0B0B"/>
</g>
<g filter="url(#filter2_f_4813_21172)">
<path d="M403.769 405.625C401.146 405.625 464.075 217.484 464.075 198.958C464.075 180.433 415.862 28.989 404.903 2.57568C407.526 2.57568 477.497 180.433 477.497 198.958C477.497 217.484 414.073 369.517 403.769 405.625Z" fill="#28ADAD"/>
</g>
<g filter="url(#filter3_f_4813_21172)">
<path d="M389.402 -82.3076L466.923 191.047C468.151 195.376 468.14 199.964 466.891 204.288L388.457 475.95" stroke="#29ECEC" stroke-width="9.02451"/>
</g>
<g filter="url(#filter4_f_4813_21172)">
<path d="M387.144 -83.0645L464.665 190.29C465.893 194.62 465.882 199.207 464.634 203.531L386.199 475.193" stroke="#00DDC2" stroke-width="9.02451"/>
</g>
<path d="M370.212 487.48L153.218 487.48C133.6 487.48 119.231 469.003 124.063 449.989L186.347 204.89C187.582 200.028 187.582 194.934 186.347 190.072L124.063 -55.0276C119.231 -74.0416 133.6 -92.5181 153.218 -92.5181L370.212 -92.5181C383.972 -92.5181 395.978 -83.1814 399.367 -69.8452L465.416 190.072C466.652 194.934 466.652 200.028 465.416 204.89L399.367 464.807C395.978 478.143 383.972 487.48 370.212 487.48Z" fill="#0A0B0B"/>
<g filter="url(#filter5_f_4813_21172)">
<path d="M408.534 399.425C413.662 389.743 467.957 217.314 467.957 198.786C467.957 180.258 428.565 56.0237 415.213 29.6074C418.409 29.6074 484.31 180.258 484.31 198.786C484.31 217.314 417.347 374.619 408.534 399.425Z" fill="#28ADAD" fill-opacity="0.7"/>
</g>
<g filter="url(#filter6_f_4813_21172)">
<path d="M389.971 477.462C395.099 467.779 447.536 217.314 447.536 198.787C447.536 180.259 399.613 -39.3943 392.996 -72.2886C396.191 -72.2886 463.889 180.259 463.889 198.787C463.889 217.314 398.784 452.656 389.971 477.462Z" fill="#28ADAD" fill-opacity="0.5"/>
</g>
</g>
<g filter="url(#filter7_d_4813_21172)">
<path d="M786.951 487.48L430.716 487.48C411.104 487.48 396.737 469.014 401.558 450.004L463.696 204.96C464.94 200.053 464.926 194.912 463.655 190.012L400.118 -54.8819C395.175 -73.9317 409.555 -92.5181 429.235 -92.5181L786.952 -92.5181C803.565 -92.5181 817.033 -79.05 817.033 -62.4363L817.033 457.398C817.033 474.012 803.565 487.48 786.951 487.48Z" fill="#0A0A0B"/>
</g>
<g filter="url(#filter8_f_4813_21172)">
<path d="M403.769 405.625C401.146 405.625 464.075 217.484 464.075 198.958C464.075 180.433 415.862 28.989 404.903 2.57568C407.526 2.57568 477.497 180.433 477.497 198.958C477.497 217.484 414.073 369.517 403.769 405.625Z" fill="#28ADAD"/>
</g>
<g filter="url(#filter9_f_4813_21172)">
<path d="M387.144 -83.0645L464.665 190.29C465.893 194.62 465.882 199.207 464.634 203.531L386.199 475.193" stroke="#00DDC2" stroke-width="9.02451"/>
</g>
<path d="M370.212 487.48L153.218 487.48C133.6 487.48 119.231 469.003 124.063 449.989L186.347 204.89C187.582 200.028 187.582 194.934 186.347 190.072L124.063 -55.0276C119.231 -74.0416 133.6 -92.5181 153.218 -92.5181L370.212 -92.5181C383.972 -92.5181 395.978 -83.1814 399.367 -69.8452L465.416 190.072C466.652 194.934 466.652 200.028 465.416 204.89L399.367 464.807C395.978 478.143 383.972 487.48 370.212 487.48Z" fill="#0A0A0B"/>
<g filter="url(#filter10_f_4813_21172)">
<path d="M408.534 399.425C413.662 389.743 467.957 217.314 467.957 198.786C467.957 180.258 428.565 56.0237 415.213 29.6074C418.409 29.6074 484.31 180.258 484.31 198.786C484.31 217.314 417.347 374.619 408.534 399.425Z" fill="#28ADAD" fill-opacity="0.7"/>
</g>
<g filter="url(#filter11_f_4813_21172)">
<path d="M389.971 477.462C395.099 467.779 447.536 217.314 447.536 198.787C447.536 180.259 399.613 -39.3943 392.996 -72.2886C396.191 -72.2886 463.889 180.259 463.889 198.787C463.889 217.314 398.784 452.656 389.971 477.462Z" fill="#28ADAD" fill-opacity="0.5"/>
</g>
<g opacity="0.4">
<g filter="url(#filter12_f_4813_21172)">
<path d="M241.587 378.478C239.337 378.478 293.306 217.125 293.306 201.237C293.306 185.35 251.958 55.4693 242.56 32.8169C244.809 32.8169 304.817 185.35 304.817 201.237C304.817 217.125 250.424 347.511 241.587 378.478Z" fill="#28ADAD"/>
</g>
<g filter="url(#filter13_f_4813_21172)">
<path d="M227.322 -40.627L294.404 195.917C295.066 198.25 295.06 200.723 294.387 203.053L226.512 438.142" stroke="#9EFFFF" stroke-width="4.86389"/>
</g>
<path d="M220.253 448.683L14.3755 448.683C3.80189 448.683 -3.94225 438.725 -1.33806 428.477L55.7132 203.969C56.3791 201.348 56.3791 198.603 55.7132 195.983L-1.33804 -28.5254C-3.9422 -38.7733 3.80191 -48.7315 14.3755 -48.7315L220.253 -48.7314C227.669 -48.7314 234.14 -43.6993 235.966 -36.5116L295.047 195.983C295.713 198.603 295.713 201.348 295.047 203.969L235.966 436.463C234.14 443.651 227.669 448.683 220.253 448.683Z" fill="#0A0A0B"/>
<g filter="url(#filter14_f_4813_21172)">
<path d="M245.671 373.167C250.069 364.863 296.633 216.985 296.633 201.096C296.633 185.206 262.85 78.6608 251.399 56.0059C254.14 56.0059 310.657 185.206 310.657 201.096C310.657 216.985 253.229 351.893 245.671 373.167Z" fill="#28ADAD" fill-opacity="0.7"/>
</g>
</g>
<g opacity="0.1">
<g filter="url(#filter15_f_4813_21172)">
<path d="M90.6996 375.954C88.4771 375.954 141.804 216.522 141.804 200.823C141.804 185.125 100.947 56.7901 91.6608 34.4072C93.8833 34.4072 153.178 185.125 153.178 200.823C153.178 216.522 99.4316 345.356 90.6996 375.954Z" fill="#28ADAD"/>
</g>
<g filter="url(#filter16_f_4813_21172)">
<path d="M76.5977 -38.1611L143.154 196.529C143.63 198.206 143.625 199.984 143.142 201.659L75.7967 434.91" stroke="#9EFFFF" stroke-width="3.49612"/>
</g>
<path d="M73.0151 445.323L-139.422 445.323C-147.022 445.323 -152.589 438.165 -150.717 430.799L-92.6883 202.446C-92.2097 200.562 -92.2097 198.589 -92.6883 196.705L-150.717 -31.648C-152.589 -39.0141 -147.022 -46.1719 -139.422 -46.1719L73.0151 -46.1719C78.3459 -46.1719 82.997 -42.5548 84.3099 -37.3883L143.797 196.705C144.276 198.589 144.276 200.562 143.797 202.446L84.3099 436.539C82.997 441.706 78.3458 445.323 73.0151 445.323Z" fill="#0A0A0B"/>
<g filter="url(#filter17_f_4813_21172)">
<path d="M79.0033 436.834C83.349 428.629 127.784 216.383 127.784 200.683C127.784 184.982 87.1735 -1.15347 81.5665 -29.0283C84.2742 -29.0283 141.642 184.982 141.642 200.683C141.642 216.383 86.4713 415.813 79.0033 436.834Z" fill="#28ADAD" fill-opacity="0.5"/>
</g>
</g>
</g>
<defs>
<filter id="filter0_f_4813_21172" x="121.918" y="-93.7213" width="696.319" height="582.405" filterUnits="userSpaceOnUse" color-interpolation-filters="sRGB">
<feFlood flood-opacity="0" result="BackgroundImageFix"/>
<feBlend mode="normal" in="SourceGraphic" in2="BackgroundImageFix" result="shape"/>
<feGaussianBlur stdDeviation="0.601634" result="effect1_foregroundBlur_4813_21172"/>
</filter>
<filter id="filter1_d_4813_21172" x="396.731" y="-92.5181" width="422.709" height="584.811" filterUnits="userSpaceOnUse" color-interpolation-filters="sRGB">
<feFlood flood-opacity="0" result="BackgroundImageFix"/>
<feColorMatrix in="SourceAlpha" type="matrix" values="0 0 0 0 0 0 0 0 0 0 0 0 0 0 0 0 0 0 127 0" result="hardAlpha"/>
<feOffset dy="2.40654"/>
<feGaussianBlur stdDeviation="1.20327"/>
<feComposite in2="hardAlpha" operator="out"/>
<feColorMatrix type="matrix" values="0 0 0 0 0.104273 0 0 0 0 0.143311 0 0 0 0 0.135811 0 0 0 0.5 0"/>
<feBlend mode="normal" in2="BackgroundImageFix" result="effect1_dropShadow_4813_21172"/>
<feBlend mode="normal" in="SourceGraphic" in2="effect1_dropShadow_4813_21172" result="shape"/>
</filter>
<filter id="filter2_f_4813_21172" x="373.607" y="-27.506" width="133.972" height="463.213" filterUnits="userSpaceOnUse" color-interpolation-filters="sRGB">
<feFlood flood-opacity="0" result="BackgroundImageFix"/>
<feBlend mode="normal" in="SourceGraphic" in2="BackgroundImageFix" result="shape"/>
<feGaussianBlur stdDeviation="15.0408" result="effect1_foregroundBlur_4813_21172"/>
</filter>
<filter id="filter3_f_4813_21172" x="378.706" y="-88.9533" width="99.0569" height="571.569" filterUnits="userSpaceOnUse" color-interpolation-filters="sRGB">
<feFlood flood-opacity="0" result="BackgroundImageFix"/>
<feBlend mode="normal" in="SourceGraphic" in2="BackgroundImageFix" result="shape"/>
<feGaussianBlur stdDeviation="2.70735" result="effect1_foregroundBlur_4813_21172"/>
</filter>
<filter id="filter4_f_4813_21172" x="380.058" y="-86.1003" width="91.8373" height="564.35" filterUnits="userSpaceOnUse" color-interpolation-filters="sRGB">
<feFlood flood-opacity="0" result="BackgroundImageFix"/>
<feBlend mode="normal" in="SourceGraphic" in2="BackgroundImageFix" result="shape"/>
<feGaussianBlur stdDeviation="0.902451" result="effect1_foregroundBlur_4813_21172"/>
</filter>
<filter id="filter5_f_4813_21172" x="300.24" y="-78.6867" width="292.364" height="586.406" filterUnits="userSpaceOnUse" color-interpolation-filters="sRGB">
<feFlood flood-opacity="0" result="BackgroundImageFix"/>
<feBlend mode="normal" in="SourceGraphic" in2="BackgroundImageFix" result="shape"/>
<feGaussianBlur stdDeviation="54.1471" result="effect1_foregroundBlur_4813_21172"/>
</filter>
<filter id="filter6_f_4813_21172" x="281.677" y="-180.583" width="290.506" height="766.338" filterUnits="userSpaceOnUse" color-interpolation-filters="sRGB">
<feFlood flood-opacity="0" result="BackgroundImageFix"/>
<feBlend mode="normal" in="SourceGraphic" in2="BackgroundImageFix" result="shape"/>
<feGaussianBlur stdDeviation="54.1471" result="effect1_foregroundBlur_4813_21172"/>
</filter>
<filter id="filter7_d_4813_21172" x="396.731" y="-92.5181" width="422.709" height="584.811" filterUnits="userSpaceOnUse" color-interpolation-filters="sRGB">
<feFlood flood-opacity="0" result="BackgroundImageFix"/>
<feColorMatrix in="SourceAlpha" type="matrix" values="0 0 0 0 0 0 0 0 0 0 0 0 0 0 0 0 0 0 127 0" result="hardAlpha"/>
<feOffset dy="2.40654"/>
<feGaussianBlur stdDeviation="1.20327"/>
<feComposite in2="hardAlpha" operator="out"/>
<feColorMatrix type="matrix" values="0 0 0 0 0.104273 0 0 0 0 0.143311 0 0 0 0 0.135811 0 0 0 0.5 0"/>
<feBlend mode="normal" in2="BackgroundImageFix" result="effect1_dropShadow_4813_21172"/>
<feBlend mode="normal" in="SourceGraphic" in2="effect1_dropShadow_4813_21172" result="shape"/>
</filter>
<filter id="filter8_f_4813_21172" x="373.607" y="-27.506" width="133.972" height="463.213" filterUnits="userSpaceOnUse" color-interpolation-filters="sRGB">
<feFlood flood-opacity="0" result="BackgroundImageFix"/>
<feBlend mode="normal" in="SourceGraphic" in2="BackgroundImageFix" result="shape"/>
<feGaussianBlur stdDeviation="15.0408" result="effect1_foregroundBlur_4813_21172"/>
</filter>
<filter id="filter9_f_4813_21172" x="380.058" y="-86.1003" width="91.8373" height="564.35" filterUnits="userSpaceOnUse" color-interpolation-filters="sRGB">
<feFlood flood-opacity="0" result="BackgroundImageFix"/>
<feBlend mode="normal" in="SourceGraphic" in2="BackgroundImageFix" result="shape"/>
<feGaussianBlur stdDeviation="0.902451" result="effect1_foregroundBlur_4813_21172"/>
</filter>
<filter id="filter10_f_4813_21172" x="300.24" y="-78.6867" width="292.364" height="586.406" filterUnits="userSpaceOnUse" color-interpolation-filters="sRGB">
<feFlood flood-opacity="0" result="BackgroundImageFix"/>
<feBlend mode="normal" in="SourceGraphic" in2="BackgroundImageFix" result="shape"/>
<feGaussianBlur stdDeviation="54.1471" result="effect1_foregroundBlur_4813_21172"/>
</filter>
<filter id="filter11_f_4813_21172" x="281.677" y="-180.583" width="290.506" height="766.338" filterUnits="userSpaceOnUse" color-interpolation-filters="sRGB">
<feFlood flood-opacity="0" result="BackgroundImageFix"/>
<feBlend mode="normal" in="SourceGraphic" in2="BackgroundImageFix" result="shape"/>
<feGaussianBlur stdDeviation="54.1471" result="effect1_foregroundBlur_4813_21172"/>
</filter>
<filter id="filter12_f_4813_21172" x="225.306" y="16.6039" width="95.7248" height="378.087" filterUnits="userSpaceOnUse" color-interpolation-filters="sRGB">
<feFlood flood-opacity="0" result="BackgroundImageFix"/>
<feBlend mode="normal" in="SourceGraphic" in2="BackgroundImageFix" result="shape"/>
<feGaussianBlur stdDeviation="8.10649" result="effect1_foregroundBlur_4813_21172"/>
</filter>
<filter id="filter13_f_4813_21172" x="223.202" y="-42.2633" width="75.0989" height="482.053" filterUnits="userSpaceOnUse" color-interpolation-filters="sRGB">
<feFlood flood-opacity="0" result="BackgroundImageFix"/>
<feBlend mode="normal" in="SourceGraphic" in2="BackgroundImageFix" result="shape"/>
<feGaussianBlur stdDeviation="0.486389" result="effect1_foregroundBlur_4813_21172"/>
</filter>
<filter id="filter14_f_4813_21172" x="187.304" y="-2.36088" width="181.72" height="433.895" filterUnits="userSpaceOnUse" color-interpolation-filters="sRGB">
<feFlood flood-opacity="0" result="BackgroundImageFix"/>
<feBlend mode="normal" in="SourceGraphic" in2="BackgroundImageFix" result="shape"/>
<feGaussianBlur stdDeviation="29.1834" result="effect1_foregroundBlur_4813_21172"/>
</filter>
<filter id="filter15_f_4813_21172" x="78.9781" y="22.7535" width="85.8534" height="364.854" filterUnits="userSpaceOnUse" color-interpolation-filters="sRGB">
<feFlood flood-opacity="0" result="BackgroundImageFix"/>
<feBlend mode="normal" in="SourceGraphic" in2="BackgroundImageFix" result="shape"/>
<feGaussianBlur stdDeviation="5.82687" result="effect1_foregroundBlur_4813_21172"/>
</filter>
<filter id="filter16_f_4813_21172" x="73.418" y="-39.3374" width="72.5371" height="475.432" filterUnits="userSpaceOnUse" color-interpolation-filters="sRGB">
<feFlood flood-opacity="0" result="BackgroundImageFix"/>
<feBlend mode="normal" in="SourceGraphic" in2="BackgroundImageFix" result="shape"/>
<feGaussianBlur stdDeviation="0.349612" result="effect1_foregroundBlur_4813_21172"/>
</filter>
<filter id="filter17_f_4813_21172" x="37.0495" y="-70.9818" width="146.546" height="549.769" filterUnits="userSpaceOnUse" color-interpolation-filters="sRGB">
<feFlood flood-opacity="0" result="BackgroundImageFix"/>
<feBlend mode="normal" in="SourceGraphic" in2="BackgroundImageFix" result="shape"/>
<feGaussianBlur stdDeviation="20.9767" result="effect1_foregroundBlur_4813_21172"/>
</filter>
<clipPath id="clip0_4813_21172">
<rect width="661.374" height="534.962" fill="white" transform="matrix(-1 0 0 1 662 -70)"/>
</clipPath>
</defs>
</svg>
