<svg width="662" height="394" viewBox="0 0 662 394" fill="none" xmlns="http://www.w3.org/2000/svg">
<g clip-path="url(#clip0_4813_21140)">
<g filter="url(#filter0_f_4813_21140)">
<g filter="url(#filter1_d_4813_21140)">
<path d="M-124.951 487.48L231.284 487.48C250.896 487.48 265.263 469.014 260.442 450.004L198.304 204.96C197.06 200.053 197.074 194.912 198.345 190.012L261.882 -54.8819C266.825 -73.9317 252.445 -92.5181 232.765 -92.5181L-124.952 -92.5181C-141.565 -92.5181 -155.033 -79.05 -155.033 -62.4363L-155.033 457.398C-155.033 474.012 -141.565 487.48 -124.951 487.48Z" fill="#0A0B0B"/>
</g>
<g filter="url(#filter2_f_4813_21140)">
<path d="M258.231 405.625C260.854 405.625 197.925 217.484 197.925 198.958C197.925 180.433 246.138 28.989 257.097 2.57568C254.474 2.57568 184.503 180.433 184.503 198.958C184.503 217.484 247.927 369.517 258.231 405.625Z" fill="#28ADAD"/>
</g>
<g filter="url(#filter3_f_4813_21140)">
<path d="M272.598 -82.3076L195.077 191.047C193.849 195.376 193.86 199.964 195.109 204.288L273.543 475.95" stroke="#29ECEC" stroke-width="9.02451"/>
</g>
<g filter="url(#filter4_f_4813_21140)">
<path d="M274.856 -83.0645L197.335 190.29C196.107 194.62 196.118 199.207 197.366 203.531L275.801 475.193" stroke="#00DDC2" stroke-width="9.02451"/>
</g>
<path d="M291.788 487.48L508.782 487.48C528.4 487.48 542.769 469.003 537.937 449.989L475.653 204.89C474.418 200.028 474.418 194.934 475.653 190.072L537.937 -55.0276C542.769 -74.0416 528.4 -92.5181 508.782 -92.5181L291.788 -92.5181C278.028 -92.5181 266.022 -83.1814 262.633 -69.8452L196.584 190.072C195.348 194.934 195.348 200.028 196.584 204.89L262.633 464.807C266.022 478.143 278.028 487.48 291.788 487.48Z" fill="#0A0B0B"/>
<g filter="url(#filter5_f_4813_21140)">
<path d="M253.466 399.425C248.338 389.743 194.043 217.314 194.043 198.786C194.043 180.258 233.435 56.0237 246.787 29.6074C243.591 29.6074 177.69 180.258 177.69 198.786C177.69 217.314 244.653 374.619 253.466 399.425Z" fill="#28ADAD" fill-opacity="0.7"/>
</g>
<g filter="url(#filter6_f_4813_21140)">
<path d="M272.029 477.462C266.901 467.779 214.464 217.314 214.464 198.787C214.464 180.259 262.387 -39.3943 269.004 -72.2886C265.809 -72.2886 198.111 180.259 198.111 198.787C198.111 217.314 263.216 452.656 272.029 477.462Z" fill="#28ADAD" fill-opacity="0.5"/>
</g>
</g>
<g filter="url(#filter7_d_4813_21140)">
<path d="M-124.951 487.48L231.284 487.48C250.896 487.48 265.263 469.014 260.442 450.004L198.304 204.96C197.06 200.053 197.074 194.912 198.345 190.012L261.882 -54.8819C266.825 -73.9317 252.445 -92.5181 232.765 -92.5181L-124.952 -92.5181C-141.565 -92.5181 -155.033 -79.05 -155.033 -62.4363L-155.033 457.398C-155.033 474.012 -141.565 487.48 -124.951 487.48Z" fill="#0A0A0B"/>
</g>
<g filter="url(#filter8_f_4813_21140)">
<path d="M258.231 405.625C260.854 405.625 197.925 217.484 197.925 198.958C197.925 180.433 246.138 28.989 257.097 2.57568C254.474 2.57568 184.503 180.433 184.503 198.958C184.503 217.484 247.927 369.517 258.231 405.625Z" fill="#28ADAD"/>
</g>
<g filter="url(#filter9_f_4813_21140)">
<path d="M274.856 -83.0645L197.335 190.29C196.107 194.62 196.118 199.207 197.366 203.531L275.801 475.193" stroke="#00DDC2" stroke-width="9.02451"/>
</g>
<path d="M291.788 487.48L508.782 487.48C528.4 487.48 542.769 469.003 537.937 449.989L475.653 204.89C474.418 200.028 474.418 194.934 475.653 190.072L537.937 -55.0276C542.769 -74.0416 528.4 -92.5181 508.782 -92.5181L291.788 -92.5181C278.028 -92.5181 266.022 -83.1814 262.633 -69.8452L196.584 190.072C195.348 194.934 195.348 200.028 196.584 204.89L262.633 464.807C266.022 478.143 278.028 487.48 291.788 487.48Z" fill="#0A0A0B"/>
<g filter="url(#filter10_f_4813_21140)">
<path d="M253.466 399.425C248.338 389.743 194.043 217.314 194.043 198.786C194.043 180.258 233.435 56.0237 246.787 29.6074C243.591 29.6074 177.69 180.258 177.69 198.786C177.69 217.314 244.653 374.619 253.466 399.425Z" fill="#28ADAD" fill-opacity="0.7"/>
</g>
<g filter="url(#filter11_f_4813_21140)">
<path d="M272.029 477.462C266.901 467.779 214.464 217.314 214.464 198.787C214.464 180.259 262.387 -39.3943 269.004 -72.2886C265.809 -72.2886 198.111 180.259 198.111 198.787C198.111 217.314 263.216 452.656 272.029 477.462Z" fill="#28ADAD" fill-opacity="0.5"/>
</g>
<g opacity="0.4">
<g filter="url(#filter12_f_4813_21140)">
<path d="M420.413 378.478C422.663 378.478 368.694 217.125 368.694 201.237C368.694 185.35 410.042 55.4693 419.44 32.8169C417.191 32.8169 357.183 185.35 357.183 201.237C357.183 217.125 411.576 347.511 420.413 378.478Z" fill="#28ADAD"/>
</g>
<g filter="url(#filter13_f_4813_21140)">
<path d="M434.678 -40.627L367.596 195.917C366.934 198.25 366.94 200.723 367.613 203.053L435.488 438.142" stroke="#9EFFFF" stroke-width="4.86389"/>
</g>
<path d="M441.747 448.683L647.625 448.683C658.198 448.683 665.942 438.725 663.338 428.477L606.287 203.969C605.621 201.348 605.621 198.603 606.287 195.983L663.338 -28.5254C665.942 -38.7733 658.198 -48.7315 647.624 -48.7315L441.747 -48.7314C434.331 -48.7314 427.86 -43.6993 426.034 -36.5116L366.953 195.983C366.287 198.603 366.287 201.348 366.953 203.969L426.034 436.463C427.86 443.651 434.331 448.683 441.747 448.683Z" fill="#0A0A0B"/>
<g filter="url(#filter14_f_4813_21140)">
<path d="M416.329 373.167C411.931 364.863 365.367 216.985 365.367 201.096C365.367 185.206 399.15 78.6608 410.601 56.0059C407.86 56.0059 351.343 185.206 351.343 201.096C351.343 216.985 408.771 351.893 416.329 373.167Z" fill="#28ADAD" fill-opacity="0.7"/>
</g>
</g>
<g opacity="0.1">
<g filter="url(#filter15_f_4813_21140)">
<path d="M571.3 375.954C573.523 375.954 520.196 216.522 520.196 200.823C520.196 185.125 561.053 56.7901 570.339 34.4072C568.117 34.4072 508.822 185.125 508.822 200.823C508.822 216.522 562.568 345.356 571.3 375.954Z" fill="#28ADAD"/>
</g>
<g filter="url(#filter16_f_4813_21140)">
<path d="M585.402 -38.1611L518.846 196.529C518.37 198.206 518.375 199.984 518.858 201.659L586.203 434.91" stroke="#9EFFFF" stroke-width="3.49612"/>
</g>
<path d="M588.985 445.323L801.422 445.323C809.022 445.323 814.589 438.165 812.717 430.799L754.688 202.446C754.21 200.562 754.21 198.589 754.688 196.705L812.717 -31.648C814.589 -39.0141 809.022 -46.1719 801.422 -46.1719L588.985 -46.1719C583.654 -46.1719 579.003 -42.5548 577.69 -37.3883L518.203 196.705C517.724 198.589 517.724 200.562 518.203 202.446L577.69 436.539C579.003 441.706 583.654 445.323 588.985 445.323Z" fill="#0A0A0B"/>
<g filter="url(#filter17_f_4813_21140)">
<path d="M582.997 436.834C578.651 428.629 534.216 216.383 534.216 200.683C534.216 184.982 574.827 -1.15347 580.434 -29.0283C577.726 -29.0283 520.358 184.982 520.358 200.683C520.358 216.383 575.529 415.813 582.997 436.834Z" fill="#28ADAD" fill-opacity="0.5"/>
</g>
</g>
</g>
<defs>
<filter id="filter0_f_4813_21140" x="-156.236" y="-93.7213" width="696.319" height="582.405" filterUnits="userSpaceOnUse" color-interpolation-filters="sRGB">
<feFlood flood-opacity="0" result="BackgroundImageFix"/>
<feBlend mode="normal" in="SourceGraphic" in2="BackgroundImageFix" result="shape"/>
<feGaussianBlur stdDeviation="0.601634" result="effect1_foregroundBlur_4813_21140"/>
</filter>
<filter id="filter1_d_4813_21140" x="-157.44" y="-92.5181" width="422.709" height="584.811" filterUnits="userSpaceOnUse" color-interpolation-filters="sRGB">
<feFlood flood-opacity="0" result="BackgroundImageFix"/>
<feColorMatrix in="SourceAlpha" type="matrix" values="0 0 0 0 0 0 0 0 0 0 0 0 0 0 0 0 0 0 127 0" result="hardAlpha"/>
<feOffset dy="2.40654"/>
<feGaussianBlur stdDeviation="1.20327"/>
<feComposite in2="hardAlpha" operator="out"/>
<feColorMatrix type="matrix" values="0 0 0 0 0.104273 0 0 0 0 0.143311 0 0 0 0 0.135811 0 0 0 0.5 0"/>
<feBlend mode="normal" in2="BackgroundImageFix" result="effect1_dropShadow_4813_21140"/>
<feBlend mode="normal" in="SourceGraphic" in2="effect1_dropShadow_4813_21140" result="shape"/>
</filter>
<filter id="filter2_f_4813_21140" x="154.421" y="-27.506" width="133.972" height="463.213" filterUnits="userSpaceOnUse" color-interpolation-filters="sRGB">
<feFlood flood-opacity="0" result="BackgroundImageFix"/>
<feBlend mode="normal" in="SourceGraphic" in2="BackgroundImageFix" result="shape"/>
<feGaussianBlur stdDeviation="15.0408" result="effect1_foregroundBlur_4813_21140"/>
</filter>
<filter id="filter3_f_4813_21140" x="184.237" y="-88.9533" width="99.0569" height="571.569" filterUnits="userSpaceOnUse" color-interpolation-filters="sRGB">
<feFlood flood-opacity="0" result="BackgroundImageFix"/>
<feBlend mode="normal" in="SourceGraphic" in2="BackgroundImageFix" result="shape"/>
<feGaussianBlur stdDeviation="2.70735" result="effect1_foregroundBlur_4813_21140"/>
</filter>
<filter id="filter4_f_4813_21140" x="190.104" y="-86.1003" width="91.8373" height="564.35" filterUnits="userSpaceOnUse" color-interpolation-filters="sRGB">
<feFlood flood-opacity="0" result="BackgroundImageFix"/>
<feBlend mode="normal" in="SourceGraphic" in2="BackgroundImageFix" result="shape"/>
<feGaussianBlur stdDeviation="0.902451" result="effect1_foregroundBlur_4813_21140"/>
</filter>
<filter id="filter5_f_4813_21140" x="69.3963" y="-78.6867" width="292.364" height="586.406" filterUnits="userSpaceOnUse" color-interpolation-filters="sRGB">
<feFlood flood-opacity="0" result="BackgroundImageFix"/>
<feBlend mode="normal" in="SourceGraphic" in2="BackgroundImageFix" result="shape"/>
<feGaussianBlur stdDeviation="54.1471" result="effect1_foregroundBlur_4813_21140"/>
</filter>
<filter id="filter6_f_4813_21140" x="89.8172" y="-180.583" width="290.506" height="766.338" filterUnits="userSpaceOnUse" color-interpolation-filters="sRGB">
<feFlood flood-opacity="0" result="BackgroundImageFix"/>
<feBlend mode="normal" in="SourceGraphic" in2="BackgroundImageFix" result="shape"/>
<feGaussianBlur stdDeviation="54.1471" result="effect1_foregroundBlur_4813_21140"/>
</filter>
<filter id="filter7_d_4813_21140" x="-157.44" y="-92.5181" width="422.709" height="584.811" filterUnits="userSpaceOnUse" color-interpolation-filters="sRGB">
<feFlood flood-opacity="0" result="BackgroundImageFix"/>
<feColorMatrix in="SourceAlpha" type="matrix" values="0 0 0 0 0 0 0 0 0 0 0 0 0 0 0 0 0 0 127 0" result="hardAlpha"/>
<feOffset dy="2.40654"/>
<feGaussianBlur stdDeviation="1.20327"/>
<feComposite in2="hardAlpha" operator="out"/>
<feColorMatrix type="matrix" values="0 0 0 0 0.104273 0 0 0 0 0.143311 0 0 0 0 0.135811 0 0 0 0.5 0"/>
<feBlend mode="normal" in2="BackgroundImageFix" result="effect1_dropShadow_4813_21140"/>
<feBlend mode="normal" in="SourceGraphic" in2="effect1_dropShadow_4813_21140" result="shape"/>
</filter>
<filter id="filter8_f_4813_21140" x="154.421" y="-27.506" width="133.972" height="463.213" filterUnits="userSpaceOnUse" color-interpolation-filters="sRGB">
<feFlood flood-opacity="0" result="BackgroundImageFix"/>
<feBlend mode="normal" in="SourceGraphic" in2="BackgroundImageFix" result="shape"/>
<feGaussianBlur stdDeviation="15.0408" result="effect1_foregroundBlur_4813_21140"/>
</filter>
<filter id="filter9_f_4813_21140" x="190.104" y="-86.1003" width="91.8373" height="564.35" filterUnits="userSpaceOnUse" color-interpolation-filters="sRGB">
<feFlood flood-opacity="0" result="BackgroundImageFix"/>
<feBlend mode="normal" in="SourceGraphic" in2="BackgroundImageFix" result="shape"/>
<feGaussianBlur stdDeviation="0.902451" result="effect1_foregroundBlur_4813_21140"/>
</filter>
<filter id="filter10_f_4813_21140" x="69.3963" y="-78.6867" width="292.364" height="586.406" filterUnits="userSpaceOnUse" color-interpolation-filters="sRGB">
<feFlood flood-opacity="0" result="BackgroundImageFix"/>
<feBlend mode="normal" in="SourceGraphic" in2="BackgroundImageFix" result="shape"/>
<feGaussianBlur stdDeviation="54.1471" result="effect1_foregroundBlur_4813_21140"/>
</filter>
<filter id="filter11_f_4813_21140" x="89.8172" y="-180.583" width="290.506" height="766.338" filterUnits="userSpaceOnUse" color-interpolation-filters="sRGB">
<feFlood flood-opacity="0" result="BackgroundImageFix"/>
<feBlend mode="normal" in="SourceGraphic" in2="BackgroundImageFix" result="shape"/>
<feGaussianBlur stdDeviation="54.1471" result="effect1_foregroundBlur_4813_21140"/>
</filter>
<filter id="filter12_f_4813_21140" x="340.97" y="16.6039" width="95.7248" height="378.087" filterUnits="userSpaceOnUse" color-interpolation-filters="sRGB">
<feFlood flood-opacity="0" result="BackgroundImageFix"/>
<feBlend mode="normal" in="SourceGraphic" in2="BackgroundImageFix" result="shape"/>
<feGaussianBlur stdDeviation="8.10649" result="effect1_foregroundBlur_4813_21140"/>
</filter>
<filter id="filter13_f_4813_21140" x="363.699" y="-42.2633" width="75.0989" height="482.053" filterUnits="userSpaceOnUse" color-interpolation-filters="sRGB">
<feFlood flood-opacity="0" result="BackgroundImageFix"/>
<feBlend mode="normal" in="SourceGraphic" in2="BackgroundImageFix" result="shape"/>
<feGaussianBlur stdDeviation="0.486389" result="effect1_foregroundBlur_4813_21140"/>
</filter>
<filter id="filter14_f_4813_21140" x="292.976" y="-2.36088" width="181.72" height="433.895" filterUnits="userSpaceOnUse" color-interpolation-filters="sRGB">
<feFlood flood-opacity="0" result="BackgroundImageFix"/>
<feBlend mode="normal" in="SourceGraphic" in2="BackgroundImageFix" result="shape"/>
<feGaussianBlur stdDeviation="29.1834" result="effect1_foregroundBlur_4813_21140"/>
</filter>
<filter id="filter15_f_4813_21140" x="497.169" y="22.7535" width="85.8534" height="364.854" filterUnits="userSpaceOnUse" color-interpolation-filters="sRGB">
<feFlood flood-opacity="0" result="BackgroundImageFix"/>
<feBlend mode="normal" in="SourceGraphic" in2="BackgroundImageFix" result="shape"/>
<feGaussianBlur stdDeviation="5.82687" result="effect1_foregroundBlur_4813_21140"/>
</filter>
<filter id="filter16_f_4813_21140" x="516.045" y="-39.3374" width="72.5371" height="475.432" filterUnits="userSpaceOnUse" color-interpolation-filters="sRGB">
<feFlood flood-opacity="0" result="BackgroundImageFix"/>
<feBlend mode="normal" in="SourceGraphic" in2="BackgroundImageFix" result="shape"/>
<feGaussianBlur stdDeviation="0.349612" result="effect1_foregroundBlur_4813_21140"/>
</filter>
<filter id="filter17_f_4813_21140" x="478.405" y="-70.9818" width="146.546" height="549.769" filterUnits="userSpaceOnUse" color-interpolation-filters="sRGB">
<feFlood flood-opacity="0" result="BackgroundImageFix"/>
<feBlend mode="normal" in="SourceGraphic" in2="BackgroundImageFix" result="shape"/>
<feGaussianBlur stdDeviation="20.9767" result="effect1_foregroundBlur_4813_21140"/>
</filter>
<clipPath id="clip0_4813_21140">
<rect width="661.374" height="534.962" fill="white" transform="translate(0 -70)"/>
</clipPath>
</defs>
</svg>
