<svg xmlns="http://www.w3.org/2000/svg" width="130" height="26" viewBox="0 0 130 26" fill="none">
  <path d="M7.95087 10.9254L13.0001 5.87639L18.052 10.9281L20.99 7.9901L13.0001 0L5.01288 7.98743L7.95087 10.9254Z" fill="#F3BA2F"/>
  <path d="M5.87605 12.9997L2.93811 10.0617L2.38318e-05 12.9998L2.93797 15.9378L5.87605 12.9997Z" fill="#F3BA2F"/>
  <path d="M7.95085 15.0746L13.0001 20.1236L18.0518 15.0721L20.9914 18.0085L20.99 18.0101L13.0001 26L5.01265 18.0128L5.00854 18.0087L7.95085 15.0746Z" fill="#F3BA2F"/>
  <path d="M23.0623 15.939L26.0004 13.0009L23.0625 10.063L20.1244 13.0011L23.0623 15.939Z" fill="#F3BA2F"/>
  <path d="M15.9802 12.9985H15.9814L13.0001 10.0172L10.7969 12.2204H10.7966L10.5437 12.4736L10.0214 12.9958L10.0173 12.9999L10.0214 13.0042L13.0001 15.9829L15.9814 13.0016L15.9829 12.9999L15.9802 12.9985Z" fill="#F3BA2F"/>
  <path d="M30.5806 6.30005H36.9706C38.5565 6.30005 39.7558 6.70706 40.5685 7.52108C41.1975 8.15152 41.5119 8.93289 41.5119 9.86498V9.90441C41.5119 10.2983 41.4633 10.6464 41.3653 10.9482C41.2676 11.2505 41.137 11.5226 40.9737 11.7655C40.8109 12.0087 40.6215 12.222 40.4063 12.4056C40.1909 12.5896 39.9595 12.7473 39.7116 12.8783C40.5088 13.1806 41.1364 13.5907 41.5939 14.1094C42.0512 14.6284 42.2802 15.3473 42.2802 16.2663V16.3055C42.2802 16.9359 42.159 17.4873 41.9165 17.9602C41.674 18.4327 41.3265 18.8268 40.8741 19.142C40.4217 19.4572 39.8777 19.6934 39.242 19.8511C38.6062 20.0086 37.9016 20.0873 37.1285 20.0873H30.5806V6.30005ZM36.3317 11.874C37.0016 11.874 37.5334 11.7594 37.9271 11.5294C38.321 11.2996 38.5179 10.9285 38.5179 10.4166V10.3771C38.5179 9.91776 38.347 9.56661 38.0057 9.32347C37.6642 9.08053 37.1718 8.95897 36.5286 8.95897H33.5348V11.874H36.3317ZM37.1394 17.4286C37.809 17.4286 38.3339 17.3074 38.715 17.0643C39.0958 16.8213 39.2863 16.4437 39.2863 15.9315V15.8923C39.2863 15.4327 39.1089 15.0684 38.7545 14.799C38.3998 14.5302 37.8287 14.3955 37.0408 14.3955H33.5348V17.4288H37.1394V17.4286Z" fill="#F3BA2F"/>
  <path d="M46.0858 6.30005H49.1193V20.0877H46.0858V6.30005Z" fill="#F3BA2F"/>
  <path d="M53.7137 6.30005H56.5102L62.9708 14.7894V6.30005H65.9647V20.0877H63.3846L56.7074 11.3228V20.0877H53.7137V6.30005Z" fill="#F3BA2F"/>
  <path d="M75.148 6.20169H77.9448L83.854 20.0877H80.6827L79.4221 16.9955H73.5919L72.3314 20.0877H69.2386L75.148 6.20169ZM78.3388 14.3164L76.5069 9.84548L74.6755 14.3164H78.3388Z" fill="#F3BA2F"/>
  <path d="M87.1284 6.30005H89.9255L96.3857 14.7894V6.30005H99.3795V20.0877H96.7995L90.1222 11.3228V20.0877H87.1284V6.30005Z" fill="#F3BA2F"/>
  <path d="M110.296 20.3238C109.285 20.3238 108.346 20.1398 107.479 19.7725C106.613 19.4051 105.864 18.9026 105.234 18.2656C104.604 17.6288 104.111 16.877 103.757 16.0104C103.402 15.1436 103.225 14.2179 103.225 13.233V13.1938C103.225 12.2089 103.402 11.2867 103.757 10.4264C104.111 9.5664 104.604 8.81132 105.234 8.16138C105.864 7.51143 106.619 6.99908 107.499 6.62492C108.378 6.25077 109.351 6.06369 110.414 6.06369C111.057 6.06369 111.645 6.11647 112.177 6.2212C112.708 6.32654 113.191 6.4707 113.625 6.65449C114.058 6.83849 114.458 7.06171 114.826 7.32415C115.193 7.587 115.535 7.87573 115.85 8.19095L113.92 10.4166C113.381 9.93091 112.833 9.54977 112.275 9.27419C111.717 8.9986 111.09 8.8606 110.394 8.8606C109.816 8.8606 109.281 8.97232 108.789 9.19554C108.297 9.41876 107.873 9.7272 107.519 10.1211C107.164 10.5149 106.889 10.9714 106.691 11.49C106.495 12.0089 106.396 12.5635 106.396 13.1543V13.1936C106.396 13.7844 106.495 14.3427 106.691 14.8676C106.889 15.3931 107.16 15.8525 107.509 16.2463C107.857 16.6402 108.277 16.9524 108.769 17.1821C109.262 17.4121 109.804 17.5267 110.394 17.5267C111.182 17.5267 111.848 17.3824 112.393 17.0934C112.938 16.8049 113.48 16.4108 114.018 15.9116L115.949 17.8617C115.594 18.2426 115.226 18.5841 114.846 18.8858C114.465 19.188 114.048 19.4472 113.595 19.664C113.142 19.8805 112.646 20.045 112.108 20.1563C111.569 20.2678 110.965 20.3238 110.296 20.3238Z" fill="#F3BA2F"/>
  <path d="M119.519 6.30005H129.899V8.9986H122.513V11.7955H129.012V14.4939H122.513V17.3893H129.998V20.0877H119.519V6.30005Z" fill="#F3BA2F"/>
</svg>