<svg xmlns="http://www.w3.org/2000/svg" width="96" height="24" viewBox="0 0 96 24" fill="none">
  <path d="M48.8513 17.4286V0H52.392V17.4286H48.8513Z" fill="#F7A600"/>
  <path d="M7.59061 22.6054H0V5.17676H7.28472C10.8254 5.17676 12.8881 7.0855 12.8881 10.0726C12.8881 12.0065 11.564 13.2548 10.6463 13.6706C11.742 14.1599 13.1427 15.2612 13.1427 17.5867C13.1427 20.8436 10.8254 22.6054 7.59061 22.6054ZM7.00395 8.21315H3.53966V12.228H7.00395C8.50722 12.228 9.34732 11.4206 9.34732 10.2206C9.34732 9.02054 8.50722 8.21315 7.00395 8.21315ZM7.23337 15.2875H3.53966V19.5711H7.23337C8.83828 19.5711 9.60188 18.5915 9.60188 17.4167C9.60188 16.2418 8.83828 15.2875 7.23337 15.2875Z" fill="white"/>
  <path d="M23.9415 15.4575V22.6054H20.4269V15.4575L14.9765 5.17676H18.822L22.2098 12.2017L25.5464 5.17676H29.3919L23.9415 15.4575Z" fill="white"/>
  <path d="M39.4287 22.6054H31.8381V5.17676H39.1228C42.6635 5.17676 44.7262 7.0855 44.7262 10.0726C44.7262 12.0065 43.4021 13.2548 42.4844 13.6706C43.5801 14.1599 44.9808 15.2612 44.9808 17.5867C44.9808 20.8436 42.6625 22.6054 39.4287 22.6054ZM38.842 8.21315H35.3778V12.228H38.842C40.3453 12.228 41.1854 11.4206 41.1854 10.2206C41.1854 9.02054 40.3453 8.21315 38.842 8.21315ZM39.0714 15.2875H35.3778V19.5711H39.0714C40.6764 19.5711 41.44 18.5915 41.44 17.4167C41.44 16.2418 40.6764 15.2875 39.0714 15.2875Z" fill="white"/>
  <path d="M63.8011 8.21209V22.6054H60.2603V8.21209H55.5233V5.17676H68.5392V8.21209H63.8011Z" fill="white"/>
  <path d="M78.2869 9.47724L76.5149 6.83772V9.47724H75.6409V5.17676H76.4198L78.1918 7.80995V5.17676H79.0658V9.47724H78.2869Z" fill="#898C94"/>
  <path d="M80.5617 8.14956C80.5617 8.5538 80.8196 8.84982 81.2785 8.84982C81.6368 8.84982 81.8127 8.75328 82.0202 8.55381L82.5162 9.01886C82.183 9.3391 81.863 9.51443 81.2719 9.51443C80.4984 9.51443 79.7577 9.17636 79.7577 7.90178C79.7577 6.87496 80.3356 6.29541 81.1845 6.29541C82.0956 6.29541 82.6113 6.93586 82.6113 7.79889V8.14956H80.5617ZM81.7308 7.27393C81.6423 7.08704 81.4609 6.9474 81.1845 6.9474C80.9081 6.9474 80.7257 7.08599 80.6383 7.27393C80.588 7.38837 80.5694 7.47341 80.5628 7.612H81.8072C81.7995 7.47341 81.7809 7.38837 81.7308 7.27393Z" fill="#898C94"/>
  <path d="M85.1251 9.47558L84.522 8.53378L83.9244 9.47558H82.9445L84.0752 7.86921L82.9882 6.32898H83.9681L84.5209 7.22876L85.0803 6.32898H86.0599L84.9733 7.86921L86.1043 9.47558H85.1251Z" fill="#898C94"/>
  <path d="M87.7923 9.47776C87.1258 9.47776 86.8433 9.02531 86.8433 8.57801V7.01994H86.4977V6.42254H86.8433V5.49231H87.66V6.42254H88.2386V7.01994H87.66V8.52974C87.66 8.71137 87.7487 8.81324 87.9433 8.81324H88.2386V9.47776H87.7923Z" fill="#898C94"/>
  <path d="M75.6409 16.1001V11.7997H76.5149V15.3515H78.5447V16.1001H75.6409Z" fill="#898C94"/>
  <path d="M79.8318 14.7725C79.8318 15.1767 80.0896 15.4728 80.5484 15.4728C80.9068 15.4728 81.0826 15.3762 81.2902 15.1767L81.7862 15.6418C81.453 15.962 81.1329 16.1374 80.5419 16.1374C79.7684 16.1374 79.0276 15.7993 79.0276 14.5247C79.0276 13.4979 79.6056 12.9183 80.4545 12.9183C81.3656 12.9183 81.8812 13.5587 81.8812 14.4217V14.7725H79.8318ZM81.0007 13.8968C80.9122 13.7099 80.7309 13.5703 80.4545 13.5703C80.1781 13.5703 79.9956 13.7089 79.9082 13.8968C79.858 14.0113 79.8394 14.0964 79.8329 14.2349H81.0772C81.0706 14.0964 81.051 14.0113 81.0007 13.8968Z" fill="#898C94"/>
  <path d="M83.9877 16.1016H83.3465L82.1403 12.9551H83.0012L83.6676 14.8995L84.3275 12.9551H85.1884L83.9877 16.1016Z" fill="#898C94"/>
  <path d="M86.1282 14.7725C86.1282 15.1767 86.3859 15.4728 86.8442 15.4728C87.2026 15.4728 87.3784 15.3762 87.5866 15.1767L88.0824 15.6418C87.7487 15.962 87.4287 16.1374 86.8382 16.1374C86.0642 16.1374 85.3238 15.7993 85.3238 14.5247C85.3238 13.4979 85.902 12.9183 86.7503 12.9183C87.6617 12.9183 88.1771 13.5587 88.1771 14.4217V14.7725H86.1282ZM87.2964 13.8968C87.2086 13.7099 87.0268 13.5703 86.7503 13.5703C86.4738 13.5703 86.292 13.7089 86.2041 13.8968C86.1538 14.0113 86.1359 14.0964 86.129 14.2349H87.3733C87.3656 14.0964 87.3468 14.0113 87.2964 13.8968Z" fill="#898C94"/>
  <path d="M89.7252 16.1001C89.0527 16.1001 88.7702 15.6476 88.7702 15.2004V11.7997H89.5878V15.152C89.5878 15.3389 89.6697 15.4355 89.8771 15.4355H90.192V16.1001H89.7252Z" fill="#898C94"/>
  <path d="M77.3521 19.1737V22.7255H76.4781V19.1737H75.3091V18.425H78.5211V19.1737H77.3521Z" fill="#898C94"/>
  <path d="M80.8288 20.4372C80.7031 20.3165 80.596 20.2503 80.395 20.2503C80.1438 20.2503 79.8673 20.4319 79.8673 20.8299V22.726H79.0502V19.5794H79.8487V19.8818C80.0061 19.7001 80.3196 19.5437 80.6725 19.5437C80.9926 19.5437 81.2187 19.6225 81.446 19.8398L80.8288 20.4372Z" fill="#898C94"/>
  <path d="M83.5224 22.7256V22.4537C83.3029 22.6648 83.0953 22.7561 82.7184 22.7561C82.348 22.7561 82.0771 22.6658 81.8827 22.4779C81.7067 22.3025 81.6127 22.0495 81.6127 21.7713C81.6127 21.2705 81.9711 20.8589 82.7315 20.8589H83.505V20.7014C83.505 20.3571 83.3291 20.2059 82.8954 20.2059C82.5807 20.2059 82.4365 20.2783 82.2672 20.4652L81.746 19.9759C82.0661 19.6378 82.3808 19.5413 82.927 19.5413C83.8447 19.5413 84.3222 19.9161 84.3222 20.652V22.7236H83.5224V22.7256ZM83.5039 21.3965H82.856C82.5611 21.3965 82.3972 21.5298 82.3972 21.7524C82.3972 21.9697 82.548 22.1146 82.8681 22.1146C83.0942 22.1146 83.2384 22.0968 83.3838 21.9634C83.4722 21.8847 83.5028 21.7576 83.5028 21.5645V21.3965H83.5039Z" fill="#898C94"/>
  <path d="M86.7606 22.7255V22.4295C86.5344 22.6709 86.2955 22.7612 85.9499 22.7612C85.6298 22.7612 85.3286 22.652 85.1461 22.4777C84.8195 22.1638 84.8129 21.62 84.8129 21.1485C84.8129 20.6772 84.8195 20.1395 85.1461 19.8257C85.3286 19.6504 85.6239 19.5422 85.9447 19.5422C86.2775 19.5422 86.5293 19.6272 86.7435 19.8561V18.425H87.5602V22.7255H86.7606ZM86.1828 20.2488C85.6921 20.2488 85.6298 20.6351 85.6298 21.1485C85.6298 21.6619 85.6938 22.0546 86.1828 22.0546C86.6735 22.0546 86.7426 21.6619 86.7426 21.1485C86.7426 20.6351 86.6727 20.2488 86.1828 20.2488Z" fill="#898C94"/>
  <path d="M88.3376 19.0392V18.3987H89.173V19.0392H88.3376ZM88.3495 22.7233V19.5767H89.1662V22.7233H88.3495Z" fill="#898C94"/>
  <path d="M91.7314 22.7246V20.8221C91.7314 20.3938 91.449 20.2489 91.1904 20.2489C90.9327 20.2489 90.6443 20.3938 90.6443 20.8221V22.7246H89.8276V19.578H90.6263V19.8678C90.8397 19.6504 91.1418 19.5413 91.443 19.5413C91.7698 19.5413 92.0344 19.6441 92.217 19.8194C92.4807 20.0736 92.5498 20.3686 92.5498 20.713V22.7246H91.7314Z" fill="#898C94"/>
  <path d="M94.5595 23.9152C94.0569 23.9152 93.7104 23.8186 93.3716 23.5047L93.8811 23.0091C94.0628 23.1782 94.2455 23.2507 94.5219 23.2507C95.0126 23.2507 95.1816 22.9188 95.1816 22.5986V22.2784C94.9674 22.5083 94.7233 22.5923 94.4033 22.5923C94.0825 22.5923 93.8068 22.4894 93.6242 22.3141C93.3161 22.018 93.2905 21.6138 93.2905 21.0636C93.2905 20.5135 93.3161 20.1155 93.6242 19.8194C93.8068 19.6441 94.0893 19.5413 94.4093 19.5413C94.7549 19.5413 94.9811 19.6316 95.2081 19.873V19.5769H96V22.6091C95.9983 23.365 95.4385 23.9152 94.5595 23.9152ZM94.6414 20.2489C94.1576 20.2489 94.1072 20.6479 94.1072 21.0647C94.1072 21.4815 94.1576 21.8857 94.6414 21.8857C95.1253 21.8857 95.1816 21.4815 95.1816 21.0647C95.1816 20.6479 95.1253 20.2489 94.6414 20.2489Z" fill="#898C94"/>
</svg>