<svg xmlns="http://www.w3.org/2000/svg" width="49" height="20" viewBox="0 0 49 20" fill="none">
  <g clip-path="url(#clip0_2877_18267)">
    <path d="M-1.45286e-06 9.37812C0.0479974 8.92778 0.0832907 8.47603 0.141172 8.02851C0.495516 5.57915 1.47667 3.47003 3.5025 1.94395C4.80836 0.955733 6.29915 0.412217 7.90146 0.170811C10.5351 -0.232832 13.2289 0.0877882 15.6942 1.09832C15.7662 1.12655 15.8354 1.15902 15.9356 1.20137L14.5804 4.4653C14.0467 4.26624 13.5357 4.05307 13.0105 3.88366C11.7258 3.4672 10.4045 3.29356 9.06896 3.51803C6.81019 3.89778 5.36881 5.24175 4.646 7.38476C4.22248 8.62426 4.18578 9.9047 4.29731 11.1964C4.35461 12.1131 4.57001 13.0129 4.934 13.8561C5.70481 15.5375 7.02195 16.4241 8.86426 16.5384C9.8195 16.5879 10.7772 16.5201 11.716 16.3365C11.8487 16.3125 11.939 16.2829 11.9376 16.1064C11.9291 14.8683 11.9376 13.6288 11.9376 12.3893C11.9376 12.3512 11.9376 12.3131 11.9249 12.2482C11.8289 12.2482 11.7385 12.2355 11.6426 12.2355C10.5922 12.2355 9.54048 12.2355 8.49015 12.2355C8.29675 12.2355 8.23745 12.1846 8.23886 11.987C8.24874 11.0073 8.23886 10.0261 8.23886 9.04637C8.23886 8.97719 8.23886 8.90519 8.24874 8.82472H15.9413C15.9413 8.91084 15.954 8.99413 15.954 9.07742C15.954 12.2613 15.954 15.4453 15.954 18.6292C15.9611 18.6664 15.9606 18.7047 15.9525 18.7418C15.9445 18.7788 15.9291 18.8139 15.9072 18.8448C15.8853 18.8758 15.8575 18.902 15.8252 18.922C15.793 18.9419 15.7571 18.9552 15.7196 18.961C13.2682 19.7566 10.6908 20.0916 8.11745 19.9492C6.49679 19.8631 4.96223 19.4494 3.59991 18.5219C2.07807 17.4843 1.15056 16.0189 0.594341 14.2867C0.247184 13.1625 0.052038 11.9969 0.0141124 10.8209C0.0141124 10.7447 -0.00847391 10.6684 -0.0197678 10.5922L-1.45286e-06 9.37812Z" fill="white"/>
    <path d="M48.7316 1.38491C48.2911 2.49453 47.8549 3.5971 47.4158 4.70389C46.8257 4.46108 46.2512 4.21826 45.6709 3.98814C44.7654 3.601 43.7868 3.41415 42.8023 3.4404C41.0108 3.52086 39.7487 4.39614 38.9581 5.98151C38.5463 6.8467 38.2974 7.78039 38.224 8.7358C38.0829 10.228 38.1309 11.7117 38.5389 13.1644C38.8621 14.3135 39.4297 15.3032 40.4913 15.9356C41.1685 16.3224 41.9322 16.5322 42.7119 16.5455C44.2394 16.6161 45.6978 16.273 47.1377 15.8199C47.413 15.7338 47.6869 15.6392 47.996 15.5375L48.1076 16.6867C48.1641 17.2782 48.2135 17.8725 48.284 18.464C48.2965 18.5393 48.2841 18.6165 48.2487 18.684C48.2133 18.7516 48.1568 18.8057 48.0878 18.8382C47.3579 19.3196 46.5349 19.5355 45.6879 19.6993C43.95 20.0381 42.2009 20.1228 40.456 19.7812C37.4391 19.184 35.4825 17.3714 34.5408 14.4618C33.955 12.6562 33.835 10.7913 33.9578 8.90944C34.0361 7.4486 34.4031 6.01777 35.0378 4.69966C36.3083 2.13031 38.3737 0.625401 41.1873 0.156707C43.7947 -0.278107 46.2695 0.223058 48.637 1.32562C48.6567 1.33833 48.6807 1.35668 48.7316 1.38491Z" fill="white"/>
    <path d="M19.9322 0.29364H31.0397V3.65074H30.739C28.5833 3.65074 26.4262 3.65074 24.2705 3.65074C24.039 3.65074 23.9641 3.70015 23.9656 3.9472C23.9783 5.43658 23.9754 6.92737 23.9656 8.41674C23.9656 8.62003 24.015 8.68215 24.2267 8.68215C26.2342 8.67368 28.2417 8.68215 30.2492 8.68215H30.5414V12.028H30.2308C28.2389 12.028 26.2483 12.028 24.2564 12.028C24.0333 12.028 23.9641 12.083 23.9656 12.3103C23.974 14.7639 23.9656 17.2175 23.9656 19.6725V19.9972H19.9322V0.29364Z" fill="white"/>
  </g>
  <defs>
    <clipPath id="clip0_2877_18267">
      <rect width="48.7259" height="20" fill="white"/>
    </clipPath>
  </defs>
</svg>