<svg xmlns="http://www.w3.org/2000/svg" width="126" height="30" viewBox="0 0 126 30" fill="none">
  <g clip-path="url(#clip0_2877_18297)">
    <path d="M13.8492 30C13.6305 29.929 13.401 29.897 13.1713 29.9054C12.0982 29.7813 11.0412 29.5435 10.0184 29.196C8.71153 28.7356 7.47727 28.0906 6.35311 27.2806C5.9023 26.9683 5.47306 26.626 5.0683 26.2559C4.87124 26.0667 4.6663 25.8933 4.46924 25.6963C3.13906 24.3881 2.06917 22.8394 1.31633 21.1324C0.800012 19.9644 0.434489 18.7354 0.228572 17.475C0.0580139 16.3936 -0.00272607 15.2976 0.0472798 14.2039C0.0842948 13.1206 0.253709 12.0458 0.551746 11.0037C1.013 9.36804 1.74286 7.82042 2.71149 6.42406C3.35478 5.49248 4.10036 4.63586 4.9343 3.8702C6.0192 2.86706 7.25632 2.04231 8.59957 1.42669C10.1733 0.693821 11.8608 0.235305 13.5891 0.0709402C14.4857 -0.0118466 15.3881 -0.0118466 16.2848 0.0709402C18.3271 0.244819 20.3121 0.834968 22.1177 1.80504C23.2603 2.42238 24.3198 3.18255 25.2706 4.06726C26.6987 5.40698 27.8502 7.01376 28.66 8.79664C29.2097 9.99503 29.5942 11.2625 29.8029 12.5644C29.9799 13.5762 30.046 14.6044 30 15.6306C29.9175 17.4431 29.5117 19.2262 28.8019 20.896C28.241 22.2092 27.4951 23.4355 26.587 24.5376C25.4778 25.8833 24.1444 27.0273 22.6458 27.9191C21.0506 28.8794 19.2881 29.5293 17.4514 29.8345C17.0494 29.8975 16.6632 29.9527 16.2454 29.9764C16.1823 29.9764 16.1035 29.9763 16.0641 30.0236L13.8492 30ZM15.0236 27.8245C18.4265 27.8371 21.6955 26.5001 24.1142 24.1065C26.5329 21.7129 27.904 18.458 27.9269 15.0552C27.9608 11.6664 26.6544 8.40157 24.2923 5.97154C21.9302 3.5415 18.7036 2.14313 15.3153 2.08092C13.6227 2.03801 11.9384 2.3311 10.3597 2.94325C8.78112 3.5554 7.33954 4.47445 6.11836 5.64726C4.89717 6.82006 3.92063 8.22334 3.24521 9.77593C2.56979 11.3285 2.20889 12.9996 2.18338 14.6926C2.14126 16.404 2.44244 18.1066 3.06914 19.6997C3.69583 21.2928 4.63534 22.7442 5.83221 23.9683C7.02908 25.1923 8.45904 26.1642 10.0377 26.8265C11.6163 27.4888 13.3117 27.8282 15.0236 27.8245Z" fill="#027DC3"/>
    <path d="M125.959 22.5828H123.594C123.492 22.5828 123.445 22.5355 123.452 22.433V22.3148C123.452 18.3736 123.452 14.4325 123.452 10.4913C123.452 10.2943 123.516 10.2233 123.705 10.176C124.39 10.0263 125.076 9.84498 125.762 9.67945C125.835 9.67558 125.909 9.67558 125.983 9.67945L125.959 22.5828Z" fill="#6C6D72"/>
    <path d="M56.8628 13.8019C57.085 13.5363 57.3303 13.291 57.5959 13.0689C57.9953 12.7784 58.4737 12.6162 58.9674 12.6038C59.566 12.5191 60.176 12.6268 60.7094 12.9112C61.1511 13.181 61.4769 13.6051 61.6237 14.1014C61.7341 13.9044 61.8129 13.7231 61.9233 13.5654C62.084 13.3284 62.2913 13.1265 62.5325 12.972C62.7737 12.8175 63.0437 12.7137 63.3263 12.6669C63.8828 12.529 64.4645 12.529 65.021 12.6669C65.3592 12.7723 65.6639 12.9647 65.9046 13.2247C66.1452 13.4848 66.3135 13.8034 66.3925 14.1487C66.511 14.5745 66.5667 15.0153 66.5581 15.4572C66.5581 17.7352 66.5581 20.021 66.5581 22.299C66.5581 22.5276 66.495 22.5749 66.2743 22.5749C65.6279 22.5749 64.9737 22.5749 64.3274 22.5749C64.1067 22.5749 64.0357 22.5355 64.0357 22.2911C64.0357 20.1471 64.0357 18.0032 64.0357 15.8592C64.0403 15.6167 64.0084 15.3749 63.9411 15.1419C63.9121 15.025 63.8596 14.9152 63.7869 14.8192C63.7142 14.7232 63.6227 14.6429 63.5181 14.5832C63.4135 14.5235 63.2978 14.4857 63.1781 14.472C63.0585 14.4582 62.9373 14.469 62.8218 14.5034C62.5551 14.5336 62.3072 14.6553 62.1203 14.848C61.9334 15.0406 61.8192 15.2922 61.7971 15.5597C61.7654 15.7525 61.7496 15.9475 61.7499 16.1429C61.7499 18.2081 61.7499 20.268 61.7499 22.3227C61.7499 22.5276 61.7026 22.5828 61.4976 22.5749C60.8355 22.5749 60.1655 22.5749 59.5034 22.5749C59.2827 22.5749 59.2118 22.5749 59.2118 22.299C59.2118 20.1077 59.2118 17.9165 59.2118 15.7252C59.2313 15.4045 59.1455 15.0862 58.9674 14.8187C58.8153 14.6675 58.6216 14.565 58.4111 14.5243C58.2005 14.4836 57.9826 14.5065 57.7851 14.5901C57.5467 14.6755 57.3417 14.8346 57.2 15.0444C57.0582 15.2542 56.9871 15.5037 56.9968 15.7567C56.9259 17.2701 56.9968 18.7914 56.9968 20.3127C56.9968 20.9984 56.9968 21.6842 56.9968 22.37C56.9968 22.5355 56.9968 22.5985 56.784 22.5985C56.0825 22.5985 55.3731 22.5985 54.6716 22.5985C54.4903 22.5985 54.4587 22.5355 54.4587 22.37C54.443 19.2854 54.4351 16.1666 54.4351 13.0137C54.4351 12.8403 54.4824 12.793 54.6558 12.8009C55.3179 12.8009 55.98 12.8009 56.65 12.8009C56.8313 12.8009 56.8628 12.856 56.855 13.0216C56.8471 13.1871 56.8628 13.526 56.8628 13.8019Z" fill="#027DC3"/>
    <path d="M70.6805 13.8019C70.8251 13.4899 71.0448 13.2186 71.3199 13.0123C71.595 12.8059 71.9169 12.671 72.2569 12.6195C72.8842 12.4878 73.5369 12.5539 74.1251 12.8087C74.4796 12.9848 74.7898 13.2385 75.0327 13.551C75.2756 13.8635 75.445 14.2268 75.5281 14.6138C75.7368 15.3855 75.8533 16.1793 75.8749 16.9784C75.9066 17.5692 75.9066 18.1612 75.8749 18.752C75.8682 19.6888 75.6528 20.6124 75.2443 21.4556C75.0728 21.7945 74.8207 22.086 74.5101 22.3046C74.1994 22.5231 73.8398 22.6619 73.4629 22.7089C72.9358 22.8112 72.3907 22.7676 71.8865 22.5827C71.4985 22.4117 71.1636 22.1394 70.917 21.7945L70.8618 21.7236C70.8618 21.7866 70.8618 21.8655 70.8618 21.9364C70.8618 22.9033 70.8618 23.8728 70.8618 24.845C70.8618 25.0105 70.8066 25.0893 70.649 25.1208C69.9238 25.2943 69.1986 25.4755 68.4813 25.6647C68.3631 25.6647 68.3237 25.6647 68.3316 25.5623V13.0925C68.3316 12.8954 68.371 12.8245 68.5838 12.8324C69.238 12.8324 69.8844 12.8324 70.5386 12.8324C70.6963 12.8324 70.7435 12.8718 70.7357 13.0373C70.7278 13.2028 70.7357 13.5575 70.7357 13.8255V13.8807L70.6805 13.8019ZM73.3526 17.743V17.278C73.3504 16.6018 73.2603 15.9288 73.0846 15.2759C73.0394 15.109 72.9517 14.9567 72.8302 14.8337C72.7086 14.7108 72.5573 14.6214 72.3909 14.5743C72.2337 14.52 72.0663 14.5019 71.9011 14.5214C71.7359 14.5409 71.5773 14.5975 71.437 14.6869C71.2968 14.7764 71.1786 14.8964 71.0913 15.0379C71.0039 15.1795 70.9497 15.339 70.9327 15.5045C70.7517 16.4254 70.6881 17.3657 70.7435 18.3027C70.7443 18.9125 70.8265 19.5196 70.9879 20.1077C71.022 20.2967 71.1101 20.4717 71.2416 20.6116C71.3731 20.7515 71.5424 20.8502 71.7288 20.8959C71.8764 20.9461 72.0331 20.9634 72.188 20.9468C72.343 20.9302 72.4924 20.88 72.626 20.7997C72.7596 20.7194 72.874 20.611 72.9614 20.4819C73.0488 20.3529 73.1069 20.2064 73.1319 20.0525C73.3035 19.2952 73.3776 18.5191 73.3526 17.743Z" fill="#027DC3"/>
    <path d="M98.3079 21.7394C98.3079 22.8114 98.3079 23.8282 98.3079 24.845C98.3079 25.0105 98.2606 25.0893 98.0951 25.1288L96.0536 25.6884C95.7856 25.7593 95.7856 25.7593 95.7856 25.4835V13.1477C95.7856 12.856 95.7856 12.856 96.0851 12.856H97.9375C98.1345 12.856 98.1897 12.9112 98.1818 13.1004C98.1622 13.3496 98.1622 13.6 98.1818 13.8492C98.3555 13.5503 98.5795 13.2836 98.8439 13.061C99.0774 12.8486 99.3678 12.7089 99.6794 12.659C100.09 12.5572 100.517 12.5439 100.933 12.6201C101.349 12.6962 101.744 12.8599 102.091 13.1004C102.528 13.4513 102.847 13.927 103.006 14.464C103.231 15.1981 103.358 15.9588 103.384 16.7262C103.416 17.2276 103.416 17.7304 103.384 18.2318C103.384 18.681 103.329 19.1382 103.274 19.5875C103.242 20.3239 103.037 21.0423 102.675 21.6842C102.457 22.0288 102.156 22.3129 101.799 22.5099C101.442 22.707 101.041 22.8107 100.633 22.8114C100.039 22.8742 99.4423 22.7264 98.9464 22.3936C98.7067 22.2035 98.4922 21.9836 98.3079 21.7394ZM98.3079 17.6563C98.3079 17.9007 98.3079 18.0741 98.3079 18.2554C98.2979 18.9168 98.3883 19.5759 98.5759 20.2102C98.6165 20.3548 98.6905 20.4878 98.7917 20.5987C98.893 20.7096 99.0189 20.7952 99.1592 20.8487C99.3227 20.9225 99.5016 20.956 99.6808 20.9463C99.86 20.9365 100.034 20.8838 100.189 20.7926C100.343 20.7015 100.474 20.5745 100.569 20.4223C100.664 20.2702 100.721 20.0974 100.736 19.9186C100.903 18.9959 100.962 18.0567 100.909 17.1203C100.913 16.4883 100.826 15.859 100.649 15.2522C100.603 15.0885 100.516 14.9393 100.396 14.8192C100.276 14.699 100.127 14.612 99.9632 14.5665C99.8044 14.5123 99.6355 14.4946 99.469 14.5145C99.3024 14.5344 99.1425 14.5915 99.001 14.6816C98.8595 14.7716 98.74 14.8923 98.6514 15.0348C98.5628 15.1772 98.5074 15.3377 98.4892 15.5045C98.3492 16.2128 98.2884 16.9346 98.3079 17.6563Z" fill="#6C6D72"/>
    <path d="M79.7372 16.1666C79.7035 17.2211 79.7669 18.2765 79.9264 19.3195C79.963 19.5367 80.0184 19.7503 80.0919 19.958C80.1356 20.1429 80.2183 20.3164 80.3345 20.4668C80.4507 20.6171 80.5977 20.7409 80.7657 20.8297C80.9337 20.9186 81.1187 20.9704 81.3084 20.9819C81.4981 20.9933 81.688 20.964 81.8655 20.8959C82.0519 20.8401 82.2215 20.7389 82.359 20.6013C82.4966 20.4637 82.5979 20.2941 82.6537 20.1077C82.9006 19.4264 83.013 18.7036 82.9847 17.9795C82.9847 17.6563 82.9847 17.6563 83.3079 17.6563H85.4204C85.515 17.6563 85.6332 17.6563 85.6253 17.7903C85.6695 18.9442 85.4399 20.0922 84.9553 21.1403C84.7065 21.5651 84.3642 21.9278 83.9546 22.2009C83.5449 22.474 83.0785 22.6504 82.5906 22.7168C81.9896 22.8212 81.3776 22.8477 80.7698 22.7956C79.8699 22.785 79.0077 22.4328 78.3578 21.8103C77.9769 21.4195 77.6887 20.9481 77.5144 20.4309C77.3406 19.9605 77.2242 19.4709 77.1676 18.9727C77.0913 18.3556 77.0545 17.7342 77.0573 17.1124C77.0573 16.1272 76.9863 15.1419 77.0573 14.1645C77.0605 13.0651 77.331 11.9831 77.8455 11.0116C78.0974 10.5893 78.4405 10.2287 78.8496 9.95596C79.2587 9.68323 79.7235 9.50527 80.2102 9.43509C81.0662 9.27861 81.9447 9.292 82.7956 9.4745C83.1334 9.54729 83.4578 9.67228 83.7572 9.84497C84.2082 10.1254 84.5862 10.5088 84.8603 10.9638C85.1343 11.4187 85.2966 11.9321 85.3337 12.4619C85.3955 12.8901 85.4297 13.3219 85.4361 13.7546C85.4361 13.9044 85.4361 13.9674 85.2312 13.9674H83.0084C82.8429 13.9674 82.8113 13.9044 82.8113 13.7546C82.821 13.2208 82.7465 12.6888 82.5906 12.1781C82.5213 11.9034 82.358 11.6616 82.1291 11.4946C81.9002 11.3276 81.6201 11.246 81.3373 11.2638C81.0729 11.2394 80.8078 11.3036 80.5838 11.4463C80.3598 11.589 80.1896 11.8021 80.0998 12.052C79.8958 12.538 79.7759 13.055 79.7451 13.5812C79.6868 14.4419 79.6842 15.3055 79.7372 16.1666Z" fill="#6C6D72"/>
    <path d="M50.3284 21.5344C50.0975 21.9279 49.7666 22.2534 49.3693 22.4776C48.972 22.7019 48.5224 22.817 48.0662 22.8113C47.5793 22.8526 47.0893 22.7853 46.6316 22.6143C46.3189 22.4837 46.0455 22.2742 45.8382 22.0061C45.6309 21.738 45.4969 21.4206 45.4493 21.0851C45.3878 20.718 45.3614 20.3459 45.3704 19.9737C45.3704 17.68 45.3704 15.3783 45.3704 13.0846C45.3704 12.8875 45.3704 12.8245 45.6227 12.8324C46.2769 12.8324 46.939 12.8324 47.5933 12.8324C47.9401 12.8324 47.9007 12.793 47.9007 13.1319C47.9007 15.2811 47.9007 17.4277 47.9007 19.5717C47.8919 19.7912 47.9105 20.011 47.9558 20.226C47.9865 20.4157 48.0816 20.5891 48.2252 20.7169C48.3688 20.8447 48.552 20.9191 48.7441 20.9275C48.913 20.9565 49.0861 20.9505 49.2526 20.9099C49.4191 20.8693 49.5756 20.795 49.7122 20.6916C49.8489 20.5882 49.9629 20.4578 50.0472 20.3086C50.1315 20.1593 50.1843 19.9944 50.2023 19.824C50.2444 19.5475 50.2629 19.268 50.2575 18.9884C50.2575 17.0179 50.2575 15.0473 50.2575 13.0846C50.2575 12.8875 50.2969 12.8245 50.5018 12.8324C51.1955 12.8324 51.8812 12.8324 52.567 12.8324C52.7246 12.8324 52.7719 12.8324 52.7719 13.0294V22.4172C52.7719 22.567 52.7719 22.6143 52.5827 22.6064H50.5806C50.4388 22.6064 50.3757 22.6064 50.3836 22.4251C50.3836 22.1335 50.3836 21.8418 50.3836 21.5502V21.495L50.3284 21.5344Z" fill="#027DC3"/>
    <path d="M121.561 18.1844C121.561 19.0673 121.561 19.9501 121.561 20.8329C121.522 21.3049 121.592 21.7796 121.766 22.2202C121.766 22.299 121.766 22.4094 121.829 22.5039C121.892 22.5985 121.829 22.6222 121.742 22.6222C121.017 22.6222 120.292 22.6222 119.566 22.6222C119.425 22.6222 119.385 22.5276 119.354 22.4251C119.322 22.3226 119.235 21.9995 119.172 21.7866C119.172 21.7472 119.172 21.6921 119.125 21.6842C119.078 21.6763 119.054 21.7236 119.023 21.763C118.854 22.0416 118.625 22.2787 118.353 22.4566C117.973 22.6808 117.54 22.8005 117.099 22.8035C116.767 22.8508 116.43 22.8508 116.098 22.8035C115.816 22.7659 115.546 22.6647 115.308 22.5077C115.071 22.3507 114.872 22.1419 114.727 21.897C114.432 21.3801 114.272 20.7973 114.262 20.2023C114.235 19.6419 114.321 19.0818 114.514 18.5549C114.689 18.112 115.016 17.7459 115.436 17.5223C115.963 17.2549 116.518 17.0486 117.091 16.9075C117.572 16.7735 118.069 16.6789 118.534 16.4976C118.708 16.4308 118.857 16.313 118.963 16.1596C119.068 16.0063 119.125 15.8246 119.125 15.6385C119.131 15.4068 119.102 15.1755 119.038 14.9527C118.981 14.7672 118.863 14.6067 118.702 14.4977C118.542 14.3888 118.349 14.3379 118.156 14.3537C117.908 14.3154 117.654 14.3454 117.422 14.4404C117.283 14.5083 117.163 14.6105 117.073 14.7372C116.984 14.864 116.928 15.0113 116.91 15.1655C116.865 15.3626 116.836 15.5629 116.823 15.7646C116.823 15.8513 116.76 15.8513 116.697 15.8513H114.727C114.616 15.8513 114.585 15.804 114.577 15.7015C114.536 15.3191 114.573 14.9324 114.684 14.5643C114.795 14.1961 114.978 13.8538 115.223 13.5575C115.647 13.0798 116.229 12.7718 116.863 12.6905C117.428 12.6027 118.002 12.5736 118.573 12.6038C119.113 12.5991 119.648 12.6981 120.15 12.8954C120.492 13.0366 120.792 13.2627 121.023 13.5523C121.253 13.842 121.406 14.1856 121.466 14.5507C121.55 15.1617 121.579 15.779 121.553 16.3952C121.569 16.9942 121.561 17.5854 121.561 18.1844ZM119.196 18.8938V18.1056C119.196 17.7746 119.196 17.7746 118.896 17.9401C118.681 18.0511 118.453 18.1383 118.219 18.2002C118.01 18.2513 117.805 18.3144 117.604 18.3894C117.419 18.4482 117.251 18.5505 117.114 18.6877C116.977 18.8248 116.874 18.9928 116.816 19.1776C116.645 19.6981 116.688 20.2648 116.934 20.7541C116.98 20.8426 117.045 20.9202 117.124 20.9814C117.203 21.0426 117.294 21.086 117.391 21.1088C117.581 21.1519 117.777 21.1571 117.969 21.1242C118.161 21.0912 118.345 21.0208 118.51 20.9168C118.674 20.8129 118.817 20.6774 118.929 20.5183C119.042 20.3592 119.122 20.1795 119.164 19.9895C119.19 19.6248 119.192 19.2589 119.172 18.8938H119.196Z" fill="#6C6D72"/>
    <path d="M94.2959 22.5906H91.9706C91.8918 22.5906 91.8681 22.5433 91.8366 22.4803C91.7339 22.2124 91.6574 21.9352 91.608 21.6526C91.4976 21.6526 91.4898 21.7551 91.4425 21.8182C91.2918 22.0641 91.0885 22.2735 90.8473 22.4316C90.6061 22.5897 90.3329 22.6925 90.0473 22.7325C89.4829 22.8467 88.9013 22.8467 88.3368 22.7325C88.0857 22.6767 87.8495 22.5675 87.6441 22.4125C87.4388 22.2575 87.2691 22.0602 87.1466 21.8339C86.7613 21.1096 86.6229 20.2794 86.7525 19.4692C86.7949 19.0094 86.9462 18.5663 87.1939 18.1765C87.5504 17.7179 88.0451 17.3862 88.6048 17.2307C89.2512 17.0021 89.9212 16.8602 90.5754 16.671C90.7764 16.6471 90.9683 16.5732 91.1335 16.4562C91.2987 16.3392 91.432 16.1827 91.5213 16.001C91.6159 15.7397 91.6288 15.4558 91.5584 15.187C91.4881 14.9181 91.3377 14.677 91.1272 14.4955C90.9597 14.3936 90.7698 14.3343 90.5742 14.3228C90.3785 14.3114 90.183 14.3481 90.0048 14.4298C89.8266 14.5115 89.6712 14.6357 89.5522 14.7914C89.4331 14.9472 89.3542 15.1298 89.3221 15.3232C89.3045 15.3959 89.2913 15.4696 89.2827 15.5439C89.2827 15.8828 89.2827 15.8907 88.8965 15.8907C88.3368 15.8907 87.7851 15.8907 87.2254 15.8907C87.0757 15.8907 87.0363 15.8513 87.0284 15.6936C86.9942 15.3098 87.0373 14.9231 87.1551 14.5562C87.2729 14.1893 87.463 13.8497 87.7141 13.5575C88.0708 13.1574 88.5457 12.8813 89.0699 12.7693C89.7989 12.6053 90.5499 12.5627 91.2927 12.6432C91.9023 12.6708 92.4955 12.8496 93.0189 13.1634C93.4178 13.4241 93.7111 13.818 93.8466 14.2748C93.9671 14.7107 94.0177 15.163 93.9963 15.6148V20.6752C93.9672 21.2828 94.0555 21.8904 94.2564 22.4645C94.2757 22.5044 94.289 22.5469 94.2959 22.5906ZM91.6238 17.743C91.2464 17.9832 90.8304 18.1565 90.3941 18.2554C90.0905 18.2904 89.8064 18.4231 89.5846 18.6334C89.3628 18.8438 89.2154 19.1205 89.1645 19.422C89.091 19.8428 89.1431 20.2759 89.3142 20.6674C89.3585 20.7828 89.4318 20.8848 89.5271 20.9635C89.6224 21.0422 89.7364 21.095 89.8581 21.1166C90.2286 21.19 90.613 21.1168 90.9306 20.9125C91.2481 20.7081 91.474 20.3885 91.5607 20.021C91.6296 19.2638 91.6507 18.5029 91.6238 17.743Z" fill="#6C6D72"/>
    <path d="M43.7467 14.6453C43.7467 16.2218 43.7467 17.7273 43.7467 19.2722C43.7612 19.9849 43.5959 20.6897 43.2659 21.3216C42.9083 21.9347 42.3258 22.3843 41.6421 22.5749C40.8519 22.8039 40.0255 22.8815 39.2065 22.8035C38.5024 22.7734 37.8319 22.494 37.3148 22.0153C36.9254 21.6372 36.652 21.1559 36.5265 20.628C36.3877 19.9702 36.3347 19.2972 36.3689 18.6259C36.3689 18.5155 36.4083 18.4919 36.5108 18.4919H38.6705C38.8045 18.4919 38.836 18.5392 38.836 18.6653C38.8006 19.1482 38.8324 19.6336 38.9306 20.1077C38.9496 20.2938 39.0257 20.4695 39.1485 20.6106C39.2713 20.7517 39.4347 20.8514 39.6164 20.896C39.8235 20.9647 40.0465 20.9692 40.2562 20.9087C40.4658 20.8482 40.6522 20.7256 40.7908 20.557C40.9393 20.3451 41.0291 20.0976 41.051 19.8397C41.1377 19.1603 41.1614 18.4742 41.1219 17.7903C41.1219 15.1629 41.1219 12.5355 41.1219 9.90806C41.1219 9.70312 41.1771 9.65582 41.3741 9.65582C42.0914 9.65582 42.8166 9.65582 43.5339 9.65582C43.7309 9.65582 43.7704 9.71888 43.7704 9.90017C43.7704 11.4766 43.7704 13.0531 43.7704 14.6295L43.7467 14.6453Z" fill="#027DC3"/>
    <path d="M109.777 17.8298C109.777 16.8287 109.777 15.8277 109.777 14.8345C109.777 14.6059 109.706 14.5428 109.493 14.5586C109.28 14.5744 108.941 14.5586 108.665 14.5586C108.547 14.5586 108.484 14.5586 108.484 14.401C108.484 13.928 108.484 13.4551 108.484 12.9821C108.484 12.856 108.539 12.8245 108.649 12.8245C108.957 12.8245 109.264 12.8245 109.572 12.8245C109.737 12.8245 109.769 12.7693 109.769 12.6117C109.769 12.0205 109.769 11.4215 109.769 10.8303C109.769 10.6884 109.808 10.6411 109.95 10.6096L112.031 10.0893C112.275 10.0342 112.291 10.0499 112.291 10.2943C112.291 11.0825 112.291 11.8707 112.291 12.6038C112.291 12.7772 112.338 12.8324 112.512 12.8245C112.843 12.8245 113.182 12.8245 113.521 12.8245C113.671 12.8245 113.734 12.8245 113.734 13.0216C113.734 13.4708 113.734 13.928 113.734 14.3773C113.734 14.5113 113.686 14.5665 113.552 14.5586C113.19 14.5586 112.827 14.5586 112.472 14.5586C112.331 14.5586 112.291 14.6059 112.291 14.7478C112.291 16.5292 112.291 18.3185 112.291 20.0999C112.291 20.5886 112.433 20.8881 113.079 20.8881C113.232 20.896 113.384 20.896 113.537 20.8881C113.663 20.8881 113.702 20.9354 113.702 21.0457C113.702 21.5082 113.702 21.9732 113.702 22.4409C113.702 22.567 113.647 22.5985 113.537 22.6064C112.864 22.6774 112.187 22.7011 111.511 22.6774C111.244 22.6648 110.979 22.6198 110.723 22.5434C110.499 22.4658 110.301 22.3273 110.152 22.1435C110.003 21.9596 109.909 21.7377 109.879 21.5029C109.8 21.1406 109.769 20.7698 109.785 20.3994L109.777 17.8298Z" fill="#6C6D72"/>
    <path d="M107.483 17.743V22.3936C107.483 22.5749 107.483 22.6458 107.246 22.6379C106.553 22.6379 105.859 22.6379 105.166 22.6379C105.008 22.6379 104.961 22.5906 104.961 22.433V13.0136C104.961 12.8481 105.016 12.8166 105.173 12.8166C105.867 12.8166 106.561 12.8166 107.254 12.8166C107.436 12.8166 107.491 12.8639 107.483 13.0452V17.743Z" fill="#6C6D72"/>
    <path d="M106.214 11.6421H105.158C105.016 11.6421 104.953 11.6027 104.961 11.453C104.961 10.8539 104.961 10.2627 104.961 9.66368C104.961 9.5218 105.008 9.49026 105.142 9.49026H107.302C107.436 9.49026 107.491 9.49027 107.483 9.66368C107.483 10.2627 107.483 10.8539 107.483 11.453C107.483 11.6027 107.428 11.6421 107.286 11.6421H106.214Z" fill="#6C6D72"/>
    <path d="M70.6805 13.8019H70.6332V13.7467L70.6805 13.8019Z" fill="#6C6D72"/>
    <path d="M50.3284 21.5344H50.3757V21.5896L50.3284 21.5344Z" fill="#6C6D72"/>
    <path d="M15.4572 15.0709C15.4572 11.5003 15.4572 7.92959 15.4572 4.35891C15.4572 4.13032 15.5044 4.07515 15.733 4.09091C17.5183 4.22636 19.2488 4.76929 20.7915 5.67797C22.3342 6.58665 23.6481 7.83689 24.6321 9.33264C24.9238 9.74251 25.1681 10.176 25.4204 10.6174C25.4992 10.7514 25.4992 10.8145 25.3337 10.8776C24.9238 11.0352 24.5454 11.2165 24.1198 11.4057C23.9543 11.4845 23.8754 11.453 23.7887 11.2874C23.0408 9.87045 21.9751 8.64567 20.6752 7.70888C19.6669 7.00322 18.5481 6.47044 17.3647 6.13242C17.2307 6.13242 17.1518 6.13242 17.1755 6.26642C17.1794 6.3189 17.1794 6.37159 17.1755 6.42407V23.7651C17.1793 23.8097 17.1793 23.8545 17.1755 23.8991C17.1755 24.0883 17.2386 24.104 17.3883 24.0646C18.102 23.8816 18.7923 23.6172 19.4456 23.2764C21.283 22.3229 22.7868 20.8328 23.7572 19.0042C23.9306 18.681 23.8597 18.7204 24.1907 18.8623C24.5218 19.0042 24.979 19.1934 25.3652 19.3668C25.444 19.3668 25.5228 19.4062 25.4519 19.5323C24.8276 20.7252 24.0308 21.8195 23.0872 22.7798C21.3426 24.4846 19.1117 25.6056 16.7026 25.9879C16.3557 26.051 15.9931 26.051 15.6306 26.0904C15.5202 26.0904 15.4808 26.0904 15.4887 25.9485C15.4926 25.896 15.4926 25.8433 15.4887 25.7909L15.4572 15.0709Z" fill="#027DC3"/>
    <path d="M14.4482 15.1655C14.4482 18.7494 14.4482 22.3305 14.4482 25.9091C14.4482 26.1219 14.4009 26.1771 14.1881 26.1535C12.2273 26.028 10.3324 25.3964 8.68844 24.3202C7.04449 23.244 5.70759 21.7601 4.80819 20.0131C4.76609 19.9408 4.73174 19.8641 4.70572 19.7846C4.65843 19.6506 4.50078 19.5087 4.56384 19.3983C4.6269 19.288 4.80819 19.2643 4.94219 19.2013C5.25748 19.0673 5.57277 18.9412 5.88018 18.7835C6.06148 18.6968 6.1403 18.7835 6.20336 18.9096C6.46915 19.5029 6.8024 20.0636 7.19653 20.5807C8.5534 22.358 10.4833 23.6112 12.659 24.1277C12.7772 24.1277 12.8324 24.1277 12.8166 24.0016V4.61115C12.8166 4.40621 12.856 4.31162 13.0767 4.28797C13.4866 4.2328 13.8649 4.1855 14.3221 4.16974C14.4482 4.16974 14.4955 4.16974 14.4876 4.3195C14.4835 4.37197 14.4835 4.42468 14.4876 4.47715L14.4482 15.1655Z" fill="#027DC3"/>
  </g>
  <defs>
    <clipPath id="clip0_2877_18297">
      <rect width="125.959" height="30" fill="white"/>
    </clipPath>
  </defs>
</svg>