<svg xmlns="http://www.w3.org/2000/svg" width="125" height="20" viewBox="0 0 125 20" fill="none">
  <path d="M9.65095 0.557127C12.6499 0.557127 15.6489 0.567908 18.6467 0.546325C19.101 0.546325 19.2057 0.672597 19.2046 1.11181C19.1895 7.09821 19.1895 13.0842 19.2046 19.0699C19.2046 19.5188 19.0805 19.658 18.6349 19.6278C18.06 19.5882 17.4831 19.5882 16.9082 19.6278C16.428 19.6613 16.3028 19.4994 16.3039 19.0267C16.3212 14.1303 16.324 9.23419 16.3125 4.33845C16.3125 3.27765 16.4582 3.42226 15.4136 3.42118C10.6546 3.41542 5.89623 3.41542 1.13862 3.42118C0.0163091 3.42118 0.0163098 3.42118 0.0163098 2.31613C0.0163098 1.90605 0.0443691 1.49167 0.00767802 1.08483C-0.0300922 0.653172 0.115593 0.545258 0.547252 0.545258C3.58182 0.565761 6.61638 0.557127 9.65095 0.557127Z" fill="#4EC9FE"/>
  <path d="M6.82853 6.04473C8.92963 6.04473 11.0372 6.05445 13.134 6.0361C13.5171 6.0361 13.6628 6.10516 13.6606 6.52819C13.6448 10.729 13.6448 14.9301 13.6606 19.1316C13.6606 19.5039 13.5603 19.628 13.1793 19.6161C12.316 19.5902 11.4527 19.5794 10.5894 19.6161C10.1264 19.6377 10.0671 19.451 10.0692 19.0593C10.0822 16.1099 10.0617 13.1596 10.0897 10.2102C10.0951 9.6793 9.93863 9.56922 9.43036 9.57354C6.46702 9.59836 3.50259 9.57355 0.538173 9.59621C0.101118 9.59621 -0.00139831 9.46887 0.0115515 9.05664C0.0428468 8.19979 0.037451 7.3397 0.0115515 6.48286C0.00183913 6.12674 0.119466 6.03178 0.466952 6.03394C2.58856 6.05229 4.708 6.04473 6.82853 6.04473Z" fill="#005882"/>
  <path d="M7.03865 16.1192C7.03865 17.1552 7.02894 18.1912 7.04513 19.2272C7.04513 19.5304 6.95771 19.6275 6.64908 19.6221C5.64187 19.6049 4.63682 19.6049 3.63394 19.6221C3.31019 19.6286 3.19688 19.5369 3.20228 19.2034C3.22494 18.4189 3.19365 17.6322 3.21739 16.8466C3.2271 16.5228 3.13861 16.4149 2.80083 16.4246C2.01198 16.4495 1.22096 16.4246 0.432105 16.4397C0.116993 16.4473 -0.00602953 16.3836 0.000445358 16.034C0.0263449 15.0347 0.0285032 14.0332 0.000445358 13.034C-0.00926698 12.6541 0.139655 12.6023 0.468795 12.6023C2.49616 12.6138 4.52424 12.6138 6.55303 12.6023C6.91671 12.6023 7.0516 12.6811 7.04189 13.0706C7.02138 14.085 7.03865 15.1038 7.03865 16.1192Z" fill="#2B375E"/>
  <path d="M94.1921 0C97.4316 0.0444072 99.8596 2.19149 100.136 5.39214C100.295 7.2195 99.6464 8.79484 98.2487 10.0205C95.4322 12.494 90.7428 11.7968 88.8855 8.63164C86.9049 5.26225 88.961 0.827083 92.8188 0.158755C93.274 0.0810423 93.7403 0.0521784 94.1921 0ZM97.2329 5.74074C97.2329 4.0466 95.8918 2.75436 94.1422 2.75547C92.3925 2.75658 91.0625 4.04327 91.0537 5.7474C91.0448 7.45152 92.3981 8.77153 94.1777 8.76376C95.9173 8.75598 97.2362 7.45152 97.2329 5.74074Z" fill="#0774A8"/>
  <path d="M55.7078 0.25885C57.5285 0.354326 59.3803 0.25885 61.1544 0.591904C63.8055 1.08149 65.2143 3.12645 65.151 5.89301C65.08 8.96155 63.1394 10.9887 60.0497 11.1608C58.7253 11.2341 57.3942 11.213 56.0653 11.2374C55.7966 11.243 55.6068 11.2052 55.6079 10.8577C55.6175 7.43764 55.6223 4.01681 55.6223 0.595238C55.642 0.481051 55.6706 0.368576 55.7078 0.25885ZM58.3878 5.73093C58.3878 6.52027 58.3967 7.31071 58.3878 8.10005C58.3823 8.4331 58.5088 8.57632 58.843 8.54412C59.2449 8.50305 59.6534 8.50082 60.0509 8.4331C61.3908 8.19553 62.2546 7.19858 62.2879 5.87969C62.3223 4.47198 61.5274 3.4162 60.1696 3.11312C59.7955 3.02986 59.4014 3.03763 59.0206 2.9799C58.4833 2.89886 58.36 3.15198 58.3823 3.63491C58.4111 4.33321 58.3867 5.03263 58.3878 5.73093Z" fill="#0774A8"/>
  <path d="M118.294 4.23909C118.574 3.79502 118.857 3.3565 119.135 2.91243C119.594 2.17971 120.043 1.43922 120.517 0.716495C120.616 0.56551 120.802 0.374559 120.954 0.369008C121.944 0.337923 122.934 0.353464 124.011 0.353464C123.866 0.606585 123.775 0.78088 123.671 0.947407C122.768 2.37954 121.87 3.815 120.951 5.23714C120.763 5.52801 120.766 5.73783 120.962 6.02315C122.027 7.57074 123.071 9.13165 124.123 10.6859C124.221 10.8313 124.306 10.9857 124.456 11.2266C123.295 11.2266 122.236 11.2421 121.168 11.2099C121.019 11.2099 120.841 10.9956 120.737 10.8413C120.022 9.7911 119.324 8.73199 118.619 7.67399C118.515 7.50119 118.371 7.35664 118.198 7.25323V11.1755H115.329V0.40675H118.126V4.18136L118.294 4.23909Z" fill="#0774A8"/>
  <path d="M39.2488 8.54383C39.2488 9.37536 39.2621 10.1614 39.2321 10.9463C39.2321 11.0473 38.9945 11.2205 38.8669 11.2216C36.7575 11.2394 34.656 11.2305 32.5511 11.2382C32.218 11.2382 32.1481 11.0817 32.1481 10.7942C32.154 7.46363 32.154 4.13309 32.1481 0.802554C32.1481 0.538331 32.1725 0.340724 32.5255 0.342945C34.7048 0.356267 36.883 0.356266 39.0623 0.362927C39.1132 0.373906 39.1624 0.391442 39.2088 0.415102V2.96851H34.9901C34.9901 3.44811 34.9546 3.86998 35.0134 4.27853C35.029 4.38955 35.321 4.54275 35.4886 4.54608C36.4656 4.57162 37.4425 4.5594 38.4606 4.5594V6.91964C37.5902 6.91964 36.7098 6.90743 35.8294 6.92631C35.5552 6.93297 35.0701 6.98181 35.0523 7.08728C34.9646 7.50804 35.0012 7.95988 35.0467 8.39507C35.0534 8.45835 35.3587 8.52829 35.5263 8.5294C36.7398 8.54939 37.9554 8.54383 39.2488 8.54383Z" fill="#0774A8"/>
  <path d="M53.1918 11.2194C52.1616 11.2194 51.1935 11.2494 50.2277 11.1895C50.07 11.1806 49.8802 10.7931 49.8036 10.5489C49.6515 10.066 49.3806 9.90832 48.8699 9.93164C47.8941 9.97715 46.9127 9.96161 45.9357 9.93164C45.5494 9.92165 45.284 10.0149 45.1986 10.4079C45.0454 11.1162 44.6046 11.306 43.9141 11.2439C43.2235 11.1817 42.5208 11.2294 41.7292 11.2294C41.8258 10.9819 41.8802 10.8187 41.9513 10.6632C43.48 7.34381 45.0165 4.02771 46.5297 0.7005C46.7095 0.306386 46.9149 0.126535 47.3567 0.170942C47.7675 0.212019 48.1428 0.115432 48.3859 0.65609C49.9024 4.02104 51.4655 7.36491 53.0109 10.7176C53.0697 10.8509 53.1075 10.9885 53.1918 11.2194ZM46.3209 7.84561H48.609L47.4655 5.21005L46.3209 7.84561Z" fill="#0774A8"/>
  <path d="M111.024 7.75518L112.597 9.84342C110.505 12.0638 106.451 11.9794 104.165 9.70465C103.635 9.17185 103.217 8.53734 102.938 7.83919C102.659 7.14104 102.524 6.39367 102.54 5.64193C102.557 4.8902 102.726 4.14961 103.036 3.46463C103.346 2.77965 103.791 2.16441 104.345 1.65585C106.713 -0.523431 110.379 -0.444609 112.591 1.73911L110.981 3.7874C110.056 3.09353 109.094 2.6206 107.933 2.8715C107.223 3.01722 106.583 3.40196 106.122 3.96169C105.7 4.47993 105.471 5.12839 105.474 5.79647C105.477 6.46456 105.712 7.1109 106.138 7.62529C107.284 9.00524 108.715 9.05409 111.024 7.75518Z" fill="#0774A8"/>
  <path d="M68.0797 6.511V4.56485C69.171 4.56485 70.2368 4.57151 71.2992 4.56485C71.5535 4.56485 71.8688 4.57929 72.0464 4.44384C72.294 4.25511 72.5893 3.92761 72.5848 3.66672C72.5804 3.40583 72.2751 3.08165 72.0175 2.90846C71.8144 2.7708 71.4846 2.79745 71.2104 2.79745C70.1802 2.78634 69.1499 2.79745 68.0842 2.79745V0.346172C68.4805 0.346172 68.8613 0.346172 69.2432 0.346172C70.2035 0.346172 71.166 0.326187 72.1296 0.365044C73.4408 0.418332 75.2648 1.54073 74.995 3.42026C74.9118 3.99866 74.5509 4.53044 74.3012 5.11439C74.7732 5.24631 75.2012 5.50242 75.5406 5.85605C75.88 6.20968 76.1183 6.64786 76.2306 7.12493C76.7058 8.93674 75.4879 10.9051 73.5485 11.1005C71.7611 11.2803 69.9415 11.1382 68.0941 11.1382V8.67252C68.2895 8.66142 68.4849 8.64032 68.6814 8.64032C69.7916 8.64032 70.9018 8.64032 72.012 8.63477C72.2697 8.63572 72.5266 8.60514 72.7769 8.54374C73.3064 8.40385 73.6317 7.98088 73.5973 7.50683C73.5584 6.97172 73.2243 6.68085 72.7325 6.56318C72.5148 6.52256 72.2932 6.50691 72.0719 6.51655C70.7597 6.50878 69.4463 6.511 68.0797 6.511Z" fill="#0774A8"/>
  <path d="M22.4214 0.369537H25.2413V8.52158H29.4822C29.4822 9.37087 29.4955 10.158 29.4655 10.944C29.4655 11.045 29.229 11.2193 29.1014 11.2204C26.992 11.2382 24.8827 11.2282 22.78 11.2382C22.3415 11.2382 22.3837 10.9573 22.3837 10.6831C22.3837 8.67589 22.3837 6.66943 22.3837 4.66371C22.3837 3.44769 22.3837 2.23279 22.3837 1.01899C22.3892 0.815827 22.4081 0.617107 22.4214 0.369537Z" fill="#0774A8"/>
  <path d="M86.08 8.54262V11.1915H79.0659V0.389465H81.8824V1.01227C81.8824 3.31257 81.8991 5.61397 81.8702 7.91426C81.8636 8.44049 82.0379 8.5626 82.5308 8.54928C83.692 8.52153 84.8588 8.54262 86.08 8.54262Z" fill="#0774A8"/>
  <path d="M55.631 19.753C55.0526 19.9273 54.7229 19.753 54.3987 19.3633C52.971 17.6392 52.9555 17.6492 50.7118 17.6981C50.6008 17.6981 50.4898 17.7158 50.3121 17.7314V19.783L49.666 19.8229V14.272C49.9058 14.272 50.1556 14.272 50.4054 14.272C51.4956 14.272 52.5869 14.2543 53.676 14.2787C54.7373 14.3031 55.4523 14.9204 55.5189 15.8196C55.5799 16.6278 55.2269 17.1974 54.4653 17.5071C54.281 17.5815 54.0912 17.6414 53.8558 17.7291L55.631 19.753ZM50.3133 17.0408C51.5145 17.0408 52.6579 17.0752 53.797 17.0275C54.4687 16.9986 54.8494 16.5479 54.8461 15.9695C54.8428 15.3911 54.4931 14.9859 53.8403 14.9304C52.9966 14.8582 52.1462 14.8727 51.298 14.8538C50.9749 14.8471 50.6507 14.8538 50.3133 14.8538V17.0408Z" fill="#0774A8"/>
  <path d="M108.98 17.7201L110.756 19.7562C110.229 19.8938 109.852 19.8483 109.581 19.4231C109.484 19.2688 109.313 19.1578 109.229 18.999C108.375 17.3948 106.914 17.6357 105.432 17.7501V19.775H104.778V14.3019C106.239 14.3019 107.678 14.2419 109.108 14.323C110.037 14.3751 110.595 15.0357 110.644 15.855C110.698 16.7332 110.279 17.2916 109.348 17.5902C109.25 17.6191 109.149 17.659 108.98 17.7201ZM105.45 17.0207C106.671 17.0207 107.867 17.0629 109.056 17.0029C109.64 16.973 109.96 16.5244 109.975 16.0038C109.989 15.4831 109.687 14.9968 109.112 14.9646C107.907 14.8958 106.693 14.9435 105.449 14.9435L105.45 17.0207Z" fill="#0774A8"/>
  <path d="M124.337 14.9944L123.745 15.5029C122.736 14.7191 121.606 14.557 120.385 14.8046C120.33 14.8116 120.276 14.8228 120.223 14.8379C119.773 15.0033 119.223 15.1232 119.26 15.7371C119.291 16.3333 119.842 16.4033 120.284 16.4787C121.12 16.6209 121.967 16.6941 122.807 16.8118C123.08 16.8532 123.347 16.9278 123.602 17.0338C124.679 17.4779 124.83 18.6991 123.888 19.3974C123.136 19.9525 122.249 20.0202 121.352 19.9958C120.241 19.9658 119.131 19.5362 118.377 18.8334L118.822 18.3538C119.995 19.3297 121.312 19.5573 122.744 19.2597C122.906 19.2264 123.064 19.1723 123.212 19.0988C123.582 18.9145 123.923 18.6203 123.792 18.2106C123.73 18.0572 123.635 17.9194 123.514 17.8069C123.392 17.6945 123.248 17.6102 123.09 17.5601C122.193 17.3591 121.269 17.2825 120.361 17.1282C120.019 17.0604 119.684 16.9581 119.362 16.8229C118.903 16.6408 118.585 16.3089 118.554 15.7982C118.523 15.2875 118.787 14.8734 119.235 14.6148C120.302 13.9964 121.455 13.9364 122.609 14.2517C123.179 14.4083 123.706 14.718 124.337 14.9944Z" fill="#0774A8"/>
  <path d="M77.2808 15.2797V19.7748H76.6436V14.3238C77.0554 14.2194 77.3818 14.2439 77.7171 14.5936C78.9172 15.8425 80.1595 17.0537 81.3718 18.2871C81.4989 18.4447 81.6104 18.6143 81.7049 18.7934L81.9125 18.6757V14.2994H82.5575V19.9302C82.21 19.7692 81.898 19.7082 81.7093 19.525C80.4037 18.2505 79.1226 16.9516 77.8359 15.6571C77.6949 15.5161 77.5717 15.3563 77.4407 15.2053L77.2808 15.2797Z" fill="#0774A8"/>
  <path d="M96.5811 19.7881H91.2622V14.3138H96.4956C96.621 14.7112 96.5011 14.8689 96.0648 14.8589C94.8836 14.84 93.7024 14.8522 92.5211 14.8522H91.8983V16.6751H95.744C95.9405 17.1359 95.8151 17.2924 95.3732 17.2868C94.2319 17.2724 93.0907 17.2868 91.9106 17.2868V19.2385H96.5811V19.7881Z" fill="#0774A8"/>
  <path d="M34.9399 19.7551C35.9313 17.9621 36.885 16.2214 37.8564 14.4917C38.0462 14.1531 38.6757 14.1586 38.8655 14.4984C39.8358 16.2291 40.7906 17.9677 41.772 19.7417C41.3046 19.9016 40.9627 19.8672 40.8183 19.3909C40.543 18.4806 39.9302 18.2286 39.0232 18.3296C38.3116 18.4084 37.5799 18.3607 36.8628 18.3385C36.563 18.3296 36.3787 18.414 36.2611 18.6937C36.1517 18.9268 36.0294 19.1537 35.8947 19.3731C35.626 19.8594 35.626 19.8594 34.9399 19.7551ZM36.8206 17.6835H39.8847C39.364 16.7298 38.8855 15.8439 38.3493 14.8747L36.8206 17.6835Z" fill="#0774A8"/>
  <path d="M23.0761 19.7934H22.3756C22.3756 18.9841 22.3612 18.1992 22.3967 17.4154C22.3967 17.3299 22.6876 17.1933 22.8463 17.1878C23.8455 17.1667 24.8446 17.1878 25.8382 17.17C26.2056 17.1677 26.5709 17.115 26.924 17.0135C27.3747 16.8736 27.5812 16.515 27.5846 16.0376C27.5846 15.5392 27.3781 15.165 26.9007 15.0196C26.5477 14.9175 26.1824 14.8637 25.8149 14.8597C24.8158 14.8386 23.8166 14.842 22.8175 14.8597C22.41 14.8664 22.2768 14.7199 22.4278 14.2969C23.8566 14.2969 25.2943 14.2403 26.7253 14.3169C27.6623 14.3668 28.2551 15.094 28.2795 15.9644C28.3073 16.8603 27.7922 17.5331 26.8363 17.7007C26.2424 17.8039 25.6251 17.7795 25.0178 17.7928C24.3939 17.8062 23.7689 17.7928 23.0695 17.7928V19.7912L23.0761 19.7934Z" fill="#0774A8"/>
  <path d="M66.1284 14.843V19.7911H65.489V14.8752H62.8778C62.8556 14.6609 62.839 14.5066 62.819 14.309H68.774V14.843H66.1284Z" fill="#0774A8"/>
</svg>