<svg xmlns="http://www.w3.org/2000/svg" width="130" height="27" viewBox="0 0 130 27" fill="none">
  <path d="M40.029 11.1042C39.7971 11.1045 39.5674 11.0591 39.3531 10.9707C39.1387 10.8822 38.9439 10.7523 38.7797 10.5886C38.6155 10.4248 38.4852 10.2303 38.3962 10.0162C38.3072 9.80204 38.2613 9.57247 38.261 9.34058C38.2607 9.10869 38.3061 8.87901 38.3946 8.66466C38.4831 8.45031 38.6129 8.25549 38.7767 8.09131C38.9404 7.92714 39.1349 7.79683 39.3491 7.70782C39.5632 7.61882 39.7928 7.57286 40.0247 7.57258C40.4878 7.55261 40.9399 7.71735 41.2816 8.03061C41.6233 8.34386 41.8266 8.77997 41.8468 9.24308C41.8468 9.27125 41.8468 9.29725 41.8468 9.32325C41.8462 9.55713 41.7996 9.78861 41.7096 10.0045C41.6196 10.2203 41.4879 10.4164 41.3221 10.5813C41.1563 10.7463 40.9597 10.877 40.7434 10.966C40.5271 11.055 40.2954 11.1005 40.0615 11.0999L40.029 11.1042Z" fill="white"/>
  <path d="M122.394 22.0259C120.24 22.0259 118.587 20.0131 118.587 17.4392C118.568 16.7511 118.685 16.066 118.931 15.4231C119.177 14.7801 119.547 14.192 120.021 13.6924C120.494 13.1927 121.062 12.7913 121.691 12.5112C122.319 12.231 122.997 12.0775 123.685 12.0595H123.852C124.498 12.0687 125.136 12.211 125.724 12.4777L125.796 12.5102V10.4086C125.796 9.43148 125.679 9.36648 125.178 9.24732L125.026 9.21048L124.376 9.01982L128.818 7.57687V19.4455C128.818 20.5092 128.959 20.7757 129.607 20.9621L130.001 21.0617L129.882 21.3412L125.802 22.0129V20.0131L125.711 20.1279C124.771 21.3152 123.536 22.0259 122.394 22.0259ZM123.997 12.6337C122.537 12.6337 121.831 13.9163 121.831 16.5574C121.831 18.8713 122.697 20.3078 124.062 20.3078C124.51 20.3027 124.94 20.1264 125.262 19.815C125.584 19.5036 125.775 19.0807 125.796 18.633V14.4385C125.796 13.0757 124.584 12.6337 123.995 12.6337H123.997Z" fill="white"/>
  <path d="M37.4244 21.6987L37.4721 21.4279L38.1632 21.3196C38.2935 21.3097 38.4152 21.2507 38.5036 21.1546C38.5921 21.0585 38.6408 20.9324 38.6399 20.8018V14.9888C38.6399 13.8903 38.1372 13.613 37.6996 13.4939L37.4396 13.4289L41.6558 12.0596V20.7909C41.6515 20.9166 41.6931 21.0396 41.7728 21.1369C41.8526 21.2342 41.965 21.2991 42.0891 21.3196L42.8127 21.4322L42.8604 21.7031L37.4244 21.6987Z" fill="white"/>
  <path d="M84.4524 26.8574L84.5001 26.5866L85.1912 26.4782C85.3215 26.4684 85.4432 26.4094 85.5316 26.3133C85.6201 26.2172 85.6688 26.091 85.6679 25.9604V15.0755C85.6679 14.3367 85.3364 13.6997 84.8792 13.5589L84.4459 13.4484L88.6859 12.0596V14.068L88.7769 13.9532C89.7107 12.768 90.8634 12.0596 92.0052 12.0596C94.1544 12.0596 95.6342 14.2803 95.6342 16.8521C95.6342 20.2818 93.0105 22.0216 90.4344 22.0216C89.8512 22.0393 89.2712 21.9284 88.7358 21.6966L88.6643 21.6641V25.9626C88.6623 26.0939 88.711 26.2209 88.8001 26.3172C88.8893 26.4136 89.0121 26.4721 89.1431 26.4804L89.8364 26.5757L89.8841 26.8465L84.4524 26.8574ZM90.3997 13.7213C89.9504 13.739 89.5239 13.9235 89.2034 14.2388C88.8829 14.5541 88.6914 14.9775 88.6664 15.4264V19.777C88.6685 20.2117 88.8393 20.6287 89.1429 20.9399C89.4464 21.2511 89.859 21.4323 90.2935 21.4452C91.2837 21.4452 92.5511 20.6501 92.5511 17.2789C92.5511 14.965 91.7755 13.7213 90.3997 13.7213Z" fill="white"/>
  <path d="M62.1948 20.8039V15.5434C62.1902 15.104 62.0116 14.6844 61.698 14.3765C61.3845 14.0686 60.9616 13.8977 60.5222 13.9011H60.4941C60.0781 13.911 59.6818 14.0805 59.3874 14.3746C59.0929 14.6686 58.9229 15.0646 58.9124 15.4806V20.7931C58.9105 20.9166 58.9533 21.0366 59.0329 21.131C59.1126 21.2254 59.2237 21.2877 59.3458 21.3066L60.0694 21.4192L60.1171 21.69H54.8696L54.9172 21.4192L55.4524 21.3066C55.5726 21.2862 55.6818 21.2243 55.761 21.1317C55.8402 21.039 55.8844 20.9215 55.8857 20.7996V10.2786C55.8856 10.0364 55.8129 9.79981 55.6769 9.59937C55.541 9.39892 55.3481 9.24384 55.1231 9.15415L54.6508 8.96782L58.9428 7.57037V14.0095L59.0359 13.8687C59.0489 13.8513 60.2601 12.066 62.405 12.066C63.1458 12.0836 63.8524 12.3808 64.3831 12.898C64.8792 13.4158 65.1782 14.328 65.1782 15.3333L65.1999 20.8147C65.1979 20.9382 65.2407 21.0583 65.3204 21.1526C65.4 21.247 65.5111 21.3094 65.6332 21.3282L66.3568 21.4409L66.4045 21.7117H61.1679L61.2155 21.4409L61.7507 21.3282C61.8709 21.3079 61.9801 21.246 62.0593 21.1533C62.1385 21.0607 62.1826 20.9431 62.184 20.8212" fill="white"/>
  <path d="M25.9418 8.46951C25.9427 8.33887 25.894 8.21276 25.8055 8.11664C25.7171 8.02052 25.5954 7.96157 25.4651 7.95169L24.774 7.84336L24.7263 7.57254H30.6888L30.6368 7.84336L29.9456 7.95169C29.8152 7.96107 29.6932 8.01987 29.6046 8.1161C29.5161 8.21233 29.4675 8.33873 29.469 8.46951V20.6631C29.469 21.2372 30.2208 21.1506 30.2208 21.1506C32.37 21.1506 33.7003 20.3446 35.1433 17.2052L35.3794 16.6896H36.0533L35.4553 21.6987H24.7307L24.7783 21.4279L25.4695 21.3196C25.5997 21.3097 25.7214 21.2507 25.8099 21.1546C25.8983 21.0585 25.947 20.9324 25.9461 20.8017L25.9418 8.46951Z" fill="white"/>
  <path d="M71.3684 22.0259C70.6418 22.0173 69.948 21.7223 69.4376 21.2051C68.9273 20.6878 68.6417 19.9901 68.6429 19.2634V13.7018H66.5153L67.8369 12.4019H68.2875C68.3818 12.4019 68.4721 12.3644 68.5388 12.2978C68.6054 12.2312 68.6429 12.1408 68.6429 12.0465V10.8874L71.4594 9.95361V12.4062H74.1612L72.9262 13.7061H71.4659V18.9255C71.4659 20.2622 72.4214 20.7476 73.067 20.7476C73.3412 20.7446 73.6111 20.6787 73.8557 20.5547L73.8947 20.5396L74.1612 20.8494C73.392 21.5275 72.6164 22.0259 71.3684 22.0259Z" fill="white"/>
  <path d="M100.544 16.0418L106.339 16.1306C106.361 15.9508 106.365 15.3766 106.357 15.1751C106.292 13.7105 105.273 12.0574 102.611 12.0574C99.6013 12.0574 97.3307 14.2608 97.3307 17.2572C97.3307 19.985 99.3044 22.0237 101.924 22.0237C104.025 22.0237 105.501 21.0877 106.32 19.1877L106.103 19.0013C105.84 19.4096 105.476 19.7434 105.046 19.971C104.617 20.1986 104.136 20.3123 103.651 20.3013C101.774 20.3013 100.546 18.7847 100.524 16.4252C100.523 16.2972 100.53 16.1691 100.544 16.0418ZM100.544 15.3181C100.691 13.4917 101.322 12.6619 102.314 12.6619C102.449 12.6588 102.584 12.6838 102.709 12.7352C102.834 12.7867 102.948 12.8635 103.042 12.9609C103.453 13.379 103.653 14.0442 103.633 15.3008V15.3506L100.542 15.3723L100.544 15.3181Z" fill="white"/>
  <path d="M111.069 16.0418L116.865 16.1306C116.884 15.9508 116.891 15.3766 116.882 15.1751C116.817 13.7105 115.799 12.0574 113.136 12.0574C110.126 12.0574 107.856 14.2608 107.856 17.2572C107.856 19.985 109.83 22.0237 112.449 22.0237C114.551 22.0237 116.026 21.0877 116.845 19.1877L116.628 19.0013C116.367 19.4158 116.002 19.7554 115.57 19.987C115.138 20.2186 114.653 20.3344 114.163 20.3229C112.287 20.3229 111.06 18.8063 111.039 16.4469C111.039 16.3113 111.049 16.1759 111.069 16.0418ZM111.069 15.3181C111.216 13.4917 111.847 12.6619 112.837 12.6619C112.972 12.6584 113.107 12.6832 113.232 12.7347C113.358 12.7861 113.471 12.8632 113.565 12.9609C113.979 13.379 114.176 14.0442 114.156 15.3008V15.3506L111.065 15.3723L111.069 15.3181Z" fill="white"/>
  <path d="M80.2732 15.7428C78.9927 15.251 78.0286 14.8761 78.0286 13.9293C78.0286 13.0627 78.6331 12.5579 79.504 12.5579C79.9329 12.5586 80.3533 12.677 80.7195 12.9002L82.3401 15.2531L82.8948 15.2315L82.7864 12.0531L81.7421 12.3932C81.0228 12.1744 80.2754 12.062 79.5235 12.0596C77.2205 12.0596 75.6843 13.275 75.6843 15.173C75.6843 16.9214 77.006 17.5844 78.6287 18.2062C79.8225 18.6763 80.934 19.0122 80.934 20.2168C80.934 20.9036 80.284 21.5752 79.2267 21.5752C78.1174 21.5752 77.5411 21.0206 76.8175 19.9546L76.2238 18.7197L75.654 18.8583L75.4525 21.3607C76.6459 21.784 77.902 22.0037 79.1682 22.0107C82.026 22.0107 83.3281 20.4941 83.3281 18.8323C83.3216 16.9626 81.7443 16.3451 80.2732 15.7428Z" fill="white"/>
  <path d="M50.6863 19.8896H47.2956C47.093 19.8751 46.903 19.7856 46.7628 19.6386C46.6226 19.4916 46.5422 19.2975 46.5373 19.0944C46.533 18.9884 46.5496 18.8826 46.5863 18.783C46.6229 18.6834 46.6789 18.592 46.751 18.5141C46.823 18.4362 46.9098 18.3733 47.0062 18.329C47.1026 18.2847 47.2069 18.2599 47.3129 18.256H47.3368C47.3829 18.2516 47.4293 18.2516 47.4754 18.256C47.7984 18.3154 48.1263 18.3444 48.4547 18.3426C51.0286 18.3426 52.7727 17.0015 52.7727 15.1101C52.7727 14.5468 52.6796 14.1373 52.3611 13.7798L53.5419 12.6965L53.2559 11.8624L51.2366 12.6943C50.4229 12.2723 49.5187 12.0545 48.6021 12.0595C46.0932 12.0595 44.3902 13.6715 44.3902 15.3722C44.3902 16.839 45.22 17.6493 46.4333 18.074V18.0956C45.1789 18.4575 44.0306 19.3089 44.0306 20.4572C44.0306 21.4777 45.051 22.392 46.3076 22.5415C45.0315 23.0311 43.7749 23.6053 43.7749 24.7319C43.7749 26.1575 45.1355 26.8595 47.8914 26.8595C51.4035 26.8595 53.8929 24.9096 53.8929 22.626C53.895 20.9209 52.5713 19.8896 50.6863 19.8896ZM47.5881 13.2598C47.6816 13.0792 47.8231 12.9279 47.997 12.8224C48.1709 12.7169 48.3705 12.6613 48.5739 12.6618C49.3734 12.6618 49.8739 13.3443 49.8739 15.2856C49.8739 17.2268 49.499 17.8855 48.5739 17.8855C47.7918 17.8855 47.3411 17.112 47.3411 15.2617C47.3454 14.3561 47.3953 13.6801 47.5881 13.2598ZM48.1687 26.1294C46.8298 26.1294 46.0433 25.3407 46.0433 24.1924C46.0433 23.3258 46.988 22.5697 47.8438 22.5697H49.655C51.1716 22.6758 51.8888 23.003 51.8888 24.0863C51.8888 25.2931 49.8934 26.1294 48.1796 26.1294H48.1687Z" fill="white"/>
  <path d="M14.1283 14.6357H7.06525V7.57257L0 0.507324V7.57257V14.6357V21.7009H7.06525H14.1283H21.1936L14.1283 14.6357Z" fill="#ED6D5B"/>
</svg>