<svg xmlns="http://www.w3.org/2000/svg" width="112" height="28" viewBox="0 0 112 28" fill="none">
  <path d="M47.2231 8.28888C46.0002 8.06666 45.5064 7.93332 45.5064 7.62221C45.5064 7.33332 45.7886 7.02221 46.5646 7.02221C47.129 6.99999 47.6699 7.26666 47.9756 7.7111C48.0462 7.79999 48.1638 7.84443 48.2814 7.77777L49.8335 6.97777C49.8805 6.95555 49.9276 6.88888 49.9511 6.84443C49.9746 6.77777 49.9511 6.73332 49.9276 6.66666C49.222 5.66666 48.1403 5.17777 46.5881 5.17777H46.5176C45.5534 5.13332 44.5892 5.46666 43.8837 6.08888C43.4134 6.5111 43.1547 7.08888 43.1312 7.68888C43.1312 9.39999 44.6598 9.88888 46.1648 10.1555L46.2824 10.1778C47.1996 10.3333 47.9051 10.4667 47.9051 10.8444C47.9051 11.1778 47.5523 11.5111 46.7998 11.5111C46.0473 11.5111 45.4828 11.2 45.1771 10.6444C45.1536 10.6 45.1066 10.5555 45.036 10.5333C44.989 10.5111 44.9184 10.5333 44.8714 10.5555L43.1547 11.4444C43.1076 11.4667 43.0606 11.5111 43.0371 11.5778C43.0136 11.6222 43.0371 11.6889 43.0606 11.7333C43.7426 12.8889 44.942 13.4444 46.7057 13.4444H46.7763C48.1638 13.4444 48.9869 12.9333 49.4572 12.5111C49.9511 12.0667 50.2568 11.4222 50.2803 10.7778C50.2803 9.1111 48.8223 8.59999 47.2231 8.28888Z" fill="white"/>
  <path d="M54.9829 8.28888C53.76 8.06666 53.2661 7.93332 53.2661 7.62221C53.2661 7.33332 53.5483 7.02221 54.3244 7.02221C54.8888 6.99999 55.4297 7.26666 55.7354 7.7111C55.806 7.79999 55.9235 7.84443 56.0411 7.77777L57.5932 6.97777C57.6403 6.95555 57.6873 6.88888 57.7108 6.84443C57.7343 6.77777 57.7108 6.73332 57.6873 6.66666C56.9818 5.66666 55.9 5.17777 54.3479 5.17777H54.2774C53.3132 5.13332 52.349 5.46666 51.6435 6.08888C51.1731 6.5111 50.9144 7.08888 50.8909 7.68888C50.8909 9.39999 52.4195 9.88888 53.9246 10.1555L54.0422 10.1778C54.9593 10.3333 55.6649 10.4667 55.6649 10.8444C55.6649 11.1778 55.3121 11.5111 54.5596 11.5111C53.807 11.5111 53.2426 11.2 52.9369 10.6444C52.9134 10.6 52.8663 10.5555 52.7958 10.5333C52.7488 10.5111 52.6782 10.5333 52.6312 10.5555L50.9144 11.4444C50.8674 11.4667 50.8204 11.5111 50.7969 11.5778C50.7733 11.6222 50.7969 11.6889 50.8204 11.7333C51.5024 12.8889 52.7017 13.4444 54.4655 13.4444H54.536C55.9235 13.4444 56.7466 12.9333 57.217 12.5111C57.7108 12.0667 58.0165 11.4222 58.0401 10.7778C58.0401 9.1111 56.582 8.59999 54.9829 8.28888Z" fill="white"/>
  <path d="M86.1666 9.73332V7.39999C86.1666 7.3111 86.2372 7.24443 86.3312 7.24443H87.7423C87.8598 7.24443 87.9539 7.15554 87.9539 7.04443V5.53332C87.9539 5.42221 87.8598 5.33332 87.7423 5.33332H86.3312C86.2372 5.33332 86.1666 5.26665 86.1666 5.17776V2.75554C86.1666 2.64443 86.0725 2.55554 85.955 2.55554C85.9079 2.55554 85.8844 2.55554 85.8609 2.57776L83.8855 3.59999C83.8149 3.64443 83.7679 3.7111 83.7679 3.77776V5.15554C83.7679 5.24443 83.6973 5.3111 83.6033 5.3111H82.7331C82.6156 5.3111 82.5215 5.39999 82.5215 5.5111V7.02221C82.5215 7.13332 82.6156 7.22221 82.7331 7.22221H83.6033C83.6973 7.22221 83.7679 7.28887 83.7679 7.37776V10.2C83.7679 11.8667 85.2024 13.2222 86.9662 13.2222C87.2484 13.2444 87.5306 13.2222 87.8128 13.2C87.9069 13.1778 87.9539 13.1111 87.9539 13.0222V11.1555C87.9539 11.0889 87.9069 11.0444 87.8363 11.0444H87.8128C87.6952 11.0889 87.5776 11.0889 87.4365 11.0889C86.8486 11.0889 86.3548 10.7111 86.2136 10.1778C86.1901 10.0667 86.1666 9.88887 86.1666 9.73332Z" fill="white"/>
  <path d="M91.3636 9.3556V5.51116C91.3636 5.40005 91.2695 5.31116 91.1519 5.31116H89.1765C89.0589 5.31116 88.9648 5.40005 88.9648 5.51116V9.57783C88.9648 10.7112 89.3176 11.6889 89.9761 12.3556C90.6816 13.0445 91.6458 13.4445 92.657 13.4001C93.5271 13.4223 94.3973 13.1556 95.0793 12.6445L95.1263 12.6223V13.0445C95.1263 13.1556 95.2204 13.2445 95.3379 13.2445H97.3134C97.431 13.2445 97.525 13.1556 97.525 13.0445V5.51116C97.525 5.40005 97.431 5.31116 97.3134 5.31116H95.3379C95.2204 5.31116 95.1263 5.40005 95.1263 5.51116V9.31116C95.1263 10.5778 94.4208 11.3334 93.2449 11.3334C92.0456 11.3556 91.3636 10.6223 91.3636 9.3556Z" fill="white"/>
  <path d="M75.3479 9.3556V5.51116C75.3479 5.40005 75.2539 5.31116 75.1363 5.31116H73.1609C73.0433 5.31116 72.9492 5.40005 72.9492 5.51116V9.57783C72.9492 10.7112 73.302 11.6889 73.9604 12.3556C74.666 13.0445 75.6301 13.4445 76.6414 13.4001C77.5115 13.4223 78.3816 13.1556 79.0636 12.6445L79.1107 12.6223V13.0667C79.1107 13.1556 79.1812 13.2223 79.2753 13.2223H81.3448C81.4388 13.2223 81.5094 13.1556 81.5094 13.0667V5.51116C81.5094 5.40005 81.4153 5.31116 81.2977 5.31116H79.3223C79.2047 5.31116 79.1107 5.40005 79.1107 5.51116V9.31116C79.1107 10.5778 78.4051 11.3334 77.2293 11.3334C76.0299 11.3556 75.3479 10.6223 75.3479 9.3556Z" fill="white"/>
  <path d="M111.117 0.955566H109.094C108.977 0.955566 108.883 1.04446 108.883 1.15557V13.0667C108.883 13.1556 108.953 13.2222 109.047 13.2222H111.117C111.211 13.2222 111.282 13.1556 111.282 13.0667V1.13334C111.282 1.04446 111.211 0.955566 111.117 0.955566Z" fill="white"/>
  <path d="M37.5095 7.11109C38.7559 7.11109 39.626 7.99998 39.626 9.24442C39.626 10.5333 38.7324 11.4444 37.5095 11.4444C36.2631 11.4444 35.3459 10.5111 35.3459 9.24442C35.3459 7.99998 36.2396 7.11109 37.5095 7.11109ZM32.9707 9.24442C32.9707 11.7778 34.7815 13.4666 37.4389 13.4C38.2385 13.3778 39.0146 13.0889 39.626 12.6222V13.0222C39.626 13.1333 39.7201 13.2222 39.8376 13.2222H41.8131C41.9307 13.2222 42.0247 13.1333 42.0247 13.0222V5.53331C42.0247 5.4222 41.9307 5.33331 41.8131 5.33331H39.8376C39.7201 5.33331 39.626 5.4222 39.626 5.53331V5.95553L39.579 5.93331C38.9205 5.44442 38.1209 5.19998 37.2743 5.19998C34.711 5.15553 32.9707 6.79998 32.9707 9.24442Z" fill="white"/>
  <path d="M103.05 7.11117C104.297 7.11117 105.167 8.00006 105.167 9.2445C105.167 10.5334 104.273 11.4445 103.05 11.4445C101.804 11.4445 100.887 10.5112 100.887 9.2445C100.887 8.00006 101.781 7.11117 103.05 7.11117ZM98.5117 9.2445C98.5117 11.7778 100.323 13.4667 102.98 13.4001C103.78 13.3778 104.556 13.0889 105.167 12.6223V13.0667C105.167 13.1556 105.238 13.2223 105.332 13.2223H107.401C107.495 13.2223 107.566 13.1556 107.566 13.0667V5.48894C107.566 5.40006 107.495 5.33339 107.401 5.33339H105.332C105.238 5.33339 105.167 5.40006 105.167 5.48894V5.93339L105.12 5.91117C104.462 5.42228 103.662 5.17783 102.815 5.17783C100.228 5.15561 98.5117 6.80006 98.5117 9.2445Z" fill="white"/>
  <path d="M30.0303 1.06668L25.6797 7.15557L21.3055 1.06668C21.2585 1.00001 21.1879 0.955566 21.0938 0.955566H19.5888C19.4477 0.955566 19.3301 1.06668 19.3301 1.20001V13.0222C19.3301 13.1556 19.4477 13.2667 19.5888 13.2667H21.5172C21.6583 13.2667 21.7758 13.1556 21.7758 13.0222V5.77779L25.468 10.9333C25.5386 11.0445 25.7032 11.0667 25.8208 11C25.8443 10.9778 25.8678 10.9556 25.8913 10.9333L29.5835 5.77779V13C29.5835 13.1333 29.7011 13.2445 29.8422 13.2445H31.7705C31.9116 13.2445 32.0292 13.1333 32.0292 13V1.20001C32.0292 1.06668 31.9116 0.955566 31.7705 0.955566H30.2655C30.1479 0.955566 30.0773 1.00001 30.0303 1.06668Z" fill="white"/>
  <path d="M69.6806 1.06668L65.33 7.15557L60.9793 1.06668C60.9323 1.00001 60.8617 0.955566 60.7677 0.955566H59.2626C59.1215 0.955566 59.0039 1.06668 59.0039 1.20001V13.0222C59.0039 13.1556 59.1215 13.2667 59.2626 13.2667H61.191C61.3321 13.2667 61.4497 13.1556 61.4497 13.0222V5.77779L65.1418 10.9333C65.2124 11.0445 65.377 11.0667 65.4946 11C65.5181 10.9778 65.5416 10.9556 65.5651 10.9333L69.2573 5.77779V13C69.2573 13.1333 69.3749 13.2445 69.516 13.2445H71.4444C71.5855 13.2445 71.7031 13.1333 71.7031 13V1.20001C71.7031 1.06668 71.5855 0.955566 71.4444 0.955566H69.9393C69.7982 0.955566 69.7276 1.00001 69.6806 1.06668Z" fill="white"/>
  <path d="M16.2262 11.5777C16.2262 10.5555 15.3561 9.71106 14.2508 9.71106C13.169 9.71106 12.2754 10.5333 12.2754 11.5777C12.2754 12.6222 13.1455 13.4444 14.2508 13.4444C15.3561 13.4444 16.2262 12.5999 16.2262 11.5777Z" fill="white"/>
  <path d="M10.0895 11.5777C10.0895 10.5555 9.21939 9.71106 8.11409 9.71106C7.0088 9.71106 6.13867 10.5333 6.13867 11.5777C6.13867 12.6222 7.0088 13.4444 8.11409 13.4444C9.19587 13.4444 10.0895 12.5999 10.0895 11.5777Z" fill="white"/>
  <path d="M3.92733 11.5777C3.92733 10.5555 3.0572 9.71106 1.95191 9.71106C0.84661 9.71106 0 10.5555 0 11.5777C0 12.5999 0.870127 13.4444 1.97542 13.4444C3.0572 13.4444 3.92733 12.5999 3.92733 11.5777Z" fill="white"/>
  <path d="M13.1696 7.02218C13.1696 5.99996 12.2995 5.15552 11.1942 5.15552C10.0889 5.15552 9.21875 5.97774 9.21875 7.02218C9.21875 8.06663 10.0889 8.88885 11.1942 8.88885C12.276 8.88885 13.1696 8.04441 13.1696 7.02218Z" fill="white"/>
  <path d="M7.00749 7.02218C7.00749 5.99996 6.13736 5.15552 5.03206 5.15552C3.92677 5.15552 3.05664 5.97774 3.05664 7.02218C3.05664 8.06663 3.92677 8.88885 5.03206 8.88885C6.13736 8.88885 7.00749 8.04441 7.00749 7.02218Z" fill="white"/>
  <path d="M22.7874 26.9777C22.5993 26.9777 22.4347 26.8666 22.3876 26.711L19.354 18.5333C19.3069 18.4222 19.354 18.311 19.4715 18.2666C19.4951 18.2666 19.5186 18.2444 19.5421 18.2444H20.3652C20.5533 18.2444 20.7179 18.3555 20.765 18.5111L23.1637 25.0444L25.5624 18.5111C25.633 18.3555 25.7741 18.2444 25.9622 18.2444H26.7853C26.9029 18.2444 26.997 18.3333 26.997 18.4444C26.997 18.4666 26.997 18.4888 26.9734 18.5111L23.9398 26.6888C23.8692 26.8444 23.7281 26.9555 23.54 26.9555L22.7874 26.9777Z" fill="white"/>
  <path d="M30.3612 27.0889C28.3622 27.0889 27.0218 25.7334 27.0218 24C26.9983 22.2889 28.4328 20.8889 30.2201 20.8667C30.2436 20.8667 30.2906 20.8667 30.3141 20.8667C32.1955 20.8667 33.5595 22.1556 33.5595 23.9111V24.1334C33.5595 24.2889 33.4184 24.4223 33.2538 24.4223H28.3152C28.5033 25.3334 29.2559 25.9556 30.3612 25.9556C31.0432 25.9778 31.6781 25.6667 32.0544 25.1334C32.1249 25 32.3131 24.9334 32.4542 25.0223L32.4777 25.0445L33.0421 25.3334C33.1832 25.4223 33.2067 25.5778 33.1362 25.7111C32.5483 26.6223 31.49 27.1334 30.3612 27.0889ZM30.2906 22C29.397 21.9778 28.6209 22.5334 28.3622 23.3334H32.1485C31.9603 22.4889 31.2783 22 30.2906 22Z" fill="white"/>
  <path d="M35.0635 26.9778C34.8989 26.9778 34.7578 26.8445 34.7578 26.6889V21.2889C34.7578 21.1334 34.8989 21 35.0635 21H35.7926C35.9572 21 36.0983 21.1334 36.0983 21.2889V21.8445C36.5686 21.2223 37.3447 20.8667 38.1678 20.8889C39.7904 20.8889 40.8722 21.8667 40.8722 23.5778V26.7111C40.8722 26.8667 40.7311 27 40.5665 27H39.814C39.6493 27 39.5082 26.8667 39.5082 26.7111V23.6667C39.5082 22.6445 38.9438 22 37.862 22C36.9214 22 36.1218 22.6445 36.1218 23.7111V26.6667C36.1218 26.8223 35.9807 26.9556 35.8161 26.9556H35.0635V26.9778Z" fill="white"/>
  <path d="M42.3311 22.1555C42.1665 22.1555 42.0254 22.0222 42.0254 21.8666V21.2889C42.0254 21.1333 42.1665 21 42.3311 21H43.1072V20.1555C43.1072 19.9778 43.2012 19.8222 43.3659 19.7333L44.2125 19.3111C44.283 19.2666 44.4006 19.2889 44.4476 19.3555C44.4712 19.3778 44.4712 19.4222 44.4712 19.4444V21.0222H45.5059C45.6705 21.0222 45.8116 21.1555 45.8116 21.3111V21.8889C45.8116 22.0444 45.6705 22.1778 45.5059 22.1778H44.4712V24.5555C44.4712 25.5333 44.6123 25.7555 45.5059 25.8C45.6705 25.8 45.8116 25.9333 45.8116 26.0889C45.8116 26.0889 45.8116 26.0889 45.8116 26.1111V26.6666C45.8116 26.9111 45.7176 27.0222 45.4354 27.0222C43.6481 27.0222 43.1072 26.3778 43.1072 24.5778V22.1778H42.3311V22.1555Z" fill="white"/>
  <path d="M49.7611 27.0889C48.0444 27.0889 47.0566 26.1111 47.0566 24.4667V21.2667C47.0566 21.1111 47.1977 20.9778 47.3624 20.9778H48.1384C48.303 20.9778 48.4441 21.1111 48.4441 21.2667V24.3556C48.4441 25.3333 48.985 25.9556 50.0668 25.9556C51.0075 25.9556 51.6895 25.3333 51.6895 24.2889V21.2667C51.6895 21.1111 51.8306 20.9778 51.9952 20.9778H52.7477C52.9124 20.9778 53.0535 21.1111 53.0535 21.2667V26.6667C53.0535 26.8222 52.9124 26.9556 52.7477 26.9556H52.0187C51.8541 26.9556 51.713 26.8222 51.713 26.6667V26.1556C51.2427 26.7778 50.5136 27.1111 49.7611 27.0889Z" fill="white"/>
  <path d="M54.7471 26.9778C54.5825 26.9778 54.4414 26.8444 54.4414 26.6889V21.2889C54.4414 21.1333 54.5825 21 54.7471 21H55.4997C55.6643 21 55.8054 21.1333 55.8054 21.2889V21.9556C56.1581 21.3556 56.7696 21 57.6632 21H57.9689C58.1336 21 58.2512 21.1111 58.2512 21.2667V21.9333C58.2512 22.0889 58.11 22.2222 57.9454 22.2222H57.4281C56.2757 22.2222 55.8054 22.7778 55.8054 24.0222V26.7111C55.8054 26.8667 55.6643 27 55.4997 27H54.7471V26.9778Z" fill="white"/>
  <path d="M62.2733 27.0889C60.2743 27.0889 58.9339 25.7334 58.9339 24C58.9104 22.2889 60.3449 20.8889 62.1322 20.8667C62.1557 20.8667 62.2027 20.8667 62.2262 20.8667C64.1076 20.8667 65.4716 22.1556 65.4716 23.9111V24.1334C65.4716 24.2889 65.3305 24.4223 65.1659 24.4223H60.2273C60.4154 25.3334 61.168 25.9556 62.2733 25.9556C62.9553 25.9778 63.5902 25.6667 63.9665 25.1334C64.0371 25 64.2252 24.9334 64.3663 25.0223L64.3898 25.0445L64.9542 25.3334C65.0953 25.4223 65.1188 25.5778 65.0483 25.7111C64.4604 26.6223 63.4021 27.1334 62.2733 27.0889ZM62.2262 22C61.3326 21.9778 60.5565 22.5334 60.2979 23.3334H64.0841C63.8959 22.4889 63.1904 22 62.2262 22Z" fill="white"/>
  <path d="M69.0219 27.0889C67.7755 27.0889 66.9289 26.7111 66.3645 25.9777C66.2704 25.8666 66.3175 25.6889 66.435 25.6222C66.435 25.6222 66.435 25.6222 66.4586 25.6222L67.1406 25.2666C67.3052 25.1777 67.4933 25.2 67.6109 25.3555C67.9872 25.7777 68.528 26 69.116 25.9777C69.892 25.9777 70.3153 25.6222 70.3153 25.2C70.3153 24.7111 69.5628 24.6 68.7397 24.4444C67.6579 24.2444 66.5291 23.9111 66.5291 22.6666C66.5291 21.7111 67.4933 20.8444 68.9984 20.8666C70.0802 20.8666 70.8562 21.2222 71.3971 21.8C71.4912 21.9111 71.4677 22.0666 71.3501 22.1333L71.3266 22.1555L70.7386 22.4666C70.574 22.5555 70.3624 22.5333 70.2683 22.4C69.9391 22.0889 69.4922 21.9111 69.0219 21.9333C68.2694 21.9333 67.9166 22.2666 67.9166 22.6444C67.9166 23.0666 68.4575 23.1777 69.4217 23.3777C70.48 23.6 71.6793 23.9333 71.6793 25.1777C71.6323 26.0889 70.7857 27.1111 69.0219 27.0889Z" fill="white"/>
</svg>