<svg xmlns="http://www.w3.org/2000/svg" width="107" height="12" viewBox="0 0 107 12" fill="none">
  <path d="M7.80521 11.997L2.76396 2.73175V11.997H0V0.000946045H4.33027L8.98726 8.48593L13.6462 0.000946045H17.9179V11.997H15.1345V2.73175L10.1098 11.997H7.80521Z" fill="white"/>
  <path d="M26.6704 11.996H23.8284V0H26.6704V11.996Z" fill="white"/>
  <path d="M32.2172 6.40318H40.7792C42.4372 6.40318 43.3891 5.68147 43.3891 4.43213C43.3891 3.16426 42.4411 2.44157 40.7792 2.44157H32.2172V0.00335693H40.9284C44.0796 0.00335693 46.2067 1.52578 46.2067 4.4136C46.2067 6.55923 44.969 7.98802 42.997 8.53125L46.5373 11.9974H43.2691L40.0009 8.80433H35.0562V11.9974H32.2152L32.2172 6.40318Z" fill="white"/>
  <path d="M58.1907 2.83251L52.6432 12.0002H49.613L56.6097 0.00418091H59.7979L66.7946 12.0002H63.7215L58.1907 2.83251Z" fill="white"/>
  <path d="M85.0043 11.9962H82.492L73.4267 3.6526V11.9981H70.6823V0.00210571H73.5818L82.2404 7.88241V0.00210571H85.0043V11.9962Z" fill="white"/>
  <path d="M97.6078 2.83251L92.0604 12.0002H89.0262L96.0229 0.00418091H99.2112L106.209 12.0002H103.136L97.6078 2.83251Z" fill="white"/>
</svg>