<svg xmlns="http://www.w3.org/2000/svg" width="155" height="26" viewBox="0 0 155 26" fill="none">
  <path d="M39.8906 7.73139C39.8723 7.68661 39.866 7.63782 39.8724 7.58986C39.8787 7.54191 39.8976 7.49645 39.927 7.45802C39.9563 7.41959 39.9953 7.38952 40.0399 7.37079C40.0845 7.35207 40.1332 7.34533 40.1812 7.35127H41.657C41.7227 7.35358 41.7861 7.37637 41.8382 7.41646C41.8903 7.45655 41.9286 7.51194 41.9477 7.57487L43.6246 14.0368H43.6917L46.2631 7.37364C46.2807 7.31769 46.3169 7.26945 46.3657 7.23691C46.4145 7.20437 46.473 7.1895 46.5314 7.19476H46.8221C46.8805 7.1895 46.939 7.20437 46.9878 7.23691C47.0366 7.26945 47.0728 7.31769 47.0904 7.37364L49.6841 14.0368H49.7512L51.4058 7.57487C51.4249 7.51194 51.4632 7.45655 51.5153 7.41646C51.5674 7.37637 51.6308 7.35358 51.6965 7.35127H53.1722C53.2202 7.34533 53.269 7.35207 53.3136 7.37079C53.3582 7.38952 53.3971 7.41959 53.4265 7.45802C53.4559 7.49645 53.4747 7.54191 53.4811 7.58986C53.4875 7.63782 53.4812 7.68661 53.4629 7.73139L50.3996 18.5982C50.3842 18.6632 50.3469 18.7209 50.294 18.7616C50.2411 18.8023 50.1757 18.8236 50.1089 18.8218H49.8406C49.7822 18.8271 49.7237 18.8122 49.6749 18.7796C49.6261 18.7471 49.5899 18.6989 49.5723 18.6429L46.7103 11.3313H46.6208L43.7588 18.6653C43.7383 18.7193 43.7014 18.7657 43.6533 18.7977C43.6052 18.8298 43.5483 18.846 43.4905 18.8442H43.2222C43.1554 18.846 43.09 18.8247 43.0371 18.784C42.9842 18.7433 42.9469 18.6856 42.9315 18.6206L39.8906 7.73139Z" fill="white"/>
  <path d="M56.6825 7.66427C56.6882 7.58314 56.723 7.50679 56.7805 7.44928C56.8381 7.39177 56.9144 7.35695 56.9955 7.35123H58.4936C58.5748 7.35695 58.6511 7.39177 58.7086 7.44928C58.7661 7.50679 58.8009 7.58314 58.8067 7.66427V18.3746C58.8009 18.4557 58.7661 18.532 58.7086 18.5895C58.6511 18.647 58.5748 18.6819 58.4936 18.6876H56.9955C56.9144 18.6819 56.8381 18.647 56.7805 18.5895C56.723 18.532 56.6882 18.4557 56.6825 18.3746V7.66427Z" fill="white"/>
  <path d="M63.1223 7.48538C63.1289 7.40667 63.1647 7.33327 63.2226 7.27952C63.2805 7.22577 63.3563 7.19553 63.4353 7.1947H63.8378L70.5681 14.3498H70.5904V7.66426C70.5921 7.58177 70.6257 7.50314 70.684 7.4448C70.7423 7.38646 70.821 7.35293 70.9035 7.35122H72.3792C72.4603 7.35694 72.5367 7.39176 72.5942 7.44927C72.6517 7.50678 72.6865 7.58312 72.6922 7.66426V18.5534C72.6856 18.6321 72.6498 18.7055 72.5919 18.7593C72.534 18.813 72.4582 18.8433 72.3792 18.8441H71.9767L65.2241 11.4207H65.2017V18.3745C65.2 18.457 65.1665 18.5357 65.1081 18.594C65.0498 18.6523 64.9712 18.6859 64.8887 18.6876H63.413C63.3318 18.6819 63.2555 18.647 63.198 18.5895C63.1405 18.532 63.1056 18.4557 63.0999 18.3745L63.1223 7.48538Z" fill="white"/>
  <path d="M78.4838 9.29652H76.0019C75.9194 9.29481 75.8408 9.26128 75.7824 9.20294C75.7241 9.1446 75.6906 9.06597 75.6888 8.98349V7.66427C75.6906 7.58178 75.7241 7.50315 75.7824 7.44481C75.8408 7.38647 75.9194 7.35294 76.0019 7.35123H83.0675C83.15 7.35294 83.2287 7.38647 83.287 7.44481C83.3453 7.50315 83.3789 7.58178 83.3806 7.66427V8.98349C83.3789 9.06597 83.3453 9.1446 83.287 9.20294C83.2287 9.26128 83.15 9.29481 83.0675 9.29652H80.5856V18.3746C80.5799 18.4557 80.5451 18.532 80.4876 18.5895C80.43 18.647 80.3537 18.6819 80.2726 18.6876H78.7745C78.6933 18.6819 78.617 18.647 78.5595 18.5895C78.502 18.532 78.4672 18.4557 78.4614 18.3746V9.29652H78.4838Z" fill="white"/>
  <path d="M86.3979 7.66427C86.3996 7.58178 86.4331 7.50315 86.4915 7.44481C86.5498 7.38647 86.6284 7.35294 86.7109 7.35123H93.2847C93.3672 7.35294 93.4458 7.38647 93.5041 7.44481C93.5625 7.50315 93.596 7.58178 93.5977 7.66427V8.98349C93.596 9.06597 93.5625 9.1446 93.5041 9.20294C93.4458 9.26128 93.3672 9.29481 93.2847 9.29652H88.4997V11.9573H92.5021C92.5832 11.963 92.6596 11.9979 92.7171 12.0554C92.7746 12.1129 92.8094 12.1892 92.8151 12.2704V13.6119C92.8134 13.6944 92.7799 13.7731 92.7215 13.8314C92.6632 13.8897 92.5846 13.9233 92.5021 13.925H88.4997V16.7647H93.2847C93.3672 16.7664 93.4458 16.7999 93.5041 16.8582C93.5625 16.9166 93.596 16.9952 93.5977 17.0777V18.3969C93.596 18.4794 93.5625 18.558 93.5041 18.6164C93.4458 18.6747 93.3672 18.7082 93.2847 18.71H86.7109C86.6284 18.7082 86.5498 18.6747 86.4915 18.6164C86.4331 18.558 86.3996 18.4794 86.3979 18.3969V7.66427Z" fill="white"/>
  <path d="M97.3773 7.66433C97.379 7.58185 97.4125 7.50321 97.4708 7.44488C97.5292 7.38654 97.6078 7.353 97.6903 7.35129H102.319C102.778 7.34657 103.234 7.43251 103.661 7.60418C104.087 7.77585 104.476 8.0299 104.804 8.35178C105.132 8.67367 105.393 9.05709 105.573 9.4801C105.753 9.90311 105.847 10.3574 105.852 10.817C105.852 12.2928 104.868 13.5226 103.459 14.0816L105.673 18.1957C105.702 18.2427 105.719 18.2969 105.72 18.3525C105.721 18.408 105.707 18.4628 105.68 18.5111C105.652 18.5593 105.612 18.5992 105.563 18.6263C105.515 18.6535 105.46 18.667 105.404 18.6653H103.705C103.65 18.6665 103.596 18.6525 103.549 18.6249C103.501 18.5972 103.463 18.5571 103.437 18.5088L101.29 14.2157H99.5014V18.3299C99.4957 18.411 99.4609 18.4874 99.4034 18.5449C99.3459 18.6024 99.2695 18.6372 99.1884 18.6429H97.6903C97.6078 18.6412 97.5292 18.6077 97.4708 18.5494C97.4125 18.491 97.379 18.4124 97.3773 18.3299V7.66433ZM102.118 12.494C102.548 12.4818 102.957 12.3022 103.258 11.9932C103.559 11.6843 103.727 11.2704 103.727 10.8394C103.716 10.4202 103.541 10.0221 103.24 9.72983C102.94 9.43752 102.537 9.27406 102.118 9.27422H99.4791V12.494H102.118Z" fill="white"/>
  <path d="M110.635 7.41831C110.643 7.34773 110.677 7.28272 110.731 7.23689C110.785 7.19105 110.855 7.16793 110.926 7.17235H111.194C111.249 7.16956 111.304 7.18287 111.352 7.21067C111.399 7.23847 111.438 7.27954 111.463 7.32887L115.018 14.9535H115.063L118.618 7.32887C118.642 7.27954 118.681 7.23847 118.729 7.21067C118.776 7.18287 118.831 7.16956 118.886 7.17235H119.154C119.225 7.16793 119.295 7.19105 119.349 7.23689C119.403 7.28272 119.438 7.34773 119.445 7.41831L121.346 18.2851C121.36 18.3299 121.363 18.3773 121.355 18.4235C121.346 18.4697 121.327 18.5132 121.299 18.5505C121.27 18.5877 121.233 18.6176 121.191 18.6375C121.148 18.6575 121.102 18.667 121.055 18.6652H119.602C119.531 18.6587 119.464 18.6321 119.409 18.5884C119.353 18.5448 119.311 18.4861 119.289 18.4193L118.327 12.2927H118.282L115.443 18.6429C115.422 18.6969 115.385 18.7433 115.337 18.7753C115.289 18.8074 115.232 18.8236 115.174 18.8217H114.906C114.848 18.8236 114.791 18.8074 114.743 18.7753C114.695 18.7433 114.658 18.6969 114.638 18.6429L111.776 12.2927H111.731L110.792 18.4193C110.774 18.4849 110.737 18.5436 110.685 18.5875C110.633 18.6314 110.569 18.6585 110.501 18.6652H109.048C109.001 18.6659 108.954 18.6559 108.911 18.6361C108.868 18.6162 108.83 18.5869 108.8 18.5504C108.77 18.5139 108.748 18.4711 108.737 18.4252C108.726 18.3793 108.725 18.3314 108.735 18.2851L110.635 7.41831Z" fill="white"/>
  <path d="M124.7 7.66427C124.706 7.58314 124.741 7.50679 124.798 7.44928C124.856 7.39177 124.932 7.35695 125.013 7.35123H126.556C126.638 7.35294 126.717 7.38647 126.775 7.44481C126.834 7.50315 126.867 7.58178 126.869 7.66427V14.2827C126.869 15.6467 127.808 16.7423 129.217 16.7423C130.625 16.7423 131.587 15.669 131.587 14.3051V7.68662C131.589 7.60414 131.622 7.52551 131.68 7.46717C131.739 7.40884 131.817 7.3753 131.9 7.37359H133.443C133.524 7.37931 133.6 7.41413 133.658 7.47164C133.715 7.52916 133.75 7.60549 133.756 7.68662V14.4169C133.756 15.6118 133.281 16.7578 132.436 17.6027C131.591 18.4477 130.445 18.9224 129.25 18.9224C128.055 18.9224 126.909 18.4477 126.064 17.6027C125.219 16.7578 124.745 15.6118 124.745 14.4169V7.66427H124.7Z" fill="white"/>
  <path d="M139.435 9.29652H136.953C136.871 9.29481 136.792 9.26128 136.734 9.20294C136.675 9.1446 136.642 9.06597 136.64 8.98349V7.66427C136.642 7.58178 136.675 7.50315 136.734 7.44481C136.792 7.38647 136.871 7.35294 136.953 7.35123H144.019C144.101 7.35294 144.18 7.38647 144.238 7.44481C144.297 7.50315 144.33 7.58178 144.332 7.66427V8.98349C144.33 9.06597 144.297 9.1446 144.238 9.20294C144.18 9.26128 144.101 9.29481 144.019 9.29652H141.537V18.3746C141.535 18.457 141.502 18.5357 141.443 18.594C141.385 18.6523 141.306 18.6859 141.224 18.6876H139.726C139.645 18.6819 139.568 18.647 139.511 18.5895C139.453 18.532 139.419 18.4557 139.413 18.3746V9.29652H139.435Z" fill="white"/>
  <path d="M147.351 7.66427C147.353 7.58178 147.386 7.50315 147.445 7.44481C147.503 7.38647 147.582 7.35294 147.664 7.35123H154.238C154.32 7.35294 154.399 7.38647 154.457 7.44481C154.516 7.50315 154.549 7.58178 154.551 7.66427V8.98349C154.549 9.06597 154.516 9.1446 154.457 9.20294C154.399 9.26128 154.32 9.29481 154.238 9.29652H149.453V11.9573H153.455C153.536 11.963 153.613 11.9979 153.67 12.0554C153.728 12.1129 153.763 12.1892 153.768 12.2704V13.6119C153.769 13.6533 153.762 13.6944 153.746 13.7328C153.731 13.7712 153.708 13.8061 153.679 13.8353C153.649 13.8646 153.615 13.8876 153.576 13.903C153.538 13.9184 153.497 13.9259 153.455 13.925H149.453V16.7647H154.238C154.32 16.7664 154.399 16.7999 154.457 16.8582C154.516 16.9166 154.549 16.9952 154.551 17.0777V18.3969C154.549 18.4794 154.516 18.558 154.457 18.6164C154.399 18.6747 154.32 18.7082 154.238 18.71H147.664C147.582 18.7082 147.503 18.6747 147.445 18.6164C147.386 18.558 147.353 18.4794 147.351 18.3969V7.66427Z" fill="white"/>
  <path d="M0.00059279 16.8094V17.0777C-0.000868302 17.0899 0.00037976 17.1022 0.00424599 17.1138C0.00811223 17.1254 0.014501 17.136 0.022953 17.1448C0.022953 17.1672 0.0453123 17.1895 0.0453123 17.2119C0.0453123 17.2342 0.0676725 17.2566 0.0676725 17.279C0.0700355 17.2959 0.0778894 17.3116 0.0900319 17.3237C0.112392 17.346 0.112392 17.3684 0.134751 17.3684C0.157111 17.3684 0.157111 17.4131 0.179471 17.4131L0.22419 17.4578L0.268909 17.5026C0.291269 17.5249 0.313628 17.5249 0.335988 17.5473C0.358348 17.5696 0.358348 17.5696 0.380708 17.5696L16.1666 25.4626H16.189C16.1919 25.4626 16.1948 25.4632 16.1976 25.4643C16.2003 25.4654 16.2027 25.4671 16.2048 25.4692C16.2069 25.4712 16.2085 25.4737 16.2097 25.4764C16.2108 25.4791 16.2114 25.482 16.2114 25.485H16.2337C16.2561 25.485 16.2561 25.485 16.2784 25.5073H16.6809C16.7033 25.5073 16.7033 25.5073 16.7256 25.485H16.748C16.7539 25.485 16.7596 25.4826 16.7638 25.4784C16.768 25.4742 16.7704 25.4685 16.7704 25.4626H16.7927L32.5787 17.5696C32.601 17.5696 32.601 17.5473 32.6234 17.5473C32.6457 17.5473 32.6681 17.5249 32.6905 17.5026L32.7352 17.4578L32.7799 17.4131L32.8246 17.3684C32.847 17.346 32.847 17.3237 32.8693 17.3237C32.8821 17.3121 32.8901 17.2961 32.8917 17.279C32.8917 17.2566 32.9141 17.2342 32.9141 17.2119C32.9141 17.1895 32.9364 17.1672 32.9364 17.1448C32.9349 17.1327 32.9362 17.1204 32.9401 17.1088C32.9439 17.0972 32.9503 17.0866 32.9588 17.0777V16.8094C32.9588 16.787 32.9364 16.7647 32.9364 16.7423C32.9364 16.72 32.9141 16.6976 32.9141 16.6752V16.6529L25.0211 0.86695C25.0211 0.86102 25.0187 0.855333 25.0145 0.85114C25.0103 0.846946 25.0047 0.844589 24.9987 0.844589C24.982 0.798527 24.9505 0.759247 24.9093 0.732791L24.8869 0.710433C24.8554 0.674035 24.8175 0.643718 24.7751 0.620992C24.7528 0.620992 24.7528 0.598635 24.7304 0.598635C24.708 0.598635 24.6633 0.553912 24.6186 0.553912C24.5739 0.553912 24.5962 0.553914 24.5739 0.531555C24.5239 0.513214 24.4705 0.505594 24.4174 0.509194H24.395C24.3563 0.503361 24.3167 0.511273 24.2832 0.531555C24.2609 0.531555 24.2609 0.531553 24.2385 0.553912C24.2212 0.554244 24.2042 0.558431 24.1887 0.566168C24.1732 0.573904 24.1597 0.584997 24.1491 0.598635H24.1267C24.1043 0.598635 24.1043 0.620992 24.082 0.620992C24.0596 0.620992 24.0373 0.643351 24.0149 0.665711L23.9702 0.710433L23.9255 0.755152L23.8807 0.79987C23.8584 0.82223 23.8584 0.844589 23.836 0.844589C23.8233 0.856195 23.8153 0.872139 23.8137 0.889308C23.8137 0.911667 23.7913 0.934028 23.7913 0.956387C23.7913 0.978747 23.7689 1.00111 23.7689 1.02347C23.7704 1.03561 23.7692 1.04792 23.7653 1.05952C23.7614 1.07112 23.755 1.08171 23.7466 1.09055V15.4007L16.9716 8.62576C16.9389 8.59061 16.9013 8.56047 16.8598 8.53632C16.8374 8.53632 16.8374 8.51396 16.8151 8.51396C16.7927 8.51396 16.7704 8.4916 16.748 8.46924C16.7256 8.44688 16.7033 8.44689 16.6809 8.44689C16.6586 8.44689 16.6362 8.42453 16.6138 8.42453C16.5915 8.42453 16.5244 8.40216 16.4797 8.40216C16.4338 8.39864 16.3878 8.40631 16.3455 8.42453C16.3232 8.42453 16.3008 8.44689 16.2784 8.44689C16.2561 8.44689 16.2337 8.46924 16.2114 8.46924C16.189 8.46924 16.1666 8.4916 16.1443 8.51396C16.1219 8.53632 16.1219 8.53632 16.0996 8.53632C16.0571 8.55905 16.0193 8.58936 15.9878 8.62576L9.21278 15.4007V1.09055C9.21425 1.07841 9.213 1.0661 9.20913 1.0545C9.20527 1.0429 9.19888 1.0323 9.19042 1.02347C9.19042 1.00111 9.16806 0.978747 9.16806 0.956387C9.16806 0.934028 9.14571 0.911667 9.14571 0.889308C9.14334 0.872357 9.13549 0.85665 9.12335 0.844589C9.10099 0.822229 9.10099 0.79987 9.07863 0.79987C9.05627 0.79987 9.05627 0.755152 9.03391 0.755152L8.98919 0.710433L8.94447 0.665711C8.92211 0.643351 8.89975 0.643352 8.87739 0.620992C8.85503 0.598632 8.85503 0.598635 8.83267 0.598635H8.81031C8.78795 0.576275 8.74323 0.576272 8.72087 0.553912C8.69851 0.531553 8.69851 0.553914 8.67615 0.531555C8.65379 0.509195 8.60907 0.509194 8.56435 0.509194H8.54199C8.48883 0.505594 8.4355 0.513214 8.38548 0.531555C8.36312 0.531555 8.36312 0.531553 8.34076 0.553912C8.3184 0.576272 8.25132 0.576275 8.22896 0.598635C8.2066 0.620994 8.2066 0.620992 8.18424 0.620992C8.14277 0.64514 8.1051 0.67528 8.07244 0.710433L8.05008 0.732791C8.02772 0.77751 7.983 0.79987 7.96064 0.844589C7.96064 0.850519 7.95829 0.856206 7.95409 0.860399C7.9499 0.864593 7.94421 0.86695 7.93828 0.86695L0.0453123 16.6529V16.6752C0.0453123 16.6976 0.022953 16.72 0.022953 16.7423C0.022953 16.7647 0.00059279 16.787 0.00059279 16.8094ZM8.25132 17.6144L13.081 22.444L3.42163 17.6144H8.25132ZM24.5739 17.6144H29.4036L19.7442 22.444L24.5739 17.6144ZM24.9764 16.2951V3.95259L31.1476 16.2951H24.9764ZM17.0834 23.249V10.6381L23.3888 16.9436L17.0834 23.249ZM15.7642 23.249L9.45874 16.9436L15.7642 10.6381V23.249ZM1.69993 16.2951L7.8712 3.95259V16.2951H1.69993Z" fill="#A3EC26"/>
</svg>