<svg width="130" height="26" viewBox="0 0 130 26" fill="none" xmlns="http://www.w3.org/2000/svg">
<path d="M7.95069 10.9254L12.9999 5.87639L18.0518 10.9281L20.9898 7.9901L12.9999 0L5.0127 7.98743L7.95069 10.9254Z" fill="#ADADAD"/>
<path d="M5.87593 12.9997L2.93799 10.0618L-9.82385e-05 12.9999L2.93784 15.9378L5.87593 12.9997Z" fill="#ADADAD"/>
<path d="M7.95061 15.0746L12.9998 20.1236L18.0515 15.0721L20.9912 18.0085L20.9897 18.0101L12.9998 26L5.01241 18.0128L5.0083 18.0087L7.95061 15.0746Z" fill="#ADADAD"/>
<path d="M23.0624 15.9391L26.0005 13.001L23.0625 10.063L20.1245 13.0011L23.0624 15.9391Z" fill="#ADADAD"/>
<path d="M15.9799 12.9984H15.9812L12.9998 10.0171L10.7966 12.2203H10.7964L10.5434 12.4735L10.0212 12.9957L10.0171 12.9998L10.0212 13.0042L12.9998 15.9828L15.9812 13.0015L15.9826 12.9998L15.9799 12.9984Z" fill="#ADADAD"/>
<path d="M30.5806 6.30005H36.9706C38.5565 6.30005 39.7558 6.70706 40.5685 7.52108C41.1975 8.15152 41.5119 8.93289 41.5119 9.86498V9.90441C41.5119 10.2983 41.4633 10.6464 41.3653 10.9482C41.2676 11.2505 41.137 11.5226 40.9737 11.7655C40.8109 12.0087 40.6215 12.222 40.4063 12.4056C40.1909 12.5896 39.9595 12.7473 39.7116 12.8783C40.5088 13.1806 41.1364 13.5907 41.5939 14.1094C42.0512 14.6284 42.2802 15.3473 42.2802 16.2663V16.3055C42.2802 16.9359 42.159 17.4873 41.9165 17.9602C41.674 18.4327 41.3265 18.8268 40.8741 19.142C40.4217 19.4572 39.8777 19.6934 39.242 19.8511C38.6062 20.0086 37.9016 20.0873 37.1285 20.0873H30.5806V6.30005ZM36.3317 11.874C37.0016 11.874 37.5334 11.7594 37.9271 11.5294C38.321 11.2996 38.5179 10.9285 38.5179 10.4166V10.3771C38.5179 9.91776 38.347 9.56661 38.0057 9.32347C37.6642 9.08053 37.1718 8.95897 36.5286 8.95897H33.5348V11.874H36.3317ZM37.1394 17.4286C37.809 17.4286 38.3339 17.3074 38.715 17.0643C39.0958 16.8213 39.2863 16.4437 39.2863 15.9315V15.8923C39.2863 15.4327 39.1089 15.0684 38.7545 14.799C38.3998 14.5302 37.8287 14.3955 37.0408 14.3955H33.5348V17.4288H37.1394V17.4286Z" fill="#ADADAD"/>
<path d="M46.0859 6.30005H49.1194V20.0877H46.0859V6.30005Z" fill="#ADADAD"/>
<path d="M53.7139 6.30005H56.5104L62.971 14.7894V6.30005H65.9648V20.0877H63.3848L56.7075 11.3228V20.0877H53.7139V6.30005Z" fill="#ADADAD"/>
<path d="M75.1482 6.20166H77.9449L83.8542 20.0877H80.6829L79.4222 16.9954H73.5921L72.3316 20.0877H69.2388L75.1482 6.20166ZM78.339 14.3164L76.5071 9.84545L74.6757 14.3164H78.339Z" fill="#ADADAD"/>
<path d="M87.1284 6.30005H89.9255L96.3857 14.7894V6.30005H99.3796V20.0877H96.7995L90.1223 11.3228V20.0877H87.1284V6.30005Z" fill="#ADADAD"/>
<path d="M110.296 20.3239C109.285 20.3239 108.346 20.1399 107.479 19.7725C106.613 19.4051 105.864 18.9026 105.234 18.2656C104.604 17.6288 104.111 16.877 103.757 16.0104C103.402 15.1436 103.225 14.2179 103.225 13.233V13.1938C103.225 12.2089 103.402 11.2867 103.757 10.4265C104.111 9.56643 104.604 8.81135 105.234 8.16141C105.864 7.51146 106.619 6.99911 107.499 6.62495C108.378 6.2508 109.351 6.06372 110.414 6.06372C111.057 6.06372 111.645 6.1165 112.177 6.22123C112.709 6.32657 113.191 6.47073 113.625 6.65452C114.058 6.83852 114.458 7.06174 114.826 7.32418C115.193 7.58703 115.535 7.87576 115.85 8.19098L113.92 10.4166C113.381 9.93094 112.833 9.5498 112.275 9.27422C111.717 8.99863 111.09 8.86063 110.394 8.86063C109.817 8.86063 109.281 8.97235 108.789 9.19557C108.297 9.41879 107.873 9.72723 107.519 10.1211C107.164 10.515 106.889 10.9715 106.691 11.49C106.495 12.0089 106.396 12.5636 106.396 13.1544V13.1936C106.396 13.7844 106.495 14.3428 106.691 14.8676C106.889 15.3931 107.16 15.8525 107.509 16.2464C107.857 16.6402 108.277 16.9524 108.769 17.1822C109.262 17.4122 109.804 17.5268 110.394 17.5268C111.183 17.5268 111.848 17.3824 112.393 17.0935C112.938 16.8049 113.48 16.4109 114.018 15.9117L115.949 17.8617C115.594 18.2426 115.226 18.5841 114.846 18.8858C114.465 19.1881 114.048 19.4472 113.595 19.6641C113.142 19.8805 112.646 20.045 112.108 20.1563C111.569 20.2678 110.965 20.3239 110.296 20.3239Z" fill="#ADADAD"/>
<path d="M119.519 6.30005H129.899V8.9986H122.513V11.7955H129.012V14.4939H122.513V17.3893H129.998V20.0877H119.519V6.30005Z" fill="#ADADAD"/>
</svg>
