<svg width="96" height="24" viewBox="0 0 96 24" fill="none" xmlns="http://www.w3.org/2000/svg">
<path d="M48.8516 17.4286V0H52.3923V17.4286H48.8516Z" fill="#ADADAD"/>
<path d="M7.59061 22.6054H0V5.17676H7.28472C10.8254 5.17676 12.8881 7.0855 12.8881 10.0726C12.8881 12.0065 11.564 13.2548 10.6463 13.6706C11.742 14.1599 13.1427 15.2612 13.1427 17.5867C13.1427 20.8436 10.8254 22.6054 7.59061 22.6054ZM7.00395 8.21315H3.53966V12.228H7.00395C8.50722 12.228 9.34732 11.4206 9.34732 10.2206C9.34732 9.02054 8.50722 8.21315 7.00395 8.21315ZM7.23337 15.2875H3.53966V19.5711H7.23337C8.83828 19.5711 9.60188 18.5915 9.60188 17.4167C9.60188 16.2418 8.83828 15.2875 7.23337 15.2875Z" fill="#ADADAD"/>
<path d="M23.9416 15.4575V22.6054H20.427V15.4575L14.9766 5.17676H18.8221L22.2099 12.2017L25.5464 5.17676H29.392L23.9416 15.4575Z" fill="#ADADAD"/>
<path d="M39.4285 22.6054H31.8379V5.17676H39.1226C42.6633 5.17676 44.726 7.0855 44.726 10.0726C44.726 12.0065 43.4019 13.2548 42.4842 13.6706C43.5799 14.1599 44.9806 15.2612 44.9806 17.5867C44.9806 20.8436 42.6623 22.6054 39.4285 22.6054ZM38.8418 8.21315H35.3776V12.228H38.8418C40.3451 12.228 41.1852 11.4206 41.1852 10.2206C41.1852 9.02054 40.3451 8.21315 38.8418 8.21315ZM39.0712 15.2875H35.3776V19.5711H39.0712C40.6762 19.5711 41.4398 18.5915 41.4398 17.4167C41.4398 16.2418 40.6762 15.2875 39.0712 15.2875Z" fill="#ADADAD"/>
<path d="M63.8012 8.21209V22.6054H60.2604V8.21209H55.5234V5.17676H68.5393V8.21209H63.8012Z" fill="#ADADAD"/>
<path d="M78.2867 9.47724L76.5146 6.83772V9.47724H75.6406V5.17676H76.4196L78.1916 7.80995V5.17676H79.0655V9.47724H78.2867Z" fill="#ADADAD"/>
<path d="M80.5619 8.14956C80.5619 8.5538 80.8197 8.84982 81.2786 8.84982C81.6369 8.84982 81.8128 8.75328 82.0203 8.55381L82.5163 9.01886C82.1832 9.3391 81.8631 9.51443 81.272 9.51443C80.4985 9.51443 79.7578 9.17636 79.7578 7.90178C79.7578 6.87496 80.3357 6.29541 81.1847 6.29541C82.0957 6.29541 82.6114 6.93586 82.6114 7.79889V8.14956H80.5619ZM81.7309 7.27393C81.6424 7.08704 81.4611 6.9474 81.1847 6.9474C80.9082 6.9474 80.7258 7.08599 80.6384 7.27393C80.5881 7.38837 80.5695 7.47341 80.563 7.612H81.8074C81.7997 7.47341 81.7811 7.38837 81.7309 7.27393Z" fill="#ADADAD"/>
<path d="M85.125 9.47558L84.5219 8.53378L83.9243 9.47558H82.9443L84.0751 7.86921L82.988 6.32898H83.968L84.5208 7.22876L85.0802 6.32898H86.0597L84.9731 7.86921L86.1041 9.47558H85.125Z" fill="#ADADAD"/>
<path d="M87.7921 9.47776C87.1256 9.47776 86.8432 9.02531 86.8432 8.57801V7.01994H86.4976V6.42254H86.8432V5.49231H87.6599V6.42254H88.2384V7.01994H87.6599V8.52974C87.6599 8.71137 87.7486 8.81324 87.9432 8.81324H88.2384V9.47776H87.7921Z" fill="#ADADAD"/>
<path d="M75.6406 16.1001V11.7997H76.5146V15.3515H78.5445V16.1001H75.6406Z" fill="#ADADAD"/>
<path d="M79.8315 14.7725C79.8315 15.1767 80.0893 15.4728 80.5481 15.4728C80.9065 15.4728 81.0823 15.3762 81.2899 15.1767L81.7859 15.6418C81.4527 15.962 81.1326 16.1374 80.5416 16.1374C79.7681 16.1374 79.0273 15.7993 79.0273 14.5247C79.0273 13.4979 79.6053 12.9183 80.4542 12.9183C81.3653 12.9183 81.8809 13.5587 81.8809 14.4217V14.7725H79.8315ZM81.0004 13.8968C80.9119 13.7099 80.7306 13.5703 80.4542 13.5703C80.1778 13.5703 79.9953 13.7089 79.9079 13.8968C79.8577 14.0113 79.8391 14.0964 79.8326 14.2349H81.0769C81.0703 14.0964 81.0507 14.0113 81.0004 13.8968Z" fill="#ADADAD"/>
<path d="M83.9875 16.1016H83.3463L82.1401 12.9551H83.001L83.6674 14.8995L84.3273 12.9551H85.1882L83.9875 16.1016Z" fill="#ADADAD"/>
<path d="M86.1281 14.7725C86.1281 15.1767 86.3858 15.4728 86.8441 15.4728C87.2025 15.4728 87.3783 15.3762 87.5865 15.1767L88.0823 15.6418C87.7487 15.962 87.4287 16.1374 86.8381 16.1374C86.0641 16.1374 85.3237 15.7993 85.3237 14.5247C85.3237 13.4979 85.902 12.9183 86.7502 12.9183C87.6616 12.9183 88.1771 13.5587 88.1771 14.4217V14.7725H86.1281ZM87.2964 13.8968C87.2085 13.7099 87.0267 13.5703 86.7502 13.5703C86.4737 13.5703 86.292 13.7089 86.2041 13.8968C86.1537 14.0113 86.1358 14.0964 86.129 14.2349H87.3732C87.3655 14.0964 87.3467 14.0113 87.2964 13.8968Z" fill="#ADADAD"/>
<path d="M89.7249 16.1001C89.0525 16.1001 88.77 15.6476 88.77 15.2004V11.7997H89.5876V15.152C89.5876 15.3389 89.6695 15.4355 89.8768 15.4355H90.1917V16.1001H89.7249Z" fill="#ADADAD"/>
<path d="M77.3521 19.1737V22.7255H76.478V19.1737H75.3091V18.425H78.521V19.1737H77.3521Z" fill="#ADADAD"/>
<path d="M80.8289 20.4372C80.7033 20.3165 80.5962 20.2503 80.3951 20.2503C80.1439 20.2503 79.8675 20.4319 79.8675 20.8299V22.726H79.0503V19.5794H79.8489V19.8818C80.0062 19.7001 80.3198 19.5437 80.6726 19.5437C80.9927 19.5437 81.2189 19.6225 81.4461 19.8398L80.8289 20.4372Z" fill="#ADADAD"/>
<path d="M83.5225 22.7256V22.4537C83.3029 22.6648 83.0954 22.7561 82.7184 22.7561C82.3481 22.7561 82.0771 22.6658 81.8827 22.4779C81.7068 22.3025 81.6128 22.0495 81.6128 21.7713C81.6128 21.2705 81.9711 20.8589 82.7316 20.8589H83.5051V20.7014C83.5051 20.3571 83.3292 20.2059 82.8954 20.2059C82.5808 20.2059 82.4366 20.2783 82.2672 20.4652L81.7461 19.9759C82.0662 19.6378 82.3808 19.5413 82.9271 19.5413C83.8448 19.5413 84.3223 19.9161 84.3223 20.652V22.7236H83.5225V22.7256ZM83.504 21.3965H82.8561C82.5611 21.3965 82.3972 21.5298 82.3972 21.7524C82.3972 21.9697 82.548 22.1146 82.8681 22.1146C83.0942 22.1146 83.2385 22.0968 83.3838 21.9634C83.4723 21.8847 83.5028 21.7576 83.5028 21.5645V21.3965H83.504Z" fill="#ADADAD"/>
<path d="M86.7606 22.7255V22.4295C86.5345 22.6709 86.2956 22.7612 85.9499 22.7612C85.6299 22.7612 85.3287 22.652 85.1462 22.4777C84.8196 22.1638 84.813 21.62 84.813 21.1485C84.813 20.6772 84.8196 20.1395 85.1462 19.8257C85.3287 19.6504 85.624 19.5422 85.9448 19.5422C86.2776 19.5422 86.5294 19.6272 86.7436 19.8561V18.425H87.5603V22.7255H86.7606ZM86.1829 20.2488C85.6922 20.2488 85.6299 20.6351 85.6299 21.1485C85.6299 21.6619 85.6939 22.0546 86.1829 22.0546C86.6736 22.0546 86.7427 21.6619 86.7427 21.1485C86.7427 20.6351 86.6727 20.2488 86.1829 20.2488Z" fill="#ADADAD"/>
<path d="M88.3374 19.0392V18.3987H89.1729V19.0392H88.3374ZM88.3493 22.7233V19.5767H89.166V22.7233H88.3493Z" fill="#ADADAD"/>
<path d="M91.7315 22.7246V20.8221C91.7315 20.3938 91.449 20.2489 91.1905 20.2489C90.9328 20.2489 90.6443 20.3938 90.6443 20.8221V22.7246H89.8276V19.578H90.6264V19.8678C90.8397 19.6504 91.1418 19.5413 91.4431 19.5413C91.7699 19.5413 92.0345 19.6441 92.2171 19.8194C92.4808 20.0736 92.5499 20.3686 92.5499 20.713V22.7246H91.7315Z" fill="#ADADAD"/>
<path d="M94.5595 23.9152C94.0569 23.9152 93.7104 23.8186 93.3716 23.5047L93.8811 23.0091C94.0628 23.1782 94.2455 23.2507 94.5219 23.2507C95.0126 23.2507 95.1816 22.9188 95.1816 22.5986V22.2784C94.9674 22.5083 94.7233 22.5923 94.4033 22.5923C94.0825 22.5923 93.8068 22.4894 93.6242 22.3141C93.3161 22.018 93.2905 21.6138 93.2905 21.0636C93.2905 20.5135 93.3161 20.1155 93.6242 19.8194C93.8068 19.6441 94.0893 19.5413 94.4093 19.5413C94.7549 19.5413 94.9811 19.6316 95.2081 19.873V19.5769H96V22.6091C95.9983 23.365 95.4385 23.9152 94.5595 23.9152ZM94.6414 20.2489C94.1576 20.2489 94.1072 20.6479 94.1072 21.0647C94.1072 21.4815 94.1576 21.8857 94.6414 21.8857C95.1253 21.8857 95.1816 21.4815 95.1816 21.0647C95.1816 20.6479 95.1253 20.2489 94.6414 20.2489Z" fill="#ADADAD"/>
</svg>
