<svg width="49" height="20" viewBox="0 0 49 20" fill="none" xmlns="http://www.w3.org/2000/svg">
<g clip-path="url(#clip0_4530_3256)">
<path d="M0.000235058 9.37812C0.0482339 8.92778 0.0835272 8.47603 0.141408 8.02851C0.495753 5.57915 1.47691 3.47003 3.50274 1.94395C4.80859 0.955733 6.29939 0.412217 7.9017 0.170811C10.5353 -0.232832 13.2291 0.0877882 15.6945 1.09832C15.7664 1.12655 15.8356 1.15902 15.9359 1.20137L14.5806 4.4653C14.047 4.26624 13.5359 4.05307 13.0107 3.88366C11.7261 3.4672 10.4047 3.29356 9.0692 3.51803C6.81043 3.89778 5.36905 5.24175 4.64624 7.38476C4.22272 8.62426 4.18602 9.9047 4.29755 11.1964C4.35485 12.1131 4.57025 13.0129 4.93424 13.8561C5.70504 15.5375 7.02218 16.4241 8.86449 16.5384C9.81974 16.5879 10.7774 16.5201 11.7162 16.3365C11.8489 16.3125 11.9392 16.2829 11.9378 16.1064C11.9294 14.8683 11.9378 13.6288 11.9378 12.3893C11.9378 12.3512 11.9378 12.3131 11.9251 12.2482C11.8291 12.2482 11.7388 12.2355 11.6428 12.2355C10.5925 12.2355 9.54072 12.2355 8.49039 12.2355C8.29698 12.2355 8.23769 12.1846 8.2391 11.987C8.24898 11.0073 8.2391 10.0261 8.2391 9.04637C8.2391 8.97719 8.2391 8.90519 8.24898 8.82472H15.9415C15.9415 8.91084 15.9542 8.99413 15.9542 9.07742C15.9542 12.2613 15.9542 15.4453 15.9542 18.6292C15.9613 18.6664 15.9608 18.7047 15.9528 18.7418C15.9447 18.7788 15.9293 18.8139 15.9074 18.8448C15.8856 18.8758 15.8577 18.902 15.8255 18.922C15.7932 18.9419 15.7573 18.9552 15.7199 18.961C13.2685 19.7566 10.691 20.0916 8.11769 19.9492C6.49702 19.8631 4.96247 19.4494 3.60015 18.5219C2.0783 17.4843 1.1508 16.0189 0.594577 14.2867C0.24742 13.1625 0.0522745 11.9969 0.0143489 10.8209C0.0143489 10.7447 -0.0082374 10.6684 -0.0195312 10.5922L0.000235058 9.37812Z" fill="#ADADAD"/>
<path d="M48.7313 1.38491C48.2909 2.49453 47.8546 3.5971 47.4156 4.70389C46.8255 4.46108 46.2509 4.21826 45.6707 3.98814C44.7651 3.601 43.7866 3.41415 42.8021 3.4404C41.0106 3.52086 39.7485 4.39614 38.9579 5.98151C38.5461 6.8467 38.2972 7.78039 38.2238 8.7358C38.0826 10.228 38.1306 11.7117 38.5386 13.1644C38.8619 14.3135 39.4294 15.3032 40.4911 15.9356C41.1682 16.3224 41.932 16.5322 42.7117 16.5455C44.2392 16.6161 45.6975 16.273 47.1375 15.8199C47.4128 15.7338 47.6867 15.6392 47.9958 15.5375L48.1074 16.6867C48.1638 17.2782 48.2132 17.8725 48.2838 18.464C48.2963 18.5393 48.2839 18.6165 48.2485 18.684C48.2131 18.7516 48.1566 18.8057 48.0876 18.8382C47.3577 19.3196 46.5347 19.5355 45.6876 19.6993C43.9498 20.0381 42.2007 20.1228 40.4558 19.7812C37.4389 19.184 35.4822 17.3714 34.5406 14.4618C33.9547 12.6562 33.8347 10.7913 33.9576 8.90944C34.0358 7.4486 34.4029 6.01777 35.0375 4.69966C36.3081 2.13031 38.3735 0.625401 41.187 0.156707C43.7945 -0.278107 46.2693 0.223058 48.6368 1.32562C48.6565 1.33833 48.6805 1.35668 48.7313 1.38491Z" fill="#ADADAD"/>
<path d="M19.9321 0.293701H31.0396V3.6508H30.7389C28.5832 3.6508 26.4261 3.6508 24.2704 3.6508C24.0389 3.6508 23.964 3.70021 23.9654 3.94726C23.9782 5.43664 23.9753 6.92743 23.9654 8.41681C23.9654 8.6201 24.0149 8.68221 24.2266 8.68221C26.2341 8.67374 28.2416 8.68221 30.2491 8.68221H30.5413V12.028H30.2307C28.2388 12.028 26.2482 12.028 24.2563 12.028C24.0332 12.028 23.964 12.0831 23.9654 12.3104C23.9739 14.7639 23.9654 17.2175 23.9654 19.6725V19.9972H19.9321V0.293701Z" fill="#ADADAD"/>
</g>
<defs>
<clipPath id="clip0_4530_3256">
<rect width="48.7259" height="20" fill="white"/>
</clipPath>
</defs>
</svg>
