<svg width="88" height="25" viewBox="0 0 88 25" fill="none" xmlns="http://www.w3.org/2000/svg">
<path d="M44.028 12.4397H50.4953V13.022C48.9628 13.2478 48.428 13.4743 48.428 15.5103V22.0375C46.2292 23.3971 43.6689 24.1052 41.061 24.075C33.7654 24.075 29.0923 19.3904 29.0923 12.7662C29.0923 5.9794 34.4269 1.10072 41.8606 1.10072C44.9619 1.10072 47.3621 1.71543 49.4286 2.71616V6.33602H48.7952C47.6952 3.42572 45.395 2.06543 41.7605 2.06543C35.2933 2.06543 30.7552 6.49263 30.7552 12.6316C30.7552 18.9985 35.2235 23.1022 41.3895 23.1022C43.3893 23.1022 45.2562 22.7132 46.9229 21.9037V15.5434C46.9229 13.4743 46.4571 13.2478 44.0235 13.0257L44.028 12.4397ZM52.3948 21.8757V18.0632H53.0283C54.3619 21.8412 56.829 23.1044 59.6017 23.1044C62.3009 23.1044 65.1662 21.4566 65.1662 18.4184C65.1662 16.4478 63.9653 15.3162 61.2328 14.0875L57.8319 12.5691C54.9643 11.2772 53.1967 9.49999 53.1967 6.81616C53.1967 3.74705 55.8314 1.09705 60.1988 1.09705C62.4989 1.09705 64.8977 1.80808 66.3664 2.68013V6.26837H65.7322C64.6663 3.03308 62.3942 2.07352 60.0319 2.07352C56.8313 2.07352 54.6639 3.94852 54.6639 6.66322C54.6639 8.95734 56.1652 10.1845 58.4646 11.186L61.8988 12.7044C64.9659 14.0625 66.6326 15.6132 66.6326 18.1662C66.6326 21.5904 63.4995 24.0787 59.4606 24.0787C56.9251 24.0819 54.4529 23.3112 52.3948 21.8757ZM87.9999 23.7176V23.8147H85.9661L74.5982 12.3441H72.7979V20.2926C72.7979 22.9426 73.2926 23.1044 74.8993 23.2323V23.8147H69.1968V23.2323C70.8642 23.1044 71.2989 22.9426 71.2989 20.2926V5.07352C71.2989 2.64925 70.9279 2.13234 69.1975 1.93822V1.35734H76.3968C81.3658 1.35734 84.533 3.42572 84.533 6.75072C84.533 10.0154 81.4986 12.2448 76.698 12.4066L87.9999 23.7176ZM72.7972 11.3735H76.0979C80.4653 11.3735 82.899 9.69558 82.899 6.78381C82.899 3.97352 80.4987 2.32572 76.1321 2.32572H72.7926L72.7979 11.3735H72.7972Z" fill="#ADADAD"/>
<path d="M12.8601 8.71615V0.507324H11.9081V8.71615C12.2242 8.6778 12.544 8.6778 12.8601 8.71615ZM6.0591 2.1735L5.258 2.67203L9.83248 9.57644C10.0784 9.38005 10.3476 9.2127 10.6343 9.07791L6.0591 2.1735ZM1.26386 7.14115L0.867862 7.98012L8.57014 11.3897C8.66724 11.0956 8.8 10.8139 8.96614 10.5514L1.26386 7.14041V7.14115ZM0 13.8338L0.136552 14.747L8.51703 13.5779C8.43574 13.2799 8.39067 12.9736 8.38276 12.6654L0 13.8338ZM9.06855 14.7507L2.67034 20.125L3.28862 20.8213L9.6891 15.447C9.45493 15.2391 9.24689 15.0052 9.06931 14.75L9.06855 14.7507ZM8.426 24.0198L9.33862 24.2801L11.7252 16.4051C11.4109 16.3544 11.104 16.2673 10.8111 16.1456L8.426 24.0206V24.0198ZM15.4394 24.2801L16.3536 24.0198L13.973 16.1456C13.6801 16.2669 13.3732 16.3538 13.0589 16.4044L15.4394 24.2794V24.2801ZM15.0859 15.4478L21.4849 20.8235L22.1092 20.1257L15.7042 14.7507C15.5275 15.0061 15.32 15.2401 15.0859 15.4478ZM16.2618 13.5786L24.643 14.747L24.7796 13.8338L16.3953 12.6647C16.3877 12.9735 16.3437 13.2801 16.2618 13.5786ZM23.911 7.98012L23.5157 7.14115L15.8127 10.5507C15.9796 10.8139 16.1123 11.0956 16.2087 11.3897L23.911 7.98012ZM19.5201 2.67129L18.719 2.1735L14.1437 9.07791C14.4302 9.21275 14.6991 9.3801 14.9448 9.57644L19.5201 2.67203V2.67129ZM8.426 1.12718L9.34014 0.867618L10.909 6.04703L9.99483 6.30732L8.426 1.12718ZM13.8706 6.04556L15.4387 0.866148L16.3528 1.12571L14.784 6.30512L13.8706 6.04556ZM2.66959 5.01982L3.29317 4.32277L7.50352 7.85953L6.88069 8.55659L2.66959 5.01982ZM0 11.3117L0.135034 10.3985L5.64869 11.1669L5.5129 12.0801L0 11.3117ZM0.941448 17.1661L6.01131 14.8985L6.4111 15.7382L1.34124 18.0059L0.941448 17.1661ZM5.25952 22.475L8.27124 17.9331L9.07234 18.4316L6.06062 22.9742L5.25952 22.475ZM11.9126 19.2404H12.8647V24.6382H11.9126V19.2404ZM15.7057 18.4294L16.5076 17.9294L19.5193 22.472L18.7182 22.972L15.7057 18.4294ZM18.4497 15.7632L18.8457 14.9242L23.9125 17.1669L23.5172 18.0073L18.4497 15.7632ZM19.1286 11.1684L24.6423 10.4L24.7781 11.3132L19.2644 12.0816L19.1286 11.1684ZM17.2738 7.86027L21.4857 4.32277L22.1085 5.02056L17.8981 8.55732L17.2738 7.86027Z" fill="#ADADAD"/>
</svg>
