<svg width="126" height="30" viewBox="0 0 126 30" fill="none" xmlns="http://www.w3.org/2000/svg">
<g clip-path="url(#clip0_4530_4466)">
<path d="M13.8491 30.0001C13.6304 29.9291 13.401 29.8971 13.1712 29.9055C12.0981 29.7814 11.0412 29.5436 10.0183 29.1961C8.71147 28.7357 7.47721 28.0907 6.35305 27.2807C5.90224 26.9684 5.47299 26.626 5.06824 26.256C4.87118 26.0668 4.66624 25.8934 4.46918 25.6963C3.139 24.3882 2.06911 22.8395 1.31627 21.1325C0.799951 19.9644 0.434427 18.7354 0.228511 17.4751C0.0579529 16.3936 -0.0027871 15.2977 0.0472187 14.2039C0.0842338 13.1206 0.253648 12.0459 0.551685 11.0037C1.01294 9.3681 1.7428 7.82048 2.71143 6.42413C3.35472 5.49254 4.1003 4.63592 4.93424 3.87027C6.01914 2.86712 7.25626 2.04237 8.5995 1.42675C10.1733 0.693882 11.8607 0.235366 13.589 0.0710012C14.4857 -0.0117856 15.3881 -0.0117856 16.2847 0.0710012C18.327 0.24488 20.3121 0.835029 22.1176 1.8051C23.2603 2.42244 24.3197 3.18262 25.2706 4.06732C26.6987 5.40704 27.8502 7.01382 28.6599 8.7967C29.2097 9.99509 29.5942 11.2626 29.8029 12.5644C29.9799 13.5763 30.0459 14.6044 29.9999 15.6306C29.9174 17.4431 29.5117 19.2263 28.8018 20.896C28.2409 22.2093 27.495 23.4356 26.5869 24.5376C25.4777 25.8833 24.1444 27.0273 22.6457 27.9191C21.0505 28.8794 19.2881 29.5293 17.4513 29.8345C17.0493 29.8976 16.6631 29.9528 16.2453 29.9764C16.1823 29.9764 16.1034 29.9764 16.064 30.0237L13.8491 30.0001ZM15.0236 27.8245C18.4264 27.8371 21.6954 26.5001 24.1142 24.1065C26.5329 21.7129 27.904 18.458 27.9269 15.0552C27.9607 11.6665 26.6543 8.40163 24.2922 5.9716C21.9301 3.54156 18.7036 2.14319 15.3152 2.08098C13.6226 2.03807 11.9383 2.33116 10.3597 2.94331C8.78106 3.55546 7.33948 4.47451 6.11829 5.64732C4.89711 6.82012 3.92057 8.2234 3.24515 9.77599C2.56972 11.3286 2.20882 12.9997 2.18332 14.6926C2.1412 16.4041 2.44238 18.1066 3.06907 19.6997C3.69577 21.2929 4.63528 22.7443 5.83215 23.9683C7.02902 25.1924 8.45898 26.1643 10.0376 26.8266C11.6163 27.4889 13.3116 27.8282 15.0236 27.8245Z" fill="#ADADAD"/>
<path d="M125.959 22.5829H123.594C123.492 22.5829 123.445 22.5356 123.453 22.4331V22.3149C123.453 18.3737 123.453 14.4326 123.453 10.4914C123.453 10.2944 123.516 10.2234 123.705 10.1761C124.391 10.0264 125.076 9.84507 125.762 9.67954C125.836 9.67567 125.909 9.67567 125.983 9.67954L125.959 22.5829Z" fill="#ADADAD"/>
<path d="M56.8628 13.8019C57.085 13.5364 57.3303 13.2911 57.5959 13.0689C57.9953 12.7784 58.4736 12.6162 58.9674 12.6038C59.5659 12.5192 60.1759 12.6268 60.7094 12.9112C61.1511 13.181 61.4769 13.6051 61.6237 14.1015C61.7341 13.9044 61.8129 13.7231 61.9232 13.5655C62.084 13.3284 62.2912 13.1265 62.5324 12.972C62.7736 12.8175 63.0437 12.7137 63.3263 12.6669C63.8828 12.529 64.4645 12.529 65.021 12.6669C65.3592 12.7724 65.6639 12.9647 65.9045 13.2248C66.1452 13.4848 66.3134 13.8034 66.3925 14.1488C66.511 14.5745 66.5667 15.0153 66.558 15.4572C66.558 17.7352 66.558 20.0211 66.558 22.299C66.558 22.5276 66.495 22.5749 66.2743 22.5749C65.6279 22.5749 64.9737 22.5749 64.3273 22.5749C64.1066 22.5749 64.0357 22.5355 64.0357 22.2912C64.0357 20.1472 64.0357 18.0032 64.0357 15.8592C64.0403 15.6167 64.0084 15.3749 63.9411 15.1419C63.912 15.025 63.8595 14.9152 63.7868 14.8192C63.7141 14.7232 63.6227 14.6429 63.5181 14.5832C63.4134 14.5235 63.2978 14.4857 63.1781 14.472C63.0584 14.4583 62.9372 14.469 62.8218 14.5035C62.5551 14.5336 62.3072 14.6554 62.1203 14.848C61.9334 15.0407 61.8192 15.2922 61.7971 15.5597C61.7654 15.7525 61.7496 15.9476 61.7498 16.143C61.7498 18.2081 61.7498 20.268 61.7498 22.3227C61.7498 22.5276 61.7025 22.5828 61.4976 22.5749C60.8355 22.5749 60.1655 22.5749 59.5034 22.5749C59.2827 22.5749 59.2117 22.5749 59.2117 22.299C59.2117 20.1078 59.2117 17.9165 59.2117 15.7252C59.2312 15.4045 59.1454 15.0862 58.9674 14.8188C58.8153 14.6675 58.6216 14.5651 58.411 14.5243C58.2005 14.4836 57.9825 14.5065 57.785 14.5902C57.5466 14.6755 57.3417 14.8346 57.1999 15.0444C57.0582 15.2542 56.987 15.5037 56.9968 15.7567C56.9259 17.2701 56.9968 18.7914 56.9968 20.3127C56.9968 20.9985 56.9968 21.6842 56.9968 22.37C56.9968 22.5355 56.9968 22.5986 56.784 22.5986C56.0825 22.5986 55.3731 22.5986 54.6715 22.5986C54.4902 22.5986 54.4587 22.5355 54.4587 22.37C54.4429 19.2854 54.4351 16.1666 54.4351 13.0137C54.4351 12.8403 54.4824 12.793 54.6558 12.8009C55.3179 12.8009 55.98 12.8009 56.65 12.8009C56.8313 12.8009 56.8628 12.8561 56.8549 13.0216C56.847 13.1871 56.8628 13.5261 56.8628 13.8019Z" fill="#ADADAD"/>
<path d="M70.6805 13.8019C70.8251 13.4899 71.0448 13.2187 71.3199 13.0123C71.595 12.806 71.9169 12.6711 72.2569 12.6196C72.8842 12.4879 73.5369 12.554 74.125 12.8088C74.4795 12.9848 74.7898 13.2385 75.0327 13.551C75.2756 13.8636 75.4449 14.2268 75.5281 14.6138C75.7368 15.3855 75.8532 16.1793 75.8749 16.9785C75.9066 17.5692 75.9066 18.1613 75.8749 18.752C75.8681 19.6889 75.6527 20.6125 75.2443 21.4556C75.0728 21.7945 74.8207 22.0861 74.51 22.3046C74.1994 22.5232 73.8398 22.662 73.4629 22.7089C72.9357 22.8113 72.3906 22.7676 71.8864 22.5828C71.4984 22.4117 71.1636 22.1395 70.9169 21.7946L70.8617 21.7236C70.8617 21.7867 70.8617 21.8655 70.8617 21.9365C70.8617 22.9034 70.8617 23.8729 70.8617 24.845C70.8617 25.0106 70.8066 25.0894 70.6489 25.1209C69.9238 25.2943 69.1986 25.4756 68.4813 25.6648C68.3631 25.6648 68.3237 25.6648 68.3315 25.5623V13.0925C68.3315 12.8955 68.3709 12.8245 68.5838 12.8324C69.238 12.8324 69.8843 12.8324 70.5386 12.8324C70.6962 12.8324 70.7435 12.8718 70.7356 13.0374C70.7278 13.2029 70.7356 13.5576 70.7356 13.8256V13.8808L70.6805 13.8019ZM73.3526 17.7431V17.278C73.3503 16.6019 73.2603 15.9289 73.0846 15.2759C73.0394 15.109 72.9517 14.9567 72.8302 14.8338C72.7086 14.7108 72.5573 14.6215 72.3909 14.5744C72.2337 14.5201 72.0662 14.502 71.9011 14.5215C71.7359 14.541 71.5772 14.5976 71.437 14.687C71.2968 14.7765 71.1786 14.8964 71.0912 15.038C71.0039 15.1796 70.9497 15.339 70.9327 15.5045C70.7516 16.4255 70.6881 17.3657 70.7435 18.3027C70.7442 18.9126 70.8264 19.5196 70.9879 20.1078C71.022 20.2967 71.1101 20.4717 71.2416 20.6116C71.3731 20.7515 71.5423 20.8503 71.7288 20.896C71.8764 20.9461 72.0331 20.9635 72.188 20.9469C72.343 20.9303 72.4924 20.8801 72.626 20.7998C72.7595 20.7195 72.874 20.611 72.9614 20.482C73.0487 20.353 73.1069 20.2064 73.1319 20.0526C73.3034 19.2953 73.3776 18.5192 73.3526 17.7431Z" fill="#ADADAD"/>
<path d="M98.308 21.7394C98.308 22.8114 98.308 23.8282 98.308 24.845C98.308 25.0106 98.2607 25.0894 98.0952 25.1288L96.0536 25.6884C95.7856 25.7594 95.7856 25.7594 95.7856 25.4835V13.1477C95.7856 12.8561 95.7856 12.8561 96.0852 12.8561H97.9375C98.1346 12.8561 98.1897 12.9112 98.1819 13.1004C98.1622 13.3496 98.1622 13.6 98.1819 13.8492C98.3556 13.5503 98.5795 13.2837 98.844 13.061C99.0775 12.8486 99.3678 12.7089 99.6795 12.659C100.09 12.5572 100.517 12.544 100.933 12.6201C101.349 12.6962 101.744 12.8599 102.091 13.1004C102.528 13.4513 102.847 13.927 103.006 14.464C103.231 15.1981 103.358 15.9588 103.384 16.7263C103.416 17.2276 103.416 17.7304 103.384 18.2318C103.384 18.6811 103.329 19.1382 103.274 19.5875C103.242 20.3239 103.037 21.0423 102.675 21.6842C102.457 22.0289 102.156 22.3129 101.799 22.51C101.442 22.707 101.041 22.8107 100.633 22.8114C100.039 22.8743 99.4423 22.7264 98.9464 22.3936C98.7068 22.2035 98.4922 21.9837 98.308 21.7394ZM98.308 17.6564C98.308 17.9007 98.308 18.0741 98.308 18.2554C98.298 18.9168 98.3883 19.5759 98.576 20.2102C98.6166 20.3548 98.6905 20.4879 98.7918 20.5987C98.8931 20.7096 99.0189 20.7952 99.1593 20.8487C99.3228 20.9226 99.5017 20.9561 99.6809 20.9463C99.8601 20.9366 100.034 20.8839 100.189 20.7927C100.343 20.7015 100.474 20.5745 100.569 20.4224C100.664 20.2702 100.721 20.0975 100.736 19.9186C100.903 18.9959 100.962 18.0567 100.909 17.1204C100.913 16.4884 100.826 15.8591 100.649 15.2523C100.604 15.0885 100.517 14.9393 100.396 14.8192C100.276 14.699 100.127 14.612 99.9633 14.5665C99.8045 14.5124 99.6356 14.4946 99.469 14.5145C99.3025 14.5344 99.1426 14.5915 99.001 14.6816C98.8595 14.7716 98.7401 14.8924 98.6515 15.0348C98.5629 15.1772 98.5075 15.3378 98.4893 15.5045C98.3493 16.2129 98.2885 16.9346 98.308 17.6564Z" fill="#ADADAD"/>
<path d="M79.7374 16.1667C79.7037 17.2212 79.767 18.2767 79.9266 19.3196C79.9632 19.5368 80.0186 19.7504 80.0921 19.9581C80.1357 20.143 80.2184 20.3165 80.3346 20.4669C80.4508 20.6172 80.5978 20.741 80.7658 20.8298C80.9338 20.9187 81.1189 20.9706 81.3086 20.982C81.4982 20.9934 81.6882 20.9641 81.8656 20.8961C82.052 20.8403 82.2216 20.739 82.3592 20.6014C82.4968 20.4638 82.598 20.2942 82.6538 20.1078C82.9008 19.4265 83.0132 18.7038 82.9849 17.9796C82.9849 17.6564 82.9849 17.6564 83.3081 17.6564H85.4205C85.5151 17.6564 85.6333 17.6564 85.6255 17.7904C85.6697 18.9443 85.4401 20.0923 84.9555 21.1404C84.7066 21.5653 84.3644 21.9279 83.9547 22.2011C83.5451 22.4742 83.0787 22.6506 82.5908 22.7169C81.9898 22.8213 81.3778 22.8478 80.77 22.7957C79.8701 22.7851 79.0079 22.4329 78.358 21.8104C77.977 21.4196 77.6888 20.9482 77.5146 20.431C77.3408 19.9607 77.2243 19.471 77.1678 18.9728C77.0915 18.3557 77.0546 17.7344 77.0574 17.1126C77.0574 16.1273 76.9865 15.142 77.0574 14.1646C77.0606 13.0653 77.3311 11.9832 77.8456 11.0117C78.0976 10.5895 78.4406 10.2288 78.8497 9.95608C79.2588 9.68335 79.7237 9.5054 80.2103 9.43522C81.0664 9.27873 81.9448 9.29212 82.7957 9.47463C83.1336 9.54741 83.458 9.6724 83.7574 9.8451C84.2084 10.1255 84.5864 10.509 84.8604 10.9639C85.1345 11.4188 85.2967 11.9322 85.3338 12.462C85.3957 12.8903 85.4299 13.3221 85.4363 13.7547C85.4363 13.9045 85.4363 13.9675 85.2313 13.9675H83.0085C82.843 13.9675 82.8115 13.9045 82.8115 13.7547C82.8211 13.2209 82.7467 12.6889 82.5908 12.1783C82.5214 11.9035 82.3582 11.6617 82.1293 11.4947C81.9004 11.3278 81.6203 11.2461 81.3375 11.2639C81.073 11.2396 80.808 11.3038 80.584 11.4464C80.36 11.5891 80.1897 11.8022 80.1 12.0521C79.8959 12.5381 79.776 13.0552 79.7453 13.5813C79.687 14.442 79.6844 15.3056 79.7374 16.1667Z" fill="#ADADAD"/>
<path d="M50.3284 21.5345C50.0975 21.928 49.7666 22.2535 49.3693 22.4777C48.9719 22.702 48.5223 22.8171 48.0661 22.8114C47.5792 22.8527 47.0893 22.7854 46.6316 22.6144C46.3188 22.4838 46.0454 22.2742 45.8382 22.0062C45.6309 21.7381 45.4968 21.4207 45.4492 21.0852C45.3877 20.7181 45.3613 20.3459 45.3704 19.9738C45.3704 17.6801 45.3704 15.3784 45.3704 13.0847C45.3704 12.8876 45.3704 12.8246 45.6226 12.8325C46.2769 12.8325 46.939 12.8325 47.5932 12.8325C47.94 12.8325 47.9006 12.793 47.9006 13.132C47.9006 15.2812 47.9006 17.4278 47.9006 19.5718C47.8919 19.7913 47.9104 20.0111 47.9558 20.226C47.9864 20.4158 48.0816 20.5892 48.2251 20.717C48.3687 20.8448 48.552 20.9191 48.744 20.9276C48.9129 20.9565 49.086 20.9506 49.2525 20.91C49.4191 20.8694 49.5755 20.7951 49.7122 20.6917C49.8488 20.5883 49.9629 20.4579 50.0471 20.3087C50.1314 20.1594 50.1842 19.9945 50.2022 19.824C50.2444 19.5476 50.2628 19.2681 50.2574 18.9885C50.2574 17.018 50.2574 15.0474 50.2574 13.0847C50.2574 12.8876 50.2968 12.8246 50.5018 12.8325C51.1954 12.8325 51.8812 12.8325 52.5669 12.8325C52.7246 12.8325 52.7719 12.8325 52.7719 13.0295V22.4173C52.7719 22.5671 52.7719 22.6144 52.5827 22.6065H50.5806C50.4387 22.6065 50.3756 22.6065 50.3835 22.4252C50.3835 22.1336 50.3835 21.8419 50.3835 21.5503V21.4951L50.3284 21.5345Z" fill="#ADADAD"/>
<path d="M121.56 18.1845C121.56 19.0673 121.56 19.9501 121.56 20.8329C121.522 21.3049 121.592 21.7796 121.765 22.2202C121.765 22.299 121.765 22.4094 121.828 22.504C121.892 22.5986 121.828 22.6222 121.742 22.6222C121.017 22.6222 120.291 22.6222 119.566 22.6222C119.424 22.6222 119.385 22.5276 119.353 22.4251C119.322 22.3227 119.235 21.9995 119.172 21.7867C119.172 21.7473 119.172 21.6921 119.125 21.6842C119.078 21.6763 119.054 21.7236 119.022 21.763C118.854 22.0416 118.625 22.2787 118.352 22.4567C117.973 22.6809 117.54 22.8005 117.099 22.8035C116.767 22.8508 116.43 22.8508 116.098 22.8035C115.816 22.7659 115.546 22.6648 115.308 22.5078C115.071 22.3508 114.872 22.142 114.727 21.897C114.432 21.3801 114.272 20.7973 114.261 20.2023C114.235 19.6419 114.321 19.0818 114.514 18.5549C114.689 18.112 115.016 17.7459 115.436 17.5224C115.962 17.255 116.518 17.0487 117.091 16.9075C117.572 16.7735 118.069 16.679 118.534 16.4977C118.707 16.4308 118.857 16.313 118.962 16.1597C119.068 16.0063 119.125 15.8246 119.125 15.6385C119.131 15.4068 119.102 15.1756 119.038 14.9527C118.981 14.7672 118.863 14.6067 118.702 14.4978C118.542 14.3888 118.349 14.338 118.155 14.3537C117.908 14.3155 117.654 14.3454 117.422 14.4404C117.283 14.5084 117.163 14.6105 117.073 14.7373C116.984 14.864 116.927 15.0113 116.91 15.1656C116.865 15.3626 116.836 15.5629 116.823 15.7646C116.823 15.8513 116.76 15.8513 116.697 15.8513H114.727C114.616 15.8513 114.585 15.804 114.577 15.7016C114.536 15.3191 114.572 14.9325 114.683 14.5643C114.794 14.1961 114.978 13.8538 115.223 13.5576C115.647 13.0798 116.229 12.7718 116.863 12.6905C117.428 12.6027 118.001 12.5737 118.573 12.6038C119.112 12.5991 119.648 12.6981 120.15 12.8955C120.492 13.0366 120.792 13.2627 121.022 13.5524C121.253 13.842 121.405 14.1856 121.466 14.5507C121.55 15.1617 121.579 15.779 121.553 16.3952C121.568 16.9942 121.56 17.5854 121.56 18.1845ZM119.196 18.8939V18.1057C119.196 17.7746 119.196 17.7746 118.896 17.9401C118.68 18.0511 118.453 18.1383 118.218 18.2002C118.01 18.2513 117.805 18.3145 117.604 18.3894C117.419 18.4483 117.251 18.5506 117.114 18.6877C116.976 18.8248 116.874 18.9928 116.815 19.1776C116.645 19.6981 116.687 20.2649 116.934 20.7541C116.98 20.8426 117.045 20.9202 117.123 20.9814C117.202 21.0426 117.294 21.0861 117.391 21.1088C117.581 21.1519 117.777 21.1571 117.969 21.1242C118.161 21.0913 118.345 21.0208 118.51 20.9168C118.674 20.8129 118.817 20.6775 118.929 20.5184C119.042 20.3592 119.121 20.1795 119.164 19.9895C119.189 19.6248 119.192 19.2589 119.172 18.8939H119.196Z" fill="#ADADAD"/>
<path d="M94.2957 22.5907H91.9705C91.8916 22.5907 91.868 22.5434 91.8365 22.4804C91.7338 22.2125 91.6572 21.9353 91.6079 21.6527C91.4975 21.6527 91.4896 21.7552 91.4423 21.8183C91.2916 22.0641 91.0884 22.2736 90.8472 22.4317C90.606 22.5898 90.3328 22.6926 90.0472 22.7326C89.4827 22.8468 88.9012 22.8468 88.3367 22.7326C88.0856 22.6768 87.8493 22.5676 87.644 22.4126C87.4387 22.2576 87.269 22.0603 87.1465 21.834C86.7612 21.1097 86.6228 20.2795 86.7524 19.4693C86.7948 19.0095 86.9461 18.5664 87.1938 18.1766C87.5503 17.718 88.045 17.3863 88.6047 17.2308C89.2511 17.0022 89.9211 16.8603 90.5753 16.6711C90.7763 16.6472 90.9682 16.5733 91.1334 16.4563C91.2986 16.3393 91.4319 16.1828 91.5212 16.0011C91.6157 15.7398 91.6287 15.4559 91.5583 15.1871C91.4879 14.9182 91.3375 14.6771 91.1271 14.4956C90.9596 14.3937 90.7697 14.3344 90.574 14.3229C90.3784 14.3115 90.1828 14.3482 90.0047 14.4299C89.8265 14.5116 89.6711 14.6358 89.552 14.7915C89.433 14.9473 89.354 15.1299 89.322 15.3233C89.3044 15.396 89.2912 15.4697 89.2826 15.544C89.2826 15.8829 89.2826 15.8908 88.8964 15.8908C88.3367 15.8908 87.785 15.8908 87.2253 15.8908C87.0756 15.8908 87.0361 15.8514 87.0283 15.6937C86.9941 15.3099 87.0372 14.9232 87.155 14.5563C87.2728 14.1894 87.4629 13.8498 87.714 13.5576C88.0707 13.1575 88.5456 12.8814 89.0698 12.7694C89.7987 12.6054 90.5498 12.5628 91.2926 12.6433C91.9022 12.6709 92.4954 12.8497 93.0188 13.1635C93.4177 13.4242 93.711 13.818 93.8464 14.2749C93.967 14.7108 94.0175 15.1631 93.9962 15.6149V20.6753C93.967 21.2829 94.0553 21.8905 94.2563 22.4646C94.2756 22.5045 94.2889 22.547 94.2957 22.5907ZM91.6236 17.7431C91.2462 17.9833 90.8303 18.1566 90.394 18.2555C90.0903 18.2905 89.8062 18.4231 89.5845 18.6335C89.3627 18.8439 89.2153 19.1206 89.1644 19.422C89.0909 19.8429 89.143 20.276 89.3141 20.6674C89.3584 20.7828 89.4317 20.8849 89.527 20.9636C89.6223 21.0423 89.7363 21.0951 89.858 21.1167C90.2284 21.1901 90.6129 21.1169 90.9304 20.9126C91.248 20.7082 91.4739 20.3886 91.5606 20.0211C91.6295 19.2639 91.6506 18.503 91.6236 17.7431Z" fill="#ADADAD"/>
<path d="M43.7468 14.6454C43.7468 16.2218 43.7468 17.7273 43.7468 19.2723C43.7613 19.985 43.5959 20.6898 43.2659 21.3217C42.9084 21.9348 42.3259 22.3844 41.6422 22.575C40.852 22.804 40.0256 22.8815 39.2066 22.8035C38.5025 22.7734 37.832 22.4941 37.3148 22.0153C36.9255 21.6373 36.6521 21.156 36.5266 20.628C36.3878 19.9703 36.3348 19.2973 36.3689 18.6259C36.3689 18.5156 36.4084 18.4919 36.5108 18.4919H38.6706C38.8046 18.4919 38.8361 18.5392 38.8361 18.6653C38.8007 19.1482 38.8325 19.6337 38.9307 20.1078C38.9497 20.2939 39.0258 20.4695 39.1486 20.6107C39.2714 20.7518 39.4348 20.8515 39.6164 20.896C39.8235 20.9648 40.0466 20.9692 40.2563 20.9087C40.4659 20.8482 40.6523 20.7256 40.7909 20.5571C40.9394 20.3451 41.0291 20.0977 41.051 19.8398C41.1377 19.1603 41.1615 18.4743 41.122 17.7904C41.122 15.163 41.122 12.5355 41.122 9.90812C41.122 9.70318 41.1771 9.65588 41.3742 9.65588C42.0915 9.65588 42.8167 9.65588 43.5339 9.65588C43.731 9.65588 43.7704 9.71894 43.7704 9.90023C43.7704 11.4767 43.7704 13.0531 43.7704 14.6296L43.7468 14.6454Z" fill="#ADADAD"/>
<path d="M109.777 17.8298C109.777 16.8287 109.777 15.8277 109.777 14.8345C109.777 14.6059 109.706 14.5429 109.493 14.5586C109.28 14.5744 108.941 14.5586 108.665 14.5586C108.547 14.5586 108.484 14.5586 108.484 14.401C108.484 13.928 108.484 13.4551 108.484 12.9822C108.484 12.8561 108.539 12.8245 108.649 12.8245C108.957 12.8245 109.264 12.8245 109.572 12.8245C109.737 12.8245 109.769 12.7694 109.769 12.6117C109.769 12.0205 109.769 11.4215 109.769 10.8303C109.769 10.6884 109.808 10.6411 109.95 10.6096L112.031 10.0894C112.275 10.0342 112.291 10.05 112.291 10.2943C112.291 11.0825 112.291 11.8708 112.291 12.6038C112.291 12.7772 112.338 12.8324 112.512 12.8245C112.843 12.8245 113.182 12.8245 113.521 12.8245C113.67 12.8245 113.733 12.8245 113.733 13.0216C113.733 13.4709 113.733 13.928 113.733 14.3773C113.733 14.5113 113.686 14.5665 113.552 14.5586C113.19 14.5586 112.827 14.5586 112.472 14.5586C112.33 14.5586 112.291 14.6059 112.291 14.7478C112.291 16.5292 112.291 18.3185 112.291 20.0999C112.291 20.5886 112.433 20.8881 113.079 20.8881C113.232 20.8961 113.384 20.8961 113.536 20.8881C113.663 20.8881 113.702 20.9354 113.702 21.0458C113.702 21.5082 113.702 21.9732 113.702 22.4409C113.702 22.567 113.647 22.5986 113.536 22.6065C112.864 22.6774 112.187 22.7011 111.511 22.6774C111.243 22.6648 110.979 22.6198 110.722 22.5434C110.499 22.4659 110.301 22.3273 110.152 22.1435C110.003 21.9596 109.909 21.7378 109.879 21.5029C109.8 21.1407 109.769 20.7698 109.784 20.3994L109.777 17.8298Z" fill="#ADADAD"/>
<path d="M107.483 17.7431V22.3936C107.483 22.5749 107.483 22.6459 107.246 22.638C106.553 22.638 105.859 22.638 105.165 22.638C105.008 22.638 104.96 22.5907 104.96 22.433V13.0137C104.96 12.8482 105.016 12.8167 105.173 12.8167C105.867 12.8167 106.561 12.8167 107.254 12.8167C107.435 12.8167 107.491 12.8639 107.483 13.0452V17.7431Z" fill="#ADADAD"/>
<path d="M106.214 11.6422H105.158C105.016 11.6422 104.953 11.6028 104.961 11.453C104.961 10.854 104.961 10.2628 104.961 9.66377C104.961 9.52189 105.008 9.49036 105.142 9.49036H107.302C107.436 9.49036 107.491 9.49036 107.483 9.66377C107.483 10.2628 107.483 10.854 107.483 11.453C107.483 11.6028 107.428 11.6422 107.286 11.6422H106.214Z" fill="#ADADAD"/>
<path d="M70.6806 13.802H70.6333V13.7468L70.6806 13.802Z" fill="#ADADAD"/>
<path d="M50.3281 21.5344H50.3754V21.5896L50.3281 21.5344Z" fill="#ADADAD"/>
<path d="M15.457 15.071C15.457 11.5004 15.457 7.92968 15.457 4.359C15.457 4.13041 15.5043 4.07524 15.7329 4.091C17.5182 4.22646 19.2487 4.76938 20.7914 5.67806C22.3341 6.58674 23.648 7.83698 24.632 9.33273C24.9237 9.74261 25.168 10.1761 25.4202 10.6175C25.4991 10.7515 25.4991 10.8146 25.3335 10.8777C24.9237 11.0353 24.5453 11.2166 24.1197 11.4058C23.9541 11.4846 23.8753 11.4531 23.7886 11.2875C23.0406 9.87054 21.975 8.64577 20.6751 7.70897C19.6668 7.00331 18.5479 6.47054 17.3645 6.13252C17.2305 6.13252 17.1517 6.13251 17.1754 6.26651C17.1793 6.31899 17.1793 6.37169 17.1754 6.42416V23.7652C17.1792 23.8098 17.1792 23.8546 17.1754 23.8992C17.1754 24.0884 17.2384 24.1041 17.3882 24.0647C18.1019 23.8817 18.7922 23.6173 19.4455 23.2765C21.2829 22.323 22.7867 20.8329 23.7571 19.0043C23.9305 18.6811 23.8596 18.7205 24.1906 18.8624C24.5217 19.0043 24.9788 19.1935 25.3651 19.3669C25.4439 19.3669 25.5227 19.4063 25.4518 19.5324C24.8275 20.7253 24.0307 21.8196 23.0871 22.7799C21.3425 24.4847 19.1115 25.6057 16.7024 25.988C16.3556 26.0511 15.993 26.0511 15.6304 26.0905C15.5201 26.0905 15.4807 26.0905 15.4886 25.9486C15.4925 25.8961 15.4925 25.8434 15.4886 25.7909L15.457 15.071Z" fill="#ADADAD"/>
<path d="M14.4484 15.1656C14.4484 18.7494 14.4484 22.3306 14.4484 25.9092C14.4484 26.122 14.4011 26.1772 14.1883 26.1535C12.2274 26.0281 10.3326 25.3964 8.6886 24.3203C7.04464 23.2441 5.70774 21.7601 4.80834 20.0132C4.76624 19.9408 4.7319 19.8642 4.70588 19.7846C4.65858 19.6506 4.50094 19.5087 4.56399 19.3984C4.62705 19.288 4.80835 19.2644 4.94234 19.2013C5.25764 19.0673 5.57293 18.9412 5.88034 18.7836C6.06163 18.6969 6.14045 18.7836 6.20351 18.9097C6.4693 19.503 6.80256 20.0637 7.19668 20.5807C8.55355 22.3581 10.4835 23.6113 12.6591 24.1278C12.7773 24.1278 12.8325 24.1278 12.8168 24.0016V4.61121C12.8168 4.40627 12.8562 4.31168 13.0769 4.28804C13.4867 4.23286 13.8651 4.18556 14.3223 4.1698C14.4484 4.1698 14.4957 4.1698 14.4878 4.31957C14.4837 4.37203 14.4837 4.42474 14.4878 4.47721L14.4484 15.1656Z" fill="#ADADAD"/>
</g>
<defs>
<clipPath id="clip0_4530_4466">
<rect width="125.959" height="30" fill="white"/>
</clipPath>
</defs>
</svg>
