<svg xmlns="http://www.w3.org/2000/svg" width="125" height="20" viewBox="0 0 125 20" fill="none">
  <path d="M9.65095 0.557157C12.6499 0.557157 15.6489 0.567938 18.6467 0.546355C19.101 0.546355 19.2057 0.672628 19.2046 1.11184C19.1895 7.09824 19.1895 13.0843 19.2046 19.0699C19.2046 19.5189 19.0805 19.6581 18.6349 19.6279C18.06 19.5883 17.4831 19.5883 16.9082 19.6279C16.428 19.6613 16.3028 19.4994 16.3039 19.0268C16.3212 14.1303 16.324 9.23422 16.3125 4.33848C16.3125 3.27768 16.4582 3.42229 15.4136 3.42121C10.6546 3.41545 5.89623 3.41545 1.13862 3.42121C0.0163091 3.42121 0.0163098 3.42121 0.0163098 2.31616C0.0163098 1.90608 0.0443691 1.4917 0.00767802 1.08486C-0.0300922 0.653203 0.115593 0.545288 0.547252 0.545288C3.58182 0.565792 6.61638 0.557157 9.65095 0.557157Z" fill="#ADADAD"/>
  <path d="M6.82853 6.04476C8.92963 6.04476 11.0372 6.05448 13.134 6.03613C13.5171 6.03613 13.6628 6.10519 13.6606 6.52822C13.6448 10.729 13.6448 14.9301 13.6606 19.1316C13.6606 19.5039 13.5603 19.628 13.1793 19.6161C12.316 19.5902 11.4527 19.5794 10.5894 19.6161C10.1264 19.6377 10.0671 19.451 10.0692 19.0593C10.0822 16.11 10.0617 13.1596 10.0897 10.2103C10.0951 9.67933 9.93863 9.56925 9.43036 9.57357C6.46702 9.59839 3.50259 9.57358 0.538173 9.59624C0.101118 9.59624 -0.00139831 9.4689 0.0115515 9.05667C0.0428468 8.19982 0.037451 7.33973 0.0115515 6.48289C0.00183913 6.12677 0.119466 6.03181 0.466952 6.03397C2.58856 6.05232 4.708 6.04476 6.82853 6.04476Z" fill="#ADADAD"/>
  <path d="M7.03865 16.1192C7.03865 17.1552 7.02894 18.1912 7.04513 19.2272C7.04513 19.5304 6.95771 19.6275 6.64908 19.6221C5.64187 19.6049 4.63682 19.6049 3.63394 19.6221C3.31019 19.6286 3.19688 19.5369 3.20228 19.2034C3.22494 18.4189 3.19365 17.6322 3.21739 16.8466C3.2271 16.5228 3.13861 16.4149 2.80083 16.4246C2.01198 16.4495 1.22096 16.4246 0.432105 16.4397C0.116993 16.4473 -0.00602953 16.3836 0.000445358 16.034C0.0263449 15.0347 0.0285032 14.0332 0.000445358 13.034C-0.00926698 12.6541 0.139655 12.6023 0.468795 12.6023C2.49616 12.6138 4.52424 12.6138 6.55303 12.6023C6.91671 12.6023 7.0516 12.6811 7.04189 13.0706C7.02138 14.085 7.03865 15.1038 7.03865 16.1192Z" fill="#ADADAD"/>
  <path d="M94.1923 0C97.4318 0.0444072 99.8597 2.19149 100.136 5.39214C100.295 7.2195 99.6466 8.79484 98.2488 10.0205C95.4323 12.494 90.7429 11.7968 88.8856 8.63164C86.905 5.26225 88.9611 0.827083 92.819 0.158755C93.2741 0.0810423 93.7404 0.0521784 94.1923 0ZM97.233 5.74074C97.233 4.0466 95.8919 2.75436 94.1423 2.75547C92.3927 2.75658 91.0627 4.04327 91.0538 5.7474C91.0449 7.45152 92.3982 8.77153 94.1778 8.76376C95.9175 8.75598 97.2364 7.45152 97.233 5.74074Z" fill="#ADADAD"/>
  <path d="M55.7078 0.258911C57.5285 0.354387 59.3803 0.258911 61.1544 0.591965C63.8055 1.08155 65.2143 3.12651 65.151 5.89307C65.08 8.96161 63.1394 10.9888 60.0497 11.1609C58.7253 11.2341 57.3942 11.2131 56.0653 11.2375C55.7966 11.243 55.6068 11.2053 55.6079 10.8578C55.6175 7.4377 55.6223 4.01687 55.6223 0.595299C55.642 0.481112 55.6706 0.368637 55.7078 0.258911ZM58.3878 5.73099C58.3878 6.52033 58.3967 7.31077 58.3878 8.10011C58.3823 8.43316 58.5088 8.57638 58.843 8.54418C59.2449 8.50311 59.6534 8.50089 60.0509 8.43316C61.3908 8.19559 62.2546 7.19865 62.2879 5.87975C62.3223 4.47204 61.5274 3.41626 60.1696 3.11318C59.7955 3.02992 59.4014 3.03769 59.0206 2.97996C58.4833 2.89892 58.36 3.15204 58.3823 3.63497C58.4111 4.33327 58.3867 5.03269 58.3878 5.73099Z" fill="#ADADAD"/>
  <path d="M118.294 4.23912C118.574 3.79505 118.857 3.35653 119.135 2.91246C119.594 2.17974 120.043 1.43925 120.517 0.716525C120.616 0.565541 120.802 0.374589 120.954 0.369038C121.944 0.337953 122.934 0.353494 124.011 0.353494C123.866 0.606615 123.775 0.780911 123.671 0.947437C122.768 2.37957 121.87 3.81503 120.951 5.23717C120.763 5.52804 120.766 5.73786 120.962 6.02318C122.027 7.57077 123.071 9.13168 124.123 10.6859C124.221 10.8314 124.306 10.9857 124.456 11.2266C123.295 11.2266 122.236 11.2421 121.168 11.2099C121.019 11.2099 120.841 10.9957 120.737 10.8414C120.022 9.79113 119.324 8.73202 118.619 7.67402C118.515 7.50122 118.371 7.35667 118.198 7.25326V11.1755H115.329V0.406781H118.126V4.18139L118.294 4.23912Z" fill="#ADADAD"/>
  <path d="M39.2487 8.5438C39.2487 9.37533 39.262 10.1613 39.232 10.9462C39.232 11.0473 38.9944 11.2204 38.8668 11.2216C36.7574 11.2393 34.6558 11.2304 32.5509 11.2382C32.2179 11.2382 32.1479 11.0817 32.1479 10.7941C32.1539 7.4636 32.1539 4.13306 32.1479 0.802523C32.1479 0.5383 32.1724 0.340694 32.5254 0.342914C34.7047 0.356236 36.8829 0.356235 39.0621 0.362896C39.113 0.373875 39.1623 0.391411 39.2087 0.415072V2.96848H34.99C34.99 3.44808 34.9545 3.86995 35.0133 4.2785C35.0289 4.38951 35.3208 4.54272 35.4885 4.54605C36.4654 4.57158 37.4424 4.55937 38.4604 4.55937V6.91961C37.59 6.91961 36.7097 6.9074 35.8293 6.92627C35.5551 6.93294 35.0699 6.98178 35.0522 7.08725C34.9645 7.50801 35.0011 7.95985 35.0466 8.39504C35.0533 8.45832 35.3586 8.52826 35.5262 8.52937C36.7396 8.54936 37.9553 8.5438 39.2487 8.5438Z" fill="#ADADAD"/>
  <path d="M53.1918 11.2194C52.1616 11.2194 51.1935 11.2494 50.2277 11.1894C50.07 11.1806 49.8802 10.7931 49.8036 10.5489C49.6515 10.0659 49.3806 9.90829 48.8699 9.93161C47.8941 9.97712 46.9127 9.96158 45.9357 9.93161C45.5494 9.92162 45.284 10.0149 45.1986 10.4079C45.0454 11.1162 44.6046 11.306 43.9141 11.2438C43.2235 11.1817 42.5208 11.2294 41.7292 11.2294C41.8258 10.9818 41.8802 10.8186 41.9513 10.6632C43.48 7.34378 45.0165 4.02768 46.5297 0.700469C46.7095 0.306355 46.9149 0.126504 47.3567 0.170911C47.7675 0.211988 48.1428 0.115402 48.3859 0.656059C49.9024 4.02101 51.4655 7.36488 53.0109 10.7176C53.0697 10.8508 53.1075 10.9885 53.1918 11.2194ZM46.3209 7.84558H48.609L47.4655 5.21002L46.3209 7.84558Z" fill="#ADADAD"/>
  <path d="M111.024 7.75518L112.597 9.84342C110.505 12.0638 106.451 11.9794 104.165 9.70465C103.635 9.17185 103.217 8.53734 102.938 7.83919C102.659 7.14104 102.524 6.39367 102.54 5.64193C102.557 4.8902 102.726 4.14961 103.036 3.46463C103.346 2.77965 103.791 2.16441 104.345 1.65585C106.713 -0.523431 110.379 -0.444609 112.591 1.73911L110.981 3.7874C110.056 3.09353 109.094 2.6206 107.933 2.8715C107.223 3.01722 106.583 3.40196 106.122 3.96169C105.7 4.47993 105.471 5.12839 105.474 5.79647C105.477 6.46456 105.712 7.1109 106.138 7.62529C107.284 9.00524 108.715 9.05409 111.024 7.75518Z" fill="#ADADAD"/>
  <path d="M68.0798 6.51103V4.56488C69.1711 4.56488 70.2369 4.57154 71.2994 4.56488C71.5536 4.56488 71.8689 4.57932 72.0465 4.44387C72.2941 4.25514 72.5894 3.92764 72.5849 3.66675C72.5805 3.40586 72.2752 3.08168 72.0176 2.9085C71.8145 2.77083 71.4848 2.79748 71.2105 2.79748C70.1803 2.78638 69.15 2.79748 68.0843 2.79748V0.346203C68.4806 0.346203 68.8614 0.346203 69.2433 0.346203C70.2036 0.346203 71.1661 0.326218 72.1298 0.365074C73.4409 0.418363 75.2649 1.54076 74.9951 3.42029C74.9119 3.99869 74.5511 4.53047 74.3013 5.11442C74.7733 5.24634 75.2013 5.50245 75.5407 5.85608C75.8801 6.20971 76.1184 6.64789 76.2308 7.12496C76.7059 8.93677 75.4881 10.9051 73.5486 11.1005C71.7612 11.2804 69.9416 11.1383 68.0943 11.1383V8.67255C68.2897 8.66145 68.485 8.64035 68.6816 8.64035C69.7917 8.64035 70.9019 8.64035 72.0121 8.6348C72.2698 8.63575 72.5267 8.60517 72.777 8.54377C73.3066 8.40388 73.6318 7.98091 73.5974 7.50686C73.5586 6.97175 73.2244 6.68089 72.7326 6.56321C72.5149 6.52259 72.2933 6.50694 72.072 6.51658C70.7598 6.50881 69.4465 6.51103 68.0798 6.51103Z" fill="#ADADAD"/>
  <path d="M22.4214 0.369507H25.2413V8.52155H29.4822C29.4822 9.37084 29.4955 10.158 29.4655 10.944C29.4655 11.045 29.229 11.2193 29.1014 11.2204C26.992 11.2382 24.8827 11.2282 22.78 11.2382C22.3415 11.2382 22.3837 10.9573 22.3837 10.6831C22.3837 8.67586 22.3837 6.6694 22.3837 4.66368C22.3837 3.44766 22.3837 2.23276 22.3837 1.01896C22.3892 0.815796 22.4081 0.617077 22.4214 0.369507Z" fill="#ADADAD"/>
  <path d="M86.08 8.54268V11.1916H79.0659V0.389526H81.8824V1.01234C81.8824 3.31263 81.8991 5.61403 81.8702 7.91432C81.8636 8.44055 82.0379 8.56267 82.5308 8.54934C83.692 8.52159 84.8588 8.54268 86.08 8.54268Z" fill="#ADADAD"/>
  <path d="M55.631 19.7529C55.0526 19.9272 54.7229 19.7529 54.3987 19.3633C52.971 17.6392 52.9555 17.6492 50.7118 17.698C50.6008 17.698 50.4898 17.7158 50.3121 17.7313V19.7829L49.666 19.8229V14.272C49.9058 14.272 50.1556 14.272 50.4054 14.272C51.4956 14.272 52.5869 14.2542 53.676 14.2786C54.7373 14.3031 55.4523 14.9203 55.5189 15.8196C55.5799 16.6278 55.2269 17.1973 54.4653 17.507C54.281 17.5814 54.0912 17.6414 53.8558 17.7291L55.631 19.7529ZM50.3133 17.0408C51.5145 17.0408 52.6579 17.0752 53.797 17.0275C54.4687 16.9986 54.8494 16.5479 54.8461 15.9694C54.8428 15.391 54.4931 14.9858 53.8403 14.9303C52.9966 14.8582 52.1462 14.8726 51.298 14.8537C50.9749 14.8471 50.6507 14.8537 50.3133 14.8537V17.0408Z" fill="#ADADAD"/>
  <path d="M108.98 17.7201L110.756 19.7562C110.229 19.8938 109.852 19.8483 109.581 19.4231C109.484 19.2688 109.313 19.1578 109.229 18.999C108.375 17.3948 106.914 17.6357 105.432 17.7501V19.775H104.778V14.3019C106.239 14.3019 107.678 14.2419 109.108 14.323C110.037 14.3751 110.595 15.0357 110.644 15.855C110.698 16.7332 110.279 17.2916 109.348 17.5902C109.25 17.6191 109.149 17.659 108.98 17.7201ZM105.45 17.0207C106.671 17.0207 107.867 17.0629 109.056 17.0029C109.64 16.973 109.96 16.5244 109.975 16.0038C109.989 15.4831 109.687 14.9968 109.112 14.9646C107.907 14.8958 106.693 14.9435 105.449 14.9435L105.45 17.0207Z" fill="#ADADAD"/>
  <path d="M124.337 14.9945L123.745 15.503C122.736 14.7192 121.606 14.5571 120.385 14.8047C120.33 14.8117 120.276 14.8228 120.223 14.838C119.773 15.0034 119.223 15.1233 119.26 15.7372C119.291 16.3334 119.842 16.4033 120.284 16.4788C121.12 16.6209 121.967 16.6942 122.807 16.8119C123.08 16.8533 123.347 16.9279 123.602 17.0339C124.679 17.478 124.83 18.6992 123.888 19.3975C123.136 19.9526 122.249 20.0203 121.352 19.9959C120.241 19.9659 119.131 19.5362 118.377 18.8335L118.822 18.3539C119.995 19.3298 121.312 19.5573 122.744 19.2598C122.906 19.2265 123.064 19.1724 123.212 19.0988C123.582 18.9145 123.923 18.6203 123.792 18.2107C123.73 18.0573 123.635 17.9194 123.514 17.807C123.392 17.6945 123.248 17.6102 123.09 17.5601C122.193 17.3592 121.269 17.2826 120.361 17.1283C120.019 17.0605 119.684 16.9582 119.362 16.823C118.903 16.6409 118.585 16.309 118.554 15.7983C118.523 15.2876 118.787 14.8735 119.235 14.6148C120.302 13.9964 121.455 13.9365 122.609 14.2518C123.179 14.4083 123.706 14.7181 124.337 14.9945Z" fill="#ADADAD"/>
  <path d="M77.2808 15.2797V19.7748H76.6436V14.3238C77.0554 14.2195 77.3818 14.2439 77.7171 14.5936C78.9172 15.8426 80.1595 17.0538 81.3718 18.2872C81.4989 18.4448 81.6104 18.6143 81.7049 18.7934L81.9125 18.6758V14.2994H82.5575V19.9303C82.21 19.7693 81.898 19.7082 81.7093 19.525C80.4037 18.2506 79.1226 16.9516 77.8359 15.6572C77.6949 15.5162 77.5717 15.3563 77.4407 15.2053L77.2808 15.2797Z" fill="#ADADAD"/>
  <path d="M96.5811 19.788H91.2622V14.3137H96.4956C96.621 14.7112 96.5011 14.8688 96.0648 14.8588C94.8836 14.8399 93.7024 14.8522 92.5211 14.8522H91.8983V16.6751H95.744C95.9405 17.1358 95.8151 17.2923 95.3732 17.2868C94.2319 17.2723 93.0907 17.2868 91.9106 17.2868V19.2385H96.5811V19.788Z" fill="#ADADAD"/>
  <path d="M34.9399 19.755C35.9313 17.9621 36.885 16.2213 37.8564 14.4917C38.0462 14.1531 38.6757 14.1586 38.8655 14.4983C39.8358 16.2291 40.7906 17.9676 41.772 19.7417C41.3046 19.9016 40.9627 19.8671 40.8183 19.3909C40.543 18.4805 39.9302 18.2285 39.0232 18.3296C38.3116 18.4084 37.5799 18.3606 36.8628 18.3384C36.563 18.3295 36.3787 18.4139 36.2611 18.6937C36.1517 18.9268 36.0294 19.1536 35.8947 19.3731C35.626 19.8594 35.626 19.8594 34.9399 19.755ZM36.8206 17.6834H39.8847C39.364 16.7298 38.8855 15.8439 38.3493 14.8747L36.8206 17.6834Z" fill="#ADADAD"/>
  <path d="M23.0761 19.7934H22.3756C22.3756 18.9841 22.3612 18.1992 22.3967 17.4154C22.3967 17.3299 22.6876 17.1933 22.8463 17.1878C23.8455 17.1667 24.8446 17.1878 25.8382 17.17C26.2056 17.1677 26.5709 17.115 26.924 17.0135C27.3747 16.8736 27.5812 16.515 27.5846 16.0376C27.5846 15.5392 27.3781 15.165 26.9007 15.0196C26.5477 14.9175 26.1824 14.8637 25.8149 14.8597C24.8158 14.8386 23.8166 14.842 22.8175 14.8597C22.41 14.8664 22.2768 14.7199 22.4278 14.2969C23.8566 14.2969 25.2943 14.2403 26.7253 14.3169C27.6623 14.3668 28.2551 15.094 28.2795 15.9644C28.3073 16.8603 27.7922 17.5331 26.8363 17.7007C26.2424 17.8039 25.6251 17.7795 25.0178 17.7928C24.3939 17.8062 23.7689 17.7928 23.0695 17.7928V19.7912L23.0761 19.7934Z" fill="#ADADAD"/>
  <path d="M66.1283 14.8431V19.7911H65.4888V14.8753H62.8777C62.8555 14.661 62.8388 14.5067 62.8188 14.3091H68.7738V14.8431H66.1283Z" fill="#ADADAD"/>
</svg>