<svg xmlns="http://www.w3.org/2000/svg" width="130" height="27" viewBox="0 0 130 27" fill="none">
  <path d="M40.029 11.1042C39.7971 11.1045 39.5674 11.0591 39.3531 10.9706C39.1387 10.8822 38.9439 10.7523 38.7797 10.5885C38.6155 10.4248 38.4852 10.2303 38.3962 10.0161C38.3072 9.80201 38.2613 9.57244 38.261 9.34055C38.2607 9.10866 38.3061 8.87898 38.3946 8.66463C38.4831 8.45028 38.6129 8.25545 38.7767 8.09128C38.9404 7.92711 39.1349 7.7968 39.3491 7.70779C39.5632 7.61879 39.7928 7.57283 40.0247 7.57255C40.4878 7.55258 40.9399 7.71732 41.2816 8.03057C41.6233 8.34383 41.8266 8.77994 41.8468 9.24305C41.8468 9.27122 41.8468 9.29722 41.8468 9.32322C41.8462 9.5571 41.7996 9.78858 41.7096 10.0044C41.6196 10.2203 41.4879 10.4163 41.3221 10.5813C41.1563 10.7463 40.9597 10.877 40.7434 10.966C40.5271 11.0549 40.2954 11.1005 40.0615 11.0999L40.029 11.1042Z" fill="#ADADAD"/>
  <path d="M122.394 22.0258C120.24 22.0258 118.587 20.013 118.587 17.4391C118.568 16.751 118.685 16.0659 118.931 15.423C119.177 14.7801 119.547 14.1919 120.021 13.6923C120.494 13.1926 121.062 12.7912 121.691 12.5111C122.319 12.2309 122.997 12.0774 123.685 12.0595H123.852C124.498 12.0686 125.136 12.211 125.724 12.4776L125.796 12.5101V10.4085C125.796 9.43138 125.679 9.36639 125.178 9.24722L125.026 9.21039L124.376 9.01973L128.818 7.57678V19.4454C128.818 20.5092 128.959 20.7756 129.607 20.962L130.001 21.0616L129.882 21.3411L125.802 22.0128V20.013L125.711 20.1278C124.771 21.3151 123.536 22.0258 122.394 22.0258ZM123.997 12.6336C122.537 12.6336 121.831 13.9162 121.831 16.5573C121.831 18.8712 122.697 20.3077 124.062 20.3077C124.51 20.3026 124.94 20.1263 125.262 19.8149C125.584 19.5035 125.775 19.0806 125.796 18.6329V14.4384C125.796 13.0756 124.584 12.6336 123.995 12.6336H123.997Z" fill="#ADADAD"/>
  <path d="M37.4244 21.6986L37.4721 21.4278L38.1632 21.3195C38.2935 21.3096 38.4152 21.2506 38.5036 21.1545C38.5921 21.0584 38.6408 20.9323 38.6399 20.8016V14.9887C38.6399 13.8902 38.1372 13.6129 37.6996 13.4937L37.4396 13.4287L41.6558 12.0594V20.7908C41.6515 20.9165 41.6931 21.0395 41.7728 21.1368C41.8526 21.2341 41.965 21.299 42.0891 21.3195L42.8127 21.4321L42.8604 21.7029L37.4244 21.6986Z" fill="#ADADAD"/>
  <path d="M84.4524 26.8573L84.5001 26.5864L85.1912 26.4781C85.3215 26.4682 85.4432 26.4093 85.5316 26.3132C85.6201 26.217 85.6688 26.0909 85.6679 25.9603V15.0753C85.6679 14.3365 85.3364 13.6996 84.8792 13.5587L84.4459 13.4482L88.6859 12.0594V14.0679L88.7769 13.953C89.7107 12.7679 90.8634 12.0594 92.0052 12.0594C94.1544 12.0594 95.6342 14.2802 95.6342 16.8519C95.6342 20.2817 93.0105 22.0214 90.4344 22.0214C89.8512 22.0392 89.2712 21.9282 88.7358 21.6964L88.6643 21.6639V25.9625C88.6623 26.0937 88.711 26.2207 88.8001 26.3171C88.8893 26.4135 89.0121 26.4719 89.1431 26.4803L89.8364 26.5756L89.8841 26.8464L84.4524 26.8573ZM90.3997 13.7212C89.9504 13.7389 89.5239 13.9233 89.2034 14.2386C88.8829 14.554 88.6914 14.9774 88.6664 15.4263V19.7768C88.6685 20.2116 88.8393 20.6286 89.1429 20.9398C89.4464 21.251 89.859 21.4322 90.2935 21.4451C91.2837 21.4451 92.5511 20.65 92.5511 17.2788C92.5511 14.9648 91.7755 13.7212 90.3997 13.7212Z" fill="#ADADAD"/>
  <path d="M62.1948 20.8038V15.5434C62.1902 15.104 62.0116 14.6843 61.698 14.3764C61.3845 14.0686 60.9616 13.8976 60.5222 13.9011H60.4941C60.0781 13.911 59.6818 14.0805 59.3874 14.3745C59.0929 14.6685 58.9229 15.0646 58.9124 15.4805V20.793C58.9105 20.9165 58.9533 21.0365 59.0329 21.1309C59.1126 21.2253 59.2237 21.2877 59.3458 21.3065L60.0694 21.4192L60.1171 21.69H54.8696L54.9172 21.4192L55.4524 21.3065C55.5726 21.2862 55.6818 21.2243 55.761 21.1316C55.8402 21.039 55.8844 20.9214 55.8857 20.7995V10.2785C55.8856 10.0364 55.8129 9.79975 55.6769 9.59931C55.541 9.39886 55.3481 9.24378 55.1231 9.15409L54.6508 8.96776L58.9428 7.57031V14.0094L59.0359 13.8686C59.0489 13.8513 60.2601 12.066 62.405 12.066C63.1458 12.0835 63.8524 12.3808 64.3831 12.898C64.8792 13.4158 65.1782 14.3279 65.1782 15.3332L65.1999 20.8147C65.1979 20.9382 65.2407 21.0582 65.3204 21.1526C65.4 21.247 65.5111 21.3093 65.6332 21.3282L66.3568 21.4408L66.4045 21.7116H61.1679L61.2155 21.4408L61.7507 21.3282C61.8709 21.3078 61.9801 21.246 62.0593 21.1533C62.1385 21.0606 62.1826 20.9431 62.184 20.8212" fill="#ADADAD"/>
  <path d="M25.9418 8.46948C25.9427 8.33884 25.894 8.21273 25.8055 8.11661C25.7171 8.02049 25.5954 7.96154 25.4651 7.95166L24.774 7.84333L24.7263 7.57251H30.6888L30.6368 7.84333L29.9456 7.95166C29.8152 7.96104 29.6932 8.01984 29.6046 8.11607C29.5161 8.2123 29.4675 8.3387 29.469 8.46948V20.663C29.469 21.2372 30.2208 21.1505 30.2208 21.1505C32.37 21.1505 33.7003 20.3446 35.1433 17.2052L35.3794 16.6895H36.0533L35.4553 21.6987H24.7307L24.7783 21.4279L25.4695 21.3195C25.5997 21.3096 25.7214 21.2507 25.8099 21.1546C25.8983 21.0585 25.947 20.9323 25.9461 20.8017L25.9418 8.46948Z" fill="#ADADAD"/>
  <path d="M71.3684 22.0259C70.6418 22.0173 69.948 21.7223 69.4376 21.2051C68.9273 20.6878 68.6417 19.9901 68.6429 19.2634V13.7018H66.5153L67.8369 12.4019H68.2875C68.3818 12.4019 68.4721 12.3644 68.5388 12.2978C68.6054 12.2312 68.6429 12.1408 68.6429 12.0465V10.8874L71.4594 9.95361V12.4062H74.1612L72.9262 13.7061H71.4659V18.9255C71.4659 20.2622 72.4214 20.7476 73.067 20.7476C73.3412 20.7446 73.6111 20.6787 73.8557 20.5547L73.8947 20.5396L74.1612 20.8494C73.392 21.5275 72.6164 22.0259 71.3684 22.0259Z" fill="#ADADAD"/>
  <path d="M100.544 16.0417L106.339 16.1306C106.361 15.9507 106.365 15.3766 106.357 15.1751C106.292 13.7105 105.273 12.0574 102.611 12.0574C99.6013 12.0574 97.3307 14.2608 97.3307 17.2572C97.3307 19.9849 99.3044 22.0237 101.924 22.0237C104.025 22.0237 105.501 21.0877 106.32 19.1876L106.103 19.0013C105.84 19.4095 105.476 19.7434 105.046 19.971C104.617 20.1986 104.136 20.3123 103.651 20.3012C101.774 20.3012 100.546 18.7846 100.524 16.4252C100.523 16.2971 100.53 16.1691 100.544 16.0417ZM100.544 15.3181C100.691 13.4917 101.322 12.6619 102.314 12.6619C102.449 12.6588 102.584 12.6837 102.709 12.7352C102.834 12.7866 102.948 12.8635 103.042 12.9608C103.453 13.379 103.653 14.0441 103.633 15.3008V15.3506L100.542 15.3723L100.544 15.3181Z" fill="#ADADAD"/>
  <path d="M111.069 16.0417L116.865 16.1306C116.884 15.9507 116.891 15.3766 116.882 15.1751C116.817 13.7105 115.799 12.0574 113.136 12.0574C110.126 12.0574 107.856 14.2608 107.856 17.2572C107.856 19.9849 109.83 22.0237 112.449 22.0237C114.551 22.0237 116.026 21.0877 116.845 19.1876L116.628 19.0013C116.367 19.4158 116.002 19.7554 115.57 19.987C115.138 20.2186 114.653 20.3343 114.163 20.3229C112.287 20.3229 111.06 18.8063 111.039 16.4469C111.039 16.3113 111.049 16.1759 111.069 16.0417ZM111.069 15.3181C111.216 13.4917 111.847 12.6619 112.837 12.6619C112.972 12.6584 113.107 12.6832 113.232 12.7346C113.358 12.7861 113.471 12.8632 113.565 12.9608C113.979 13.379 114.176 14.0441 114.156 15.3008V15.3506L111.065 15.3723L111.069 15.3181Z" fill="#ADADAD"/>
  <path d="M80.2732 15.7427C78.9927 15.2509 78.0286 14.876 78.0286 13.9292C78.0286 13.0626 78.6331 12.5578 79.504 12.5578C79.9329 12.5585 80.3533 12.6769 80.7195 12.9001L82.3401 15.253L82.8948 15.2314L82.7864 12.053L81.7421 12.3931C81.0228 12.1743 80.2754 12.0619 79.5235 12.0595C77.2205 12.0595 75.6843 13.2749 75.6843 15.1729C75.6843 16.9213 77.006 17.5843 78.6287 18.2061C79.8225 18.6762 80.934 19.0121 80.934 20.2167C80.934 20.9035 80.284 21.5751 79.2267 21.5751C78.1174 21.5751 77.5411 21.0205 76.8175 19.9545L76.2238 18.7196L75.654 18.8582L75.4525 21.3606C76.6459 21.7839 77.902 22.0036 79.1682 22.0106C82.026 22.0106 83.3281 20.494 83.3281 18.8322C83.3216 16.9625 81.7443 16.345 80.2732 15.7427Z" fill="#ADADAD"/>
  <path d="M50.6863 19.8895H47.2956C47.093 19.875 46.903 19.7855 46.7628 19.6385C46.6226 19.4915 46.5422 19.2975 46.5373 19.0944C46.533 18.9883 46.5496 18.8825 46.5863 18.7829C46.6229 18.6833 46.6789 18.5919 46.751 18.514C46.823 18.4361 46.9098 18.3732 47.0062 18.3289C47.1026 18.2846 47.2069 18.2598 47.3129 18.2559H47.3368C47.3829 18.2516 47.4293 18.2516 47.4754 18.2559C47.7984 18.3154 48.1263 18.3444 48.4547 18.3426C51.0286 18.3426 52.7727 17.0015 52.7727 15.11C52.7727 14.5467 52.6796 14.1372 52.3611 13.7797L53.5419 12.6964L53.2559 11.8623L51.2366 12.6943C50.4229 12.2723 49.5187 12.0544 48.6021 12.0595C46.0932 12.0595 44.3902 13.6714 44.3902 15.3722C44.3902 16.839 45.22 17.6493 46.4333 18.0739V18.0956C45.1789 18.4574 44.0306 19.3089 44.0306 20.4572C44.0306 21.4776 45.051 22.3919 46.3076 22.5414C45.0315 23.0311 43.7749 23.6052 43.7749 24.7318C43.7749 26.1575 45.1355 26.8594 47.8914 26.8594C51.4035 26.8594 53.8929 24.9095 53.8929 22.6259C53.895 20.9208 52.5713 19.8895 50.6863 19.8895ZM47.5881 13.2598C47.6816 13.0791 47.8231 12.9278 47.997 12.8223C48.1709 12.7168 48.3705 12.6613 48.5739 12.6618C49.3734 12.6618 49.8739 13.3443 49.8739 15.2855C49.8739 17.2268 49.499 17.8854 48.5739 17.8854C47.7918 17.8854 47.3411 17.112 47.3411 15.2617C47.3454 14.3561 47.3953 13.6801 47.5881 13.2598ZM48.1687 26.1293C46.8298 26.1293 46.0433 25.3407 46.0433 24.1924C46.0433 23.3257 46.988 22.5696 47.8438 22.5696H49.655C51.1716 22.6758 51.8888 23.0029 51.8888 24.0862C51.8888 25.293 49.8934 26.1293 48.1796 26.1293H48.1687Z" fill="#ADADAD"/>
  <path d="M14.1283 14.6357H7.06525V7.57257L0 0.507324V7.57257V14.6357V21.7009H7.06525H14.1283H21.1936L14.1283 14.6357Z" fill="#ADADAD"/>
</svg>