<svg xmlns="http://www.w3.org/2000/svg" width="107" height="12" viewBox="0 0 107 12" fill="none">
  <path d="M7.80487 11.9965L2.76384 2.73166V11.9965H0V0.000976562H4.33008L8.98687 8.48559L13.6456 0.000976562H17.9172V11.9965H15.1338V2.73166L10.1094 11.9965H7.80487Z" fill="#ADADAD"/>
  <path d="M26.6695 11.9955H23.8276V0H26.6695V11.9955Z" fill="#ADADAD"/>
  <path d="M32.2159 6.40284H40.7776C42.4355 6.40284 43.3874 5.68116 43.3874 4.43188C43.3874 3.16406 42.4394 2.4414 40.7776 2.4414H32.2159V0.0032959H40.9268C44.0778 0.0032959 46.2048 1.52565 46.2048 4.41335C46.2048 6.55888 44.9672 7.98761 42.9953 8.53082L46.5354 11.9968H43.2674L39.9994 8.80389H35.0549V11.9968H32.214L32.2159 6.40284Z" fill="#ADADAD"/>
  <path d="M58.1879 2.83236L52.6407 11.9996H49.6106L56.607 0.00415039H59.7951L66.7915 11.9996H63.7185L58.1879 2.83236Z" fill="#ADADAD"/>
  <path d="M85.0011 11.9968H82.4889L73.424 3.65363V11.9988H70.6797V0.0032959H73.5791L82.2373 7.88326V0.0032959H85.0011V11.9968Z" fill="#ADADAD"/>
  <path d="M97.6035 2.83236L92.0563 11.9996H89.0223L96.0187 0.00415039H99.2068L106.204 11.9996H103.131L97.6035 2.83236Z" fill="#ADADAD"/>
</svg>