<svg xmlns="http://www.w3.org/2000/svg" width="155" height="26" viewBox="0 0 155 26" fill="none">
  <path d="M39.8905 7.73139C39.8722 7.68661 39.8659 7.63782 39.8723 7.58986C39.8787 7.54191 39.8975 7.49645 39.9269 7.45802C39.9563 7.41959 39.9952 7.38952 40.0398 7.37079C40.0844 7.35207 40.1332 7.34533 40.1812 7.35127H41.6569C41.7226 7.35358 41.786 7.37637 41.8381 7.41646C41.8902 7.45655 41.9285 7.51194 41.9476 7.57487L43.6246 14.0368H43.6917L46.263 7.37364C46.2806 7.31769 46.3168 7.26945 46.3657 7.23691C46.4145 7.20437 46.4729 7.1895 46.5313 7.19476H46.822C46.8804 7.1895 46.9389 7.20437 46.9877 7.23691C47.0365 7.26945 47.0727 7.31769 47.0903 7.37364L49.684 14.0368H49.7511L51.4057 7.57487C51.4248 7.51194 51.4631 7.45655 51.5152 7.41646C51.5674 7.37637 51.6307 7.35358 51.6964 7.35127H53.1722C53.2202 7.34533 53.2689 7.35207 53.3135 7.37079C53.3581 7.38952 53.3971 7.41959 53.4264 7.45802C53.4558 7.49645 53.4747 7.54191 53.481 7.58986C53.4874 7.63782 53.4812 7.68661 53.4628 7.73139L50.3996 18.5982C50.3842 18.6632 50.3469 18.7209 50.2939 18.7616C50.241 18.8023 50.1756 18.8236 50.1089 18.8218H49.8406C49.7821 18.8271 49.7237 18.8122 49.6749 18.7796C49.6261 18.7471 49.5899 18.6989 49.5722 18.6429L46.7102 11.3313H46.6208L43.7587 18.6653C43.7382 18.7193 43.7014 18.7657 43.6533 18.7977C43.6051 18.8298 43.5482 18.846 43.4904 18.8442H43.2221C43.1553 18.846 43.09 18.8247 43.0371 18.784C42.9841 18.7433 42.9468 18.6856 42.9314 18.6206L39.8905 7.73139Z" fill="#ADADAD"/>
  <path d="M56.6825 7.66424C56.6882 7.58311 56.723 7.50676 56.7805 7.44925C56.8381 7.39174 56.9144 7.35692 56.9955 7.3512H58.4936C58.5748 7.35692 58.6511 7.39174 58.7086 7.44925C58.7661 7.50676 58.8009 7.58311 58.8067 7.66424V18.3745C58.8009 18.4557 58.7661 18.532 58.7086 18.5895C58.6511 18.647 58.5748 18.6818 58.4936 18.6876H56.9955C56.9144 18.6818 56.8381 18.647 56.7805 18.5895C56.723 18.532 56.6882 18.4557 56.6825 18.3745V7.66424Z" fill="#ADADAD"/>
  <path d="M63.1222 7.48538C63.1289 7.40667 63.1647 7.33327 63.2225 7.27952C63.2804 7.22577 63.3563 7.19553 63.4352 7.1947H63.8377L70.568 14.3498H70.5903V7.66426C70.5921 7.58177 70.6256 7.50314 70.6839 7.4448C70.7423 7.38646 70.8209 7.35293 70.9034 7.35122H72.3791C72.4603 7.35694 72.5366 7.39176 72.5941 7.44927C72.6516 7.50678 72.6864 7.58312 72.6922 7.66426V18.5534C72.6855 18.6321 72.6497 18.7055 72.5918 18.7593C72.534 18.813 72.4581 18.8433 72.3791 18.8441H71.9767L65.224 11.4207H65.2017V18.3745C65.2 18.457 65.1664 18.5357 65.1081 18.594C65.0497 18.6523 64.9711 18.6859 64.8886 18.6876H63.4129C63.3318 18.6819 63.2554 18.647 63.1979 18.5895C63.1404 18.532 63.1056 18.4557 63.0999 18.3745L63.1222 7.48538Z" fill="#ADADAD"/>
  <path d="M78.4838 9.29649H76.0019C75.9194 9.29478 75.8408 9.26125 75.7824 9.20291C75.7241 9.14457 75.6906 9.06594 75.6888 8.98346V7.66424C75.6906 7.58175 75.7241 7.50312 75.7824 7.44478C75.8408 7.38644 75.9194 7.35291 76.0019 7.3512H83.0675C83.15 7.35291 83.2287 7.38644 83.287 7.44478C83.3453 7.50312 83.3789 7.58175 83.3806 7.66424V8.98346C83.3789 9.06594 83.3453 9.14457 83.287 9.20291C83.2287 9.26125 83.15 9.29478 83.0675 9.29649H80.5856V18.3745C80.5799 18.4557 80.5451 18.532 80.4876 18.5895C80.43 18.647 80.3537 18.6818 80.2726 18.6876H78.7745C78.6933 18.6818 78.617 18.647 78.5595 18.5895C78.502 18.532 78.4672 18.4557 78.4614 18.3745V9.29649H78.4838Z" fill="#ADADAD"/>
  <path d="M86.3978 7.66424C86.3995 7.58175 86.4331 7.50312 86.4914 7.44478C86.5497 7.38644 86.6284 7.35291 86.7109 7.3512H93.2846C93.3671 7.35291 93.4457 7.38644 93.5041 7.44478C93.5624 7.50312 93.5959 7.58175 93.5976 7.66424V8.98346C93.5959 9.06594 93.5624 9.14457 93.5041 9.20291C93.4457 9.26125 93.3671 9.29478 93.2846 9.29649H88.4996V11.9573H92.502C92.5832 11.963 92.6595 11.9978 92.717 12.0553C92.7745 12.1129 92.8093 12.1892 92.8151 12.2703V13.6119C92.8133 13.6944 92.7798 13.773 92.7215 13.8314C92.6631 13.8897 92.5845 13.9232 92.502 13.925H88.4996V16.7646H93.2846C93.3671 16.7663 93.4457 16.7999 93.5041 16.8582C93.5624 16.9166 93.5959 16.9952 93.5976 17.0777V18.3969C93.5959 18.4794 93.5624 18.558 93.5041 18.6163C93.4457 18.6747 93.3671 18.7082 93.2846 18.7099H86.7109C86.6284 18.7082 86.5497 18.6747 86.4914 18.6163C86.4331 18.558 86.3995 18.4794 86.3978 18.3969V7.66424Z" fill="#ADADAD"/>
  <path d="M97.3772 7.6643C97.3789 7.58181 97.4124 7.50318 97.4708 7.44484C97.5291 7.38651 97.6077 7.35297 97.6902 7.35126H102.319C102.778 7.34654 103.234 7.43248 103.661 7.60415C104.087 7.77582 104.475 8.02987 104.804 8.35175C105.132 8.67364 105.393 9.05706 105.573 9.48007C105.753 9.90308 105.847 10.3574 105.852 10.817C105.852 12.2927 104.868 13.5225 103.459 14.0815L105.673 18.1957C105.702 18.2427 105.719 18.2969 105.72 18.3524C105.721 18.408 105.707 18.4628 105.679 18.5111C105.652 18.5593 105.612 18.5991 105.563 18.6263C105.515 18.6535 105.46 18.6669 105.404 18.6653H103.705C103.65 18.6664 103.596 18.6524 103.549 18.6248C103.501 18.5972 103.463 18.557 103.437 18.5087L101.29 14.2157H99.5014V18.3299C99.4956 18.411 99.4608 18.4873 99.4033 18.5449C99.3458 18.6024 99.2695 18.6372 99.1883 18.6429H97.6902C97.6077 18.6412 97.5291 18.6077 97.4708 18.5493C97.4124 18.491 97.3789 18.4124 97.3772 18.3299V7.6643ZM102.117 12.494C102.548 12.4818 102.957 12.3021 103.258 11.9932C103.559 11.6843 103.727 11.2704 103.727 10.8394C103.716 10.4202 103.541 10.0221 103.24 9.7298C102.94 9.43749 102.537 9.27403 102.117 9.27419H99.479V12.494H102.117Z" fill="#ADADAD"/>
  <path d="M110.635 7.41837C110.643 7.34779 110.677 7.28278 110.731 7.23695C110.785 7.19111 110.855 7.16799 110.926 7.17241H111.194C111.249 7.16962 111.304 7.18294 111.352 7.21073C111.399 7.23853 111.438 7.2796 111.463 7.32893L115.018 14.9536H115.063L118.618 7.32893C118.642 7.2796 118.681 7.23853 118.729 7.21073C118.776 7.18294 118.831 7.16962 118.886 7.17241H119.154C119.225 7.16799 119.295 7.19111 119.349 7.23695C119.403 7.28278 119.438 7.34779 119.445 7.41837L121.346 18.2852C121.36 18.3299 121.363 18.3774 121.355 18.4236C121.346 18.4697 121.327 18.5133 121.299 18.5505C121.27 18.5878 121.233 18.6176 121.191 18.6376C121.148 18.6576 121.102 18.6671 121.055 18.6653H119.602C119.531 18.6588 119.464 18.6321 119.409 18.5885C119.353 18.5449 119.311 18.4861 119.289 18.4193L118.327 12.2928H118.282L115.443 18.6429C115.422 18.697 115.385 18.7433 115.337 18.7754C115.289 18.8075 115.232 18.8237 115.174 18.8218H114.906C114.848 18.8237 114.791 18.8075 114.743 18.7754C114.695 18.7433 114.658 18.697 114.638 18.6429L111.776 12.2928H111.731L110.792 18.4193C110.774 18.485 110.737 18.5436 110.685 18.5876C110.633 18.6315 110.569 18.6586 110.501 18.6653H109.048C109.001 18.666 108.954 18.656 108.911 18.6361C108.868 18.6162 108.83 18.587 108.8 18.5505C108.77 18.514 108.748 18.4712 108.737 18.4252C108.726 18.3793 108.725 18.3315 108.735 18.2852L110.635 7.41837Z" fill="#ADADAD"/>
  <path d="M124.7 7.66424C124.706 7.58311 124.741 7.50676 124.798 7.44925C124.856 7.39174 124.932 7.35692 125.013 7.3512H126.556C126.638 7.35291 126.717 7.38644 126.775 7.44478C126.834 7.50312 126.867 7.58175 126.869 7.66424V14.2827C126.869 15.6466 127.808 16.7423 129.217 16.7423C130.625 16.7423 131.587 15.669 131.587 14.3051V7.68659C131.589 7.60411 131.622 7.52548 131.68 7.46714C131.739 7.40881 131.817 7.37527 131.9 7.37356H133.443C133.524 7.37928 133.6 7.4141 133.658 7.47161C133.715 7.52912 133.75 7.60546 133.756 7.68659V14.4169C133.756 15.6118 133.281 16.7578 132.436 17.6027C131.591 18.4477 130.445 18.9223 129.25 18.9223C128.055 18.9223 126.909 18.4477 126.064 17.6027C125.219 16.7578 124.745 15.6118 124.745 14.4169V7.66424H124.7Z" fill="#ADADAD"/>
  <path d="M139.435 9.29649H136.953C136.871 9.29478 136.792 9.26125 136.734 9.20291C136.675 9.14457 136.642 9.06594 136.64 8.98346V7.66424C136.642 7.58175 136.675 7.50312 136.734 7.44478C136.792 7.38644 136.871 7.35291 136.953 7.3512H144.019C144.101 7.35291 144.18 7.38644 144.238 7.44478C144.297 7.50312 144.33 7.58175 144.332 7.66424V8.98346C144.33 9.06594 144.297 9.14457 144.238 9.20291C144.18 9.26125 144.101 9.29478 144.019 9.29649H141.537V18.3745C141.535 18.457 141.502 18.5356 141.443 18.594C141.385 18.6523 141.306 18.6858 141.224 18.6876H139.726C139.645 18.6818 139.568 18.647 139.511 18.5895C139.453 18.532 139.419 18.4557 139.413 18.3745V9.29649H139.435Z" fill="#ADADAD"/>
  <path d="M147.351 7.66424C147.353 7.58175 147.386 7.50312 147.445 7.44478C147.503 7.38644 147.582 7.35291 147.664 7.3512H154.238C154.32 7.35291 154.399 7.38644 154.457 7.44478C154.516 7.50312 154.549 7.58175 154.551 7.66424V8.98346C154.549 9.06594 154.516 9.14457 154.457 9.20291C154.399 9.26125 154.32 9.29478 154.238 9.29649H149.453V11.9573H153.455C153.536 11.963 153.613 11.9978 153.67 12.0553C153.728 12.1129 153.763 12.1892 153.768 12.2703V13.6119C153.769 13.6533 153.762 13.6944 153.746 13.7328C153.731 13.7712 153.708 13.806 153.679 13.8353C153.649 13.8646 153.615 13.8876 153.576 13.903C153.538 13.9184 153.497 13.9259 153.455 13.925H149.453V16.7646H154.238C154.32 16.7663 154.399 16.7999 154.457 16.8582C154.516 16.9166 154.549 16.9952 154.551 17.0777V18.3969C154.549 18.4794 154.516 18.558 154.457 18.6163C154.399 18.6747 154.32 18.7082 154.238 18.7099H147.664C147.582 18.7082 147.503 18.6747 147.445 18.6163C147.386 18.558 147.353 18.4794 147.351 18.3969V7.66424Z" fill="#ADADAD"/>
  <path d="M0.00059279 16.8094V17.0777C-0.000868302 17.0899 0.00037976 17.1022 0.00424599 17.1138C0.00811223 17.1254 0.014501 17.136 0.022953 17.1448C0.022953 17.1672 0.0453123 17.1895 0.0453123 17.2119C0.0453123 17.2342 0.0676725 17.2566 0.0676725 17.279C0.0700355 17.2959 0.0778894 17.3116 0.0900319 17.3237C0.112392 17.346 0.112392 17.3684 0.134751 17.3684C0.157111 17.3684 0.157111 17.4131 0.179471 17.4131L0.22419 17.4578L0.268909 17.5026C0.291269 17.5249 0.313628 17.5249 0.335988 17.5473C0.358348 17.5696 0.358348 17.5696 0.380708 17.5696L16.1666 25.4626H16.189C16.1919 25.4626 16.1948 25.4632 16.1976 25.4643C16.2003 25.4654 16.2027 25.4671 16.2048 25.4692C16.2069 25.4712 16.2085 25.4737 16.2097 25.4764C16.2108 25.4791 16.2114 25.482 16.2114 25.485H16.2337C16.2561 25.485 16.2561 25.485 16.2784 25.5073H16.6809C16.7033 25.5073 16.7033 25.5073 16.7256 25.485H16.748C16.7539 25.485 16.7596 25.4826 16.7638 25.4784C16.768 25.4742 16.7704 25.4685 16.7704 25.4626H16.7927L32.5787 17.5696C32.601 17.5696 32.601 17.5473 32.6234 17.5473C32.6457 17.5473 32.6681 17.5249 32.6905 17.5026L32.7352 17.4578L32.7799 17.4131L32.8246 17.3684C32.847 17.346 32.847 17.3237 32.8693 17.3237C32.8821 17.3121 32.8901 17.2961 32.8917 17.279C32.8917 17.2566 32.9141 17.2342 32.9141 17.2119C32.9141 17.1895 32.9364 17.1672 32.9364 17.1448C32.9349 17.1327 32.9362 17.1204 32.9401 17.1088C32.9439 17.0972 32.9503 17.0866 32.9588 17.0777V16.8094C32.9588 16.787 32.9364 16.7647 32.9364 16.7423C32.9364 16.72 32.9141 16.6976 32.9141 16.6752V16.6529L25.0211 0.86695C25.0211 0.86102 25.0187 0.855333 25.0145 0.85114C25.0103 0.846946 25.0047 0.844589 24.9987 0.844589C24.982 0.798527 24.9505 0.759247 24.9093 0.732791L24.8869 0.710433C24.8554 0.674035 24.8175 0.643718 24.7751 0.620992C24.7528 0.620992 24.7528 0.598635 24.7304 0.598635C24.708 0.598635 24.6633 0.553912 24.6186 0.553912C24.5739 0.553912 24.5962 0.553914 24.5739 0.531555C24.5239 0.513214 24.4705 0.505594 24.4174 0.509194H24.395C24.3563 0.503361 24.3167 0.511273 24.2832 0.531555C24.2609 0.531555 24.2609 0.531553 24.2385 0.553912C24.2212 0.554244 24.2042 0.558431 24.1887 0.566168C24.1732 0.573904 24.1597 0.584997 24.1491 0.598635H24.1267C24.1043 0.598635 24.1043 0.620992 24.082 0.620992C24.0596 0.620992 24.0373 0.643351 24.0149 0.665711L23.9702 0.710433L23.9255 0.755152L23.8807 0.79987C23.8584 0.82223 23.8584 0.844589 23.836 0.844589C23.8233 0.856195 23.8153 0.872139 23.8137 0.889308C23.8137 0.911667 23.7913 0.934028 23.7913 0.956387C23.7913 0.978747 23.7689 1.00111 23.7689 1.02347C23.7704 1.03561 23.7692 1.04792 23.7653 1.05952C23.7614 1.07112 23.755 1.08171 23.7466 1.09055V15.4007L16.9716 8.62576C16.9389 8.59061 16.9013 8.56047 16.8598 8.53632C16.8374 8.53632 16.8374 8.51396 16.8151 8.51396C16.7927 8.51396 16.7704 8.4916 16.748 8.46924C16.7256 8.44688 16.7033 8.44689 16.6809 8.44689C16.6586 8.44689 16.6362 8.42453 16.6138 8.42453C16.5915 8.42453 16.5244 8.40216 16.4797 8.40216C16.4338 8.39864 16.3878 8.40631 16.3455 8.42453C16.3232 8.42453 16.3008 8.44689 16.2784 8.44689C16.2561 8.44689 16.2337 8.46924 16.2114 8.46924C16.189 8.46924 16.1666 8.4916 16.1443 8.51396C16.1219 8.53632 16.1219 8.53632 16.0996 8.53632C16.0571 8.55905 16.0193 8.58936 15.9878 8.62576L9.21278 15.4007V1.09055C9.21425 1.07841 9.213 1.0661 9.20913 1.0545C9.20527 1.0429 9.19888 1.0323 9.19042 1.02347C9.19042 1.00111 9.16806 0.978747 9.16806 0.956387C9.16806 0.934028 9.14571 0.911667 9.14571 0.889308C9.14334 0.872357 9.13549 0.85665 9.12335 0.844589C9.10099 0.822229 9.10099 0.79987 9.07863 0.79987C9.05627 0.79987 9.05627 0.755152 9.03391 0.755152L8.98919 0.710433L8.94447 0.665711C8.92211 0.643351 8.89975 0.643352 8.87739 0.620992C8.85503 0.598632 8.85503 0.598635 8.83267 0.598635H8.81031C8.78795 0.576275 8.74323 0.576272 8.72087 0.553912C8.69851 0.531553 8.69851 0.553914 8.67615 0.531555C8.65379 0.509195 8.60907 0.509194 8.56435 0.509194H8.54199C8.48883 0.505594 8.4355 0.513214 8.38548 0.531555C8.36312 0.531555 8.36312 0.531553 8.34076 0.553912C8.3184 0.576272 8.25132 0.576275 8.22896 0.598635C8.2066 0.620994 8.2066 0.620992 8.18424 0.620992C8.14277 0.64514 8.1051 0.67528 8.07244 0.710433L8.05008 0.732791C8.02772 0.77751 7.983 0.79987 7.96064 0.844589C7.96064 0.850519 7.95829 0.856206 7.95409 0.860399C7.9499 0.864593 7.94421 0.86695 7.93828 0.86695L0.0453123 16.6529V16.6752C0.0453123 16.6976 0.022953 16.72 0.022953 16.7423C0.022953 16.7647 0.00059279 16.787 0.00059279 16.8094ZM8.25132 17.6144L13.081 22.444L3.42163 17.6144H8.25132ZM24.5739 17.6144H29.4036L19.7442 22.444L24.5739 17.6144ZM24.9764 16.2951V3.95259L31.1476 16.2951H24.9764ZM17.0834 23.249V10.6381L23.3888 16.9436L17.0834 23.249ZM15.7642 23.249L9.45874 16.9436L15.7642 10.6381V23.249ZM1.69993 16.2951L7.8712 3.95259V16.2951H1.69993Z" fill="#ADADAD"/>
</svg>