<svg width="32" height="32" viewBox="0 0 32 32" fill="none" xmlns="http://www.w3.org/2000/svg">
<g clip-path="url(#clip0_4744_50247)">
<path d="M16.0003 2.74609L20.1897 8.78931L16.0003 10.3293L11.7305 8.78931L16.0003 2.74609Z" fill="#D82292"/>
<path d="M11.7305 17.2488H20.1897L20.1897 8.78957L16.0004 10.3253L11.7305 8.78955L11.7305 17.2488Z" fill="#EF6FC4"/>
<path d="M20.1893 8.78955V17.2488L16 15.718V10.3257L20.1893 8.78955Z" fill="#FF8ABC"/>
<path d="M16.0003 23.2898L11.7305 17.2485L16.0003 15.7178L20.1897 17.2485L16.0003 23.2898Z" fill="#D82292"/>
<path d="M17.4082 28.0371L18.1877 23.272L20.5967 23.4835L21.6853 25.721L17.4082 28.0371Z" fill="#E748B1"/>
<path d="M25.2434 20.6395L21.7845 18.1938L18.2324 23.2727L20.5966 23.4835L21.6853 25.7211L25.2434 20.6395Z" fill="#FF8ABC"/>
<path d="M18.1895 23.272L21.7476 18.1904L22.8627 20.2498L20.5985 23.4836L18.1895 23.272Z" fill="#DA33A2"/>
<path d="M26.0033 15.8179L25.2438 20.6395L22.8612 20.2497L21.7461 18.1903L26.0033 15.8179Z" fill="#E748B1"/>
<path d="M14.6034 28.0371L13.8238 23.272L11.4149 23.4835L10.3262 25.721L14.6034 28.0371Z" fill="#D82292"/>
<path d="M6.76758 20.6395L10.2265 18.1938L13.7786 23.2727L11.4144 23.4835L10.3257 25.7211L6.76758 20.6395Z" fill="#E748B1"/>
<path d="M13.8237 23.272L10.2655 18.1904L9.15039 20.2498L11.4146 23.4836L13.8237 23.272Z" fill="#DA33A2"/>
<path d="M6.00977 15.8179L6.76927 20.6395L9.15183 20.2497L10.267 18.1903L6.00977 15.8179Z" fill="#FF8ABC"/>
</g>
<defs>
<clipPath id="clip0_4744_50247">
<rect width="23.5247" height="26.6667" fill="white" transform="translate(4.23828 2.6665)"/>
</clipPath>
</defs>
</svg>
