<svg width="18" height="18" viewBox="0 0 18 18" fill="none" xmlns="http://www.w3.org/2000/svg">
<rect x="0.5" y="0.5" width="17" height="17" rx="8.5" fill="url(#paint0_linear_5839_24474)"/>
<g filter="url(#filter0_d_5839_24474)">
<path d="M10.7867 11.2981H9.22195C9.18966 11.2981 9.17352 11.2981 9.15915 11.2934C9.1464 11.2892 9.13478 11.2824 9.12488 11.2733C9.11372 11.2631 9.10555 11.2486 9.08921 11.2195L9.08921 11.2195C7.33612 8.09909 6.15771 7.26859 3.82035 7.84261C3.71998 7.86726 3.66979 7.87959 3.63812 7.86297C3.61215 7.84934 3.59184 7.81997 3.58826 7.79086C3.5839 7.75536 3.61039 7.71679 3.66336 7.63964C5.12366 5.51312 10.2353 6.82311 10.9338 11.1257C10.9432 11.1841 10.948 11.2133 10.9392 11.2368C10.9316 11.2571 10.9164 11.2749 10.8976 11.2856C10.8758 11.2981 10.8461 11.2981 10.7867 11.2981Z" fill="white"/>
</g>
<g filter="url(#filter1_d_5839_24474)">
<path d="M7.93121 6.90447C10.1996 7.93782 10.8678 9.83871 11.1038 11.2191C11.1116 11.2648 11.151 11.298 11.1973 11.298H13.9011C13.969 11.298 14.0147 11.2284 13.9878 11.1661L12.086 6.75869C12.071 6.72408 12.037 6.70166 11.9993 6.70166H7.97089C7.86517 6.70166 7.835 6.86064 7.93121 6.90447Z" fill="white"/>
</g>
<defs>
<filter id="filter0_d_5839_24474" x="3.21011" y="6.63916" width="8.11102" height="5.41474" filterUnits="userSpaceOnUse" color-interpolation-filters="sRGB">
<feFlood flood-opacity="0" result="BackgroundImageFix"/>
<feColorMatrix in="SourceAlpha" type="matrix" values="0 0 0 0 0 0 0 0 0 0 0 0 0 0 0 0 0 0 127 0" result="hardAlpha"/>
<feOffset dy="0.377778"/>
<feGaussianBlur stdDeviation="0.188889"/>
<feComposite in2="hardAlpha" operator="out"/>
<feColorMatrix type="matrix" values="0 0 0 0 0 0 0 0 0 0 0 0 0 0 0 0 0 0 0.1 0"/>
<feBlend mode="normal" in2="BackgroundImageFix" result="effect1_dropShadow_5839_24474"/>
<feBlend mode="normal" in="SourceGraphic" in2="effect1_dropShadow_5839_24474" result="shape"/>
</filter>
<filter id="filter1_d_5839_24474" x="7.49527" y="6.70166" width="6.8786" height="5.35175" filterUnits="userSpaceOnUse" color-interpolation-filters="sRGB">
<feFlood flood-opacity="0" result="BackgroundImageFix"/>
<feColorMatrix in="SourceAlpha" type="matrix" values="0 0 0 0 0 0 0 0 0 0 0 0 0 0 0 0 0 0 127 0" result="hardAlpha"/>
<feOffset dy="0.377778"/>
<feGaussianBlur stdDeviation="0.188889"/>
<feComposite in2="hardAlpha" operator="out"/>
<feColorMatrix type="matrix" values="0 0 0 0 0 0 0 0 0 0 0 0 0 0 0 0 0 0 0.1 0"/>
<feBlend mode="normal" in2="BackgroundImageFix" result="effect1_dropShadow_5839_24474"/>
<feBlend mode="normal" in="SourceGraphic" in2="effect1_dropShadow_5839_24474" result="shape"/>
</filter>
<linearGradient id="paint0_linear_5839_24474" x1="0.5" y1="9" x2="17.5" y2="9" gradientUnits="userSpaceOnUse">
<stop stop-color="#DF5E00"/>
<stop offset="1" stop-color="#FF9C54"/>
</linearGradient>
</defs>
</svg>
