<svg width="20" height="20" viewBox="0 0 20 20" fill="none" xmlns="http://www.w3.org/2000/svg">
<path d="M10 20C15.5228 20 20 15.5228 20 10C20 4.47715 15.5228 0 10 0C4.47715 0 0 4.47715 0 10C0 15.5228 4.47715 20 10 20Z" fill="#092A26"/>
<path d="M9.98199 16.0001L8.24288 12.1249L6.5 11.0966L9.98199 16.0001Z" fill="#007FED"/>
<path d="M13.4639 11.0966L9.98193 16.0001L11.721 12.1249L13.4639 11.0966Z" fill="url(#paint0_linear_2110_754)"/>
<path d="M9.98199 9.03589L6.5 11.0963L8.24288 12.1247L9.98199 11.0963L11.7211 12.1247L13.464 11.0963L9.98199 9.03589Z" fill="url(#paint1_linear_2110_754)"/>
<path d="M9.98202 9.77685V4L8.24292 10.8052L9.98202 9.77685Z" fill="#008CA3"/>
<path d="M9.98193 9.77685V4L11.721 10.8052L9.98193 9.77685Z" fill="#28ACAC"/>
<path d="M6.5 9.77685L9.98199 4L8.24288 10.8052L6.5 9.77685Z" fill="#28ACAC"/>
<path d="M13.4639 9.77685L9.98193 4L11.721 10.8052L13.4639 9.77685Z" fill="#008CA3"/>
<path d="M9.98202 16.0001L8.24292 12.1249L9.98202 11.0966V16.0001Z" fill="url(#paint2_linear_2110_754)"/>
<path d="M9.98193 16.0001L11.721 12.1249L9.98193 11.0966V16.0001Z" fill="#007FED"/>
<path d="M9.98199 7.71631L6.5 9.77677L8.24288 10.8051L9.98199 9.77677L11.7211 10.8051L13.464 9.77677L9.98199 7.71631Z" fill="url(#paint3_linear_2110_754)"/>
<defs>
<linearGradient id="paint0_linear_2110_754" x1="9.98193" y1="13.5483" x2="13.4639" y2="13.5483" gradientUnits="userSpaceOnUse">
<stop offset="0.000235553" stop-color="#0069E0"/>
<stop offset="0.9848" stop-color="#0069E0"/>
</linearGradient>
<linearGradient id="paint1_linear_2110_754" x1="9.98199" y1="13.6483" x2="9.98199" y2="10.5595" gradientUnits="userSpaceOnUse">
<stop offset="0.25" stop-color="#00A5E6"/>
<stop offset="1" stop-color="#0098E6"/>
</linearGradient>
<linearGradient id="paint2_linear_2110_754" x1="8.24292" y1="13.5483" x2="9.98202" y2="13.5483" gradientUnits="userSpaceOnUse">
<stop offset="0.000235553" stop-color="#0069E0"/>
<stop offset="0.9848" stop-color="#0069E0"/>
</linearGradient>
<linearGradient id="paint3_linear_2110_754" x1="9.98199" y1="10.8051" x2="9.98199" y2="7.71631" gradientUnits="userSpaceOnUse">
<stop stop-color="#00A5E6" stop-opacity="0.8"/>
<stop offset="0.6" stop-color="#42E4AE" stop-opacity="0.6"/>
</linearGradient>
</defs>
</svg>
