<svg width="24" height="24" viewBox="0 0 24 24" fill="none" xmlns="http://www.w3.org/2000/svg">
<path d="M11.6427 20.0002L9.32388 14.8332L7 13.462L11.6427 20.0002Z" fill="#007FED"/>
<path d="M16.2855 13.462L11.6428 20.0002L13.9617 14.8332L16.2855 13.462Z" fill="url(#paint0_linear_2109_11080)"/>
<path d="M11.6427 10.7147L7 13.462L9.32388 14.8332L11.6427 13.462L13.9616 14.8332L16.2854 13.462L11.6427 10.7147Z" fill="url(#paint1_linear_2109_11080)"/>
<path d="M11.6428 11.7026V4L9.32397 13.0737L11.6428 11.7026Z" fill="#008CA3"/>
<path d="M11.6428 11.7026V4L13.9617 13.0737L11.6428 11.7026Z" fill="#28ACAC"/>
<path d="M7 11.7026L11.6427 4L9.32388 13.0737L7 11.7026Z" fill="#28ACAC"/>
<path d="M16.2855 11.7026L11.6428 4L13.9617 13.0737L16.2855 11.7026Z" fill="#008CA3"/>
<path d="M11.6428 20.0002L9.32397 14.8332L11.6428 13.462V20.0002Z" fill="url(#paint2_linear_2109_11080)"/>
<path d="M11.6428 20.0002L13.9617 14.8332L11.6428 13.462V20.0002Z" fill="#007FED"/>
<path d="M11.6427 8.95532L7 11.7026L9.32388 13.0738L11.6427 11.7026L13.9616 13.0738L16.2854 11.7026L11.6427 8.95532Z" fill="url(#paint3_linear_2109_11080)"/>
<defs>
<linearGradient id="paint0_linear_2109_11080" x1="11.6428" y1="16.7311" x2="16.2855" y2="16.7311" gradientUnits="userSpaceOnUse">
<stop offset="0.000235553" stop-color="#0069E0"/>
<stop offset="0.9848" stop-color="#0069E0"/>
</linearGradient>
<linearGradient id="paint1_linear_2109_11080" x1="11.6427" y1="16.8646" x2="11.6427" y2="12.7462" gradientUnits="userSpaceOnUse">
<stop offset="0.25" stop-color="#00A5E6"/>
<stop offset="1" stop-color="#0098E6"/>
</linearGradient>
<linearGradient id="paint2_linear_2109_11080" x1="9.32397" y1="16.7311" x2="11.6428" y2="16.7311" gradientUnits="userSpaceOnUse">
<stop offset="0.000235553" stop-color="#0069E0"/>
<stop offset="0.9848" stop-color="#0069E0"/>
</linearGradient>
<linearGradient id="paint3_linear_2109_11080" x1="11.6427" y1="13.0738" x2="11.6427" y2="8.95532" gradientUnits="userSpaceOnUse">
<stop stop-color="#00A5E6" stop-opacity="0.8"/>
<stop offset="0.6" stop-color="#42E4AE" stop-opacity="0.6"/>
</linearGradient>
</defs>
</svg>
