<svg width="20" height="20" viewBox="0 0 20 20" fill="none" xmlns="http://www.w3.org/2000/svg">
<circle cx="10" cy="10" r="10" fill="#00A3FF"/>
<path d="M6.76991 9.19263L6.67392 9.33989C5.59127 11.0007 5.83308 13.1758 7.25527 14.5693C8.09193 15.389 9.18848 15.799 10.2851 15.7991C10.2851 15.7991 10.2851 15.7991 6.76991 9.19263Z" fill="white"/>
<path opacity="0.6" d="M10.2848 11.2005L6.76965 9.19263C10.2848 15.7991 10.2848 15.7991 10.2848 15.7991C10.2848 14.3603 10.2848 12.7115 10.2848 11.2005Z" fill="white"/>
<path opacity="0.6" d="M13.804 9.19263L13.9 9.33989C14.9826 11.0007 14.7408 13.1758 13.3186 14.5693C12.482 15.389 11.3854 15.799 10.2888 15.7991C10.2888 15.7991 10.2888 15.7991 13.804 9.19263Z" fill="white"/>
<path opacity="0.2" d="M10.2883 11.2005L13.8035 9.19263C10.2884 15.7991 10.2883 15.7991 10.2883 15.7991C10.2883 14.3603 10.2883 12.7115 10.2883 11.2005Z" fill="white"/>
<path opacity="0.2" d="M10.2891 6.71423V10.1772L13.317 8.44686L10.2891 6.71423Z" fill="white"/>
<path opacity="0.6" d="M10.2895 6.71423L7.2594 8.44683L10.2895 10.1772V6.71423Z" fill="white"/>
<path d="M10.2895 3.80176L7.2594 8.44786L10.2895 6.71041V3.80176Z" fill="white"/>
<path opacity="0.6" d="M10.2891 6.70997L13.3193 8.44748L10.2891 3.79907V6.70997Z" fill="white"/>
</svg>
