<svg width="24" height="24" viewBox="0 0 24 24" fill="none" xmlns="http://www.w3.org/2000/svg">
<path d="M6.28318 10.7883L6.12321 11.0338C4.31878 13.8017 4.7218 17.4269 7.09212 19.7494C8.48655 21.1157 10.3141 21.7989 12.1418 21.7991C12.1418 21.7991 12.1418 21.7991 6.28318 10.7883Z" fill="white"/>
<path opacity="0.6" d="M12.1413 14.1348L6.28271 10.7883C12.1413 21.7991 12.1413 21.7991 12.1413 21.7991C12.1413 19.4011 12.1413 16.6532 12.1413 14.1348Z" fill="white"/>
<path opacity="0.6" d="M18.0068 10.7883L18.1668 11.0338C19.9712 13.8017 19.5682 17.4269 17.1978 19.7494C15.8034 21.1157 13.9758 21.7989 12.1482 21.7991C12.1482 21.7991 12.1482 21.7991 18.0068 10.7883Z" fill="white"/>
<path opacity="0.2" d="M12.1472 14.1348L18.0058 10.7883C12.1473 21.7991 12.1472 21.7991 12.1472 21.7991C12.1472 19.4011 12.1472 16.6532 12.1472 14.1348Z" fill="white"/>
<path opacity="0.2" d="M12.1484 6.65759V12.4293L17.195 9.5453L12.1484 6.65759Z" fill="white"/>
<path opacity="0.6" d="M12.1493 6.65759L7.09912 9.54525L12.1493 12.4293V6.65759Z" fill="white"/>
<path d="M12.1493 1.80371L7.09912 9.54721L12.1493 6.65147V1.80371Z" fill="white"/>
<path opacity="0.6" d="M12.1484 6.65057L17.1988 9.54643L12.1484 1.79907V6.65057Z" fill="white"/>
</svg>
