<svg width="24" height="24" viewBox="0 0 24 24" fill="none" xmlns="http://www.w3.org/2000/svg">
<path d="M7.02655 10.9905L6.89856 11.1868C5.45503 13.4012 5.77744 16.3013 7.6737 18.1593C8.78924 19.2523 10.2513 19.7989 11.7134 19.7991C11.7134 19.7991 11.7134 19.7991 7.02655 10.9905Z" fill="white"/>
<path opacity="0.6" d="M11.713 13.6676L7.02612 10.9905C11.713 19.7991 11.713 19.7991 11.713 19.7991C11.713 17.8807 11.713 15.6824 11.713 13.6676Z" fill="white"/>
<path opacity="0.6" d="M16.4054 10.9905L16.5334 11.1868C17.9769 13.4012 17.6545 16.3013 15.7582 18.1593C14.6427 19.2523 13.1806 19.7989 11.7185 19.7991C11.7185 19.7991 11.7185 19.7991 16.4054 10.9905Z" fill="white"/>
<path opacity="0.2" d="M11.7178 13.6676L16.4046 10.9905C11.7178 19.7991 11.7178 19.7991 11.7178 19.7991C11.7178 17.8807 11.7178 15.6824 11.7178 13.6676Z" fill="white"/>
<path opacity="0.2" d="M11.7188 7.68591V12.3033L15.756 9.99608L11.7188 7.68591Z" fill="white"/>
<path opacity="0.6" d="M11.7193 7.68591L7.6792 9.99604L11.7193 12.3033V7.68591Z" fill="white"/>
<path d="M11.7193 3.80273L7.6792 9.99754L11.7193 7.68094V3.80273Z" fill="white"/>
<path opacity="0.6" d="M11.7188 7.68027L15.7591 9.99696L11.7188 3.79907V7.68027Z" fill="white"/>
</svg>
